<svg width="495" height="539" viewBox="0 0 495 539" fill="none" xmlns="http://www.w3.org/2000/svg">
<path d="M0 15C0 6.71572 6.71573 0 15 0H369C377.284 0 384 6.71573 384 15V524C384 532.284 377.284 539 369 539H15C6.71573 539 0 532.284 0 524V15Z" fill="#FFA500"/>
<path d="M323 470.772C396.673 470.772 456.396 466.769 456.396 461.83C456.396 456.891 396.673 452.887 323 452.887C249.327 452.887 189.604 456.891 189.604 461.83C189.604 466.769 249.327 470.772 323 470.772Z" fill="#F5F5F5"/>
<path d="M422.884 408.181C422.884 408.181 427.253 404.002 430.995 408.181C434.738 412.36 435.467 438.264 435.467 438.264" stroke="#7E57C2" stroke-miterlimit="10"/>
<path d="M435.777 443.265C435.777 443.265 433.203 412.865 442.89 400.091" stroke="#7E57C2" stroke-miterlimit="10"/>
<path d="M434.854 440.057C434.854 440.057 436.836 405.455 429.563 397.784" stroke="#7E57C2" stroke-miterlimit="10"/>
<path d="M435.776 440.057C435.776 440.057 435.941 417.195 441.342 413.64C446.743 410.085 449.502 421.682 449.502 421.682" stroke="#7E57C2" stroke-miterlimit="10"/>
<path d="M433.644 440.057C433.644 440.057 434.524 422.503 430.334 416.231C426.144 409.958 421.748 418.917 421.748 418.917" stroke="#7E57C2" stroke-miterlimit="10"/>
<path d="M435.102 442.411C435.102 442.411 432.391 401.331 436.87 394.403" stroke="#7E57C2" stroke-miterlimit="10"/>
<path d="M445.973 416.973C445.973 416.973 443.276 418.111 444.081 420.805C444.886 423.499 453.396 427.915 453.396 427.915C453.396 427.915 456.96 424.162 453.685 418.056C450.41 411.949 446.041 415.03 445.973 416.973Z" fill="#7E57C2"/>
<path opacity="0.5" d="M445.973 416.973C445.973 416.973 443.276 418.111 444.081 420.805C444.886 423.499 453.396 427.915 453.396 427.915C453.396 427.915 456.96 424.162 453.685 418.056C450.41 411.949 446.041 415.03 445.973 416.973Z" fill="white"/>
<path d="M434.263 411.87C434.263 411.87 437.132 411.736 437.29 414.572C437.448 417.408 431.098 425.26 431.098 425.26C431.098 425.26 426.55 423.372 427.527 416.286C428.504 409.2 433.547 410.1 434.263 411.87Z" fill="#7E57C2"/>
<path opacity="0.5" d="M434.263 411.87C434.263 411.87 437.132 411.736 437.29 414.572C437.448 417.408 431.098 425.26 431.098 425.26C431.098 425.26 426.55 423.372 427.527 416.286C428.504 409.2 433.547 410.1 434.263 411.87Z" fill="white"/>
<path d="M431.834 398.258C431.834 398.258 433.747 398.021 433.589 396.678C433.43 395.335 426.158 391.938 421.893 397.468C421.893 397.468 424.645 402.888 428.614 402.998C432.584 403.109 431.834 398.258 431.834 398.258Z" fill="#7E57C2"/>
<path opacity="0.5" d="M431.834 398.258C431.834 398.258 433.747 398.021 433.589 396.678C433.43 395.335 426.158 391.938 421.893 397.468C421.893 397.468 424.645 402.888 428.614 402.998C432.584 403.109 431.834 398.258 431.834 398.258Z" fill="white"/>
<path d="M435.398 395.011C435.398 395.011 433.665 395.975 433.183 394.743C432.701 393.51 437.311 386.171 443.503 388.288C443.503 388.288 443.668 394.561 440.324 397.034C436.981 399.506 435.398 395.011 435.398 395.011Z" fill="#7E57C2"/>
<path opacity="0.5" d="M435.398 395.011C435.398 395.011 433.665 395.975 433.183 394.743C432.701 393.51 437.311 386.171 443.503 388.288C443.503 388.288 443.668 394.561 440.324 397.034C436.981 399.506 435.398 395.011 435.398 395.011Z" fill="white"/>
<path d="M426.344 415.891C426.344 415.891 427.665 414.667 426.241 414.066C424.817 413.466 417.827 413.64 417.751 421.587C417.751 421.587 425.89 423.167 426.901 420.118C427.913 417.068 426.344 415.891 426.344 415.891Z" fill="#7E57C2"/>
<path opacity="0.5" d="M426.344 415.891C426.344 415.891 427.665 414.667 426.241 414.066C424.817 413.466 417.827 413.64 417.751 421.587C417.751 421.587 425.89 423.167 426.901 420.118C427.913 417.068 426.344 415.891 426.344 415.891Z" fill="white"/>
<path d="M442.939 398.061C442.939 398.061 441.618 396.836 443.049 396.236C444.48 395.635 451.456 395.809 451.532 403.765C451.532 403.765 443.393 405.345 442.382 402.287C441.37 399.23 442.939 398.061 442.939 398.061Z" fill="#7E57C2"/>
<path opacity="0.5" d="M442.939 398.061C442.939 398.061 441.618 396.836 443.049 396.236C444.48 395.635 451.456 395.809 451.532 403.765C451.532 403.765 443.393 405.345 442.382 402.287C441.37 399.23 442.939 398.061 442.939 398.061Z" fill="white"/>
<path d="M438.639 404.46C438.639 404.46 438.522 402.975 439.568 403.559C440.613 404.144 444.26 408.655 440.483 412.937C440.483 412.937 435.398 408.615 436.313 406.364C437.228 404.112 438.639 404.46 438.639 404.46Z" fill="#7E57C2"/>
<path opacity="0.5" d="M438.639 404.46C438.639 404.46 438.522 402.975 439.568 403.559C440.613 404.144 444.26 408.655 440.483 412.937C440.483 412.937 435.398 408.615 436.313 406.364C437.228 404.112 438.639 404.46 438.639 404.46Z" fill="white"/>
<path d="M425.161 406.585C425.161 406.585 425.952 405.4 424.796 405.25C423.64 405.1 418.467 406.688 419.671 412.621C419.671 412.621 425.98 412.083 426.248 409.611C426.516 407.138 425.161 406.585 425.161 406.585Z" fill="#7E57C2"/>
<path opacity="0.5" d="M425.161 406.585C425.161 406.585 425.952 405.4 424.796 405.25C423.64 405.1 418.467 406.688 419.671 412.621C419.671 412.621 425.98 412.083 426.248 409.611C426.516 407.138 425.161 406.585 425.161 406.585Z" fill="white"/>
<path d="M446.475 462.09H424.83L422.498 434.883H448.807L446.475 462.09Z" fill="#263238"/>
<path opacity="0.2" d="M446.475 462.09H424.83L422.498 434.883H448.807L446.475 462.09Z" fill="white"/>
<path d="M449.97 431.881H421.343V437.885H449.97V431.881Z" fill="#263238"/>
<path opacity="0.4" d="M449.97 431.881H421.343V437.885H449.97V431.881Z" fill="white"/>
<path d="M457.497 244.113H383.915C383.045 244.113 382.34 244.923 382.34 245.923V314.779C382.34 315.778 383.045 316.588 383.915 316.588H457.497C458.367 316.588 459.072 315.778 459.072 314.779V245.923C459.072 244.923 458.367 244.113 457.497 244.113Z" fill="#7E57C2"/>
<path opacity="0.6" d="M459.072 245.923V314.779C459.072 315.259 458.906 315.719 458.611 316.058C458.316 316.397 457.915 316.588 457.497 316.588H383.915C383.498 316.588 383.097 316.397 382.801 316.058C382.506 315.719 382.34 315.259 382.34 314.779V245.923C382.342 245.443 382.508 244.984 382.803 244.646C383.098 244.307 383.498 244.116 383.915 244.113H457.531C457.943 244.126 458.334 244.322 458.621 244.659C458.909 244.997 459.071 245.45 459.072 245.923V245.923Z" fill="white"/>
<path d="M457.435 251.484H383.971V314.558H457.435V251.484Z" fill="#263238"/>
<path opacity="0.5" d="M389.949 259.345C390.039 259.419 390.148 259.458 390.259 259.455C390.339 259.457 390.418 259.436 390.49 259.394C390.562 259.353 390.624 259.293 390.671 259.218C390.713 259.156 390.743 259.085 390.759 259.009C390.776 258.933 390.78 258.854 390.769 258.777C390.759 258.699 390.735 258.625 390.7 258.559C390.664 258.492 390.617 258.434 390.561 258.389L389.048 257.101L390.568 255.813C390.623 255.767 390.669 255.709 390.704 255.642C390.739 255.576 390.763 255.502 390.773 255.425C390.783 255.348 390.78 255.269 390.764 255.194C390.748 255.118 390.719 255.047 390.678 254.984C390.638 254.921 390.588 254.868 390.53 254.828C390.471 254.787 390.407 254.761 390.34 254.749C390.273 254.737 390.204 254.741 390.139 254.759C390.073 254.778 390.011 254.811 389.956 254.857L387.892 256.627C387.828 256.683 387.776 256.755 387.74 256.838C387.704 256.921 387.686 257.012 387.686 257.105C387.686 257.198 387.704 257.289 387.74 257.372C387.776 257.455 387.828 257.527 387.892 257.583L389.949 259.345Z" fill="white"/>
<path opacity="0.5" d="M396.939 257.093L395.419 258.389C395.315 258.479 395.245 258.611 395.225 258.758C395.204 258.906 395.234 259.056 395.309 259.179C395.356 259.254 395.418 259.315 395.49 259.358C395.561 259.4 395.641 259.423 395.721 259.424C395.833 259.423 395.941 259.382 396.031 259.305L398.095 257.536C398.16 257.481 398.214 257.41 398.25 257.328C398.287 257.245 398.306 257.154 398.306 257.062C398.306 256.969 398.287 256.878 398.25 256.795C398.214 256.713 398.16 256.642 398.095 256.588L396.031 254.826C395.977 254.771 395.915 254.73 395.846 254.705C395.778 254.679 395.706 254.671 395.635 254.679C395.564 254.687 395.495 254.713 395.433 254.754C395.37 254.794 395.316 254.849 395.273 254.915C395.231 254.982 395.201 255.057 395.185 255.137C395.169 255.218 395.168 255.301 395.181 255.381C395.195 255.462 395.223 255.539 395.264 255.606C395.305 255.674 395.358 255.731 395.419 255.774L396.939 257.093Z" fill="white"/>
<path opacity="0.5" d="M392.275 259.4C392.332 259.412 392.39 259.412 392.447 259.4C392.553 259.401 392.657 259.364 392.744 259.293C392.83 259.222 392.895 259.121 392.928 259.005L394.022 255.474C394.068 255.325 394.06 255.161 394.001 255.019C393.941 254.877 393.835 254.768 393.706 254.715C393.576 254.663 393.434 254.672 393.31 254.74C393.186 254.808 393.091 254.93 393.045 255.079L391.958 258.61C391.931 258.685 391.918 258.767 391.919 258.848C391.92 258.93 391.936 259.01 391.966 259.084C391.996 259.159 392.039 259.225 392.092 259.279C392.145 259.334 392.207 259.375 392.275 259.4V259.4Z" fill="white"/>
<path opacity="0.5" d="M400.881 259.653H403.599C403.781 259.653 403.956 259.57 404.085 259.421C404.214 259.273 404.287 259.072 404.287 258.863C404.287 258.653 404.214 258.452 404.085 258.304C403.956 258.156 403.781 258.073 403.599 258.073H400.881C400.699 258.073 400.524 258.156 400.395 258.304C400.266 258.452 400.193 258.653 400.193 258.863C400.193 259.072 400.266 259.273 400.395 259.421C400.524 259.57 400.699 259.653 400.881 259.653Z" fill="white"/>
<path opacity="0.5" d="M444.948 304.343H402.381C402.199 304.343 402.024 304.426 401.895 304.574C401.766 304.723 401.693 304.924 401.693 305.133C401.693 305.343 401.766 305.544 401.895 305.692C402.024 305.84 402.199 305.923 402.381 305.923H444.948C445.13 305.923 445.305 305.84 445.434 305.692C445.563 305.544 445.636 305.343 445.636 305.133C445.636 304.924 445.563 304.723 445.434 304.574C445.305 304.426 445.13 304.343 444.948 304.343Z" fill="white"/>
<path d="M454.298 304.343H449.035C448.852 304.343 448.677 304.426 448.548 304.574C448.419 304.723 448.347 304.924 448.347 305.133C448.347 305.343 448.419 305.544 448.548 305.692C448.677 305.84 448.852 305.923 449.035 305.923H454.298C454.48 305.923 454.655 305.84 454.784 305.692C454.913 305.544 454.986 305.343 454.986 305.133C454.986 304.924 454.913 304.723 454.784 304.574C454.655 304.426 454.48 304.343 454.298 304.343Z" fill="white"/>
<path d="M415.192 300.922H432.33C432.512 300.922 432.687 300.839 432.816 300.691C432.945 300.543 433.018 300.342 433.018 300.132C433.018 299.923 432.945 299.722 432.816 299.574C432.687 299.426 432.512 299.342 432.33 299.342H415.192C415.009 299.342 414.834 299.426 414.705 299.574C414.576 299.722 414.504 299.923 414.504 300.132C414.504 300.342 414.576 300.543 414.705 300.691C414.834 300.839 415.009 300.922 415.192 300.922Z" fill="white"/>
<path opacity="0.5" d="M444.949 300.922C445.131 300.922 445.306 300.839 445.435 300.691C445.564 300.543 445.637 300.342 445.637 300.132C445.637 299.923 445.564 299.722 445.435 299.574C445.306 299.426 445.131 299.342 444.949 299.342H435.227C435.045 299.342 434.87 299.426 434.741 299.574C434.612 299.722 434.539 299.923 434.539 300.132C434.539 300.342 434.612 300.543 434.741 300.691C434.87 300.839 435.045 300.922 435.227 300.922H444.949Z" fill="white"/>
<path opacity="0.5" d="M454.298 299.342H449.131C448.949 299.342 448.774 299.426 448.645 299.574C448.516 299.722 448.443 299.923 448.443 300.132C448.443 300.342 448.516 300.543 448.645 300.691C448.774 300.839 448.949 300.922 449.131 300.922H454.298C454.481 300.922 454.656 300.839 454.785 300.691C454.914 300.543 454.986 300.342 454.986 300.132C454.986 299.923 454.914 299.722 454.785 299.574C454.656 299.426 454.481 299.342 454.298 299.342Z" fill="white"/>
<path d="M445.017 294.342H422.072C421.889 294.342 421.714 294.425 421.585 294.573C421.456 294.721 421.384 294.922 421.384 295.132C421.384 295.341 421.456 295.542 421.585 295.69C421.714 295.838 421.889 295.922 422.072 295.922H444.996C445.178 295.922 445.353 295.838 445.482 295.69C445.611 295.542 445.684 295.341 445.684 295.132C445.684 294.922 445.611 294.721 445.482 294.573C445.353 294.425 445.178 294.342 444.996 294.342H445.017Z" fill="white"/>
<path d="M454.298 294.342H449.069C448.886 294.342 448.711 294.425 448.582 294.573C448.453 294.721 448.381 294.922 448.381 295.132C448.381 295.341 448.453 295.542 448.582 295.69C448.711 295.838 448.886 295.922 449.069 295.922H454.298C454.48 295.922 454.655 295.838 454.784 295.69C454.913 295.542 454.986 295.341 454.986 295.132C454.986 294.922 454.913 294.721 454.784 294.573C454.655 294.425 454.48 294.342 454.298 294.342Z" fill="white"/>
<path opacity="0.5" d="M432.392 290.131C432.392 289.921 432.32 289.721 432.191 289.572C432.061 289.424 431.886 289.341 431.704 289.341H408.312C408.13 289.341 407.955 289.424 407.826 289.572C407.697 289.721 407.624 289.921 407.624 290.131C407.624 290.341 407.697 290.541 407.826 290.69C407.955 290.838 408.13 290.921 408.312 290.921H431.704C431.886 290.921 432.061 290.838 432.191 290.69C432.32 290.541 432.392 290.341 432.392 290.131Z" fill="white"/>
<path opacity="0.5" d="M435.942 289.341C435.759 289.341 435.584 289.424 435.455 289.572C435.326 289.721 435.254 289.921 435.254 290.131C435.254 290.341 435.326 290.541 435.455 290.69C435.584 290.838 435.759 290.921 435.942 290.921H445.01C445.192 290.921 445.367 290.838 445.496 290.69C445.625 290.541 445.698 290.341 445.698 290.131C445.698 289.921 445.625 289.721 445.496 289.572C445.367 289.424 445.192 289.341 445.01 289.341H435.942Z" fill="white"/>
<path d="M454.298 289.341H449.131C448.949 289.341 448.774 289.424 448.645 289.572C448.516 289.721 448.443 289.921 448.443 290.131C448.443 290.341 448.516 290.541 448.645 290.69C448.774 290.838 448.949 290.921 449.131 290.921H454.298C454.481 290.921 454.656 290.838 454.785 290.69C454.914 290.541 454.986 290.341 454.986 290.131C454.986 289.921 454.914 289.721 454.785 289.572C454.656 289.424 454.481 289.341 454.298 289.341Z" fill="white"/>
<path d="M437.209 285.92H441.708C441.891 285.92 442.065 285.837 442.195 285.689C442.324 285.541 442.396 285.34 442.396 285.13C442.396 284.921 442.324 284.72 442.195 284.572C442.065 284.424 441.891 284.34 441.708 284.34H437.209C437.026 284.34 436.851 284.424 436.722 284.572C436.593 284.72 436.521 284.921 436.521 285.13C436.521 285.34 436.593 285.541 436.722 285.689C436.851 285.837 437.026 285.92 437.209 285.92Z" fill="white"/>
<path opacity="0.5" d="M444.927 285.92H454.298C454.48 285.92 454.655 285.837 454.784 285.689C454.913 285.541 454.986 285.34 454.986 285.13C454.986 284.921 454.913 284.72 454.784 284.572C454.655 284.424 454.48 284.34 454.298 284.34H444.927C444.745 284.34 444.57 284.424 444.441 284.572C444.312 284.72 444.239 284.921 444.239 285.13C444.239 285.34 444.312 285.541 444.441 285.689C444.57 285.837 444.745 285.92 444.927 285.92Z" fill="white"/>
<path d="M411.993 280.13C411.993 279.92 411.921 279.719 411.792 279.571C411.663 279.423 411.488 279.34 411.305 279.34H387.672C387.49 279.34 387.315 279.423 387.186 279.571C387.057 279.719 386.984 279.92 386.984 280.13C386.984 280.339 387.057 280.54 387.186 280.688C387.315 280.836 387.49 280.92 387.672 280.92H411.285C411.377 280.923 411.468 280.905 411.554 280.866C411.64 280.828 411.718 280.77 411.784 280.697C411.851 280.623 411.903 280.535 411.939 280.437C411.975 280.34 411.993 280.235 411.993 280.13Z" fill="white"/>
<path opacity="0.5" d="M415.02 280.92H421.962C422.144 280.92 422.319 280.836 422.448 280.688C422.577 280.54 422.65 280.339 422.65 280.13C422.65 279.92 422.577 279.719 422.448 279.571C422.319 279.423 422.144 279.34 421.962 279.34H415.02C414.838 279.34 414.663 279.423 414.534 279.571C414.405 279.719 414.332 279.92 414.332 280.13C414.332 280.339 414.405 280.54 414.534 280.688C414.663 280.836 414.838 280.92 415.02 280.92Z" fill="white"/>
<path opacity="0.5" d="M387.672 275.919H396.616C396.799 275.919 396.974 275.836 397.103 275.688C397.232 275.539 397.304 275.338 397.304 275.129C397.304 274.919 397.232 274.718 397.103 274.57C396.974 274.422 396.799 274.339 396.616 274.339H387.672C387.49 274.339 387.315 274.422 387.186 274.57C387.057 274.718 386.984 274.919 386.984 275.129C386.984 275.338 387.057 275.539 387.186 275.688C387.315 275.836 387.49 275.919 387.672 275.919Z" fill="white"/>
<path d="M429.53 275.129C429.53 274.919 429.458 274.718 429.329 274.57C429.2 274.422 429.025 274.339 428.842 274.339H401.075C400.892 274.339 400.717 274.422 400.588 274.57C400.459 274.718 400.387 274.919 400.387 275.129C400.387 275.338 400.459 275.539 400.588 275.688C400.717 275.836 400.892 275.919 401.075 275.919H428.842C429.025 275.919 429.2 275.836 429.329 275.688C429.458 275.539 429.53 275.338 429.53 275.129V275.129Z" fill="white"/>
<path d="M387.672 270.918H403.875C404.057 270.918 404.232 270.835 404.361 270.687C404.49 270.539 404.563 270.338 404.563 270.128C404.563 269.919 404.49 269.718 404.361 269.57C404.232 269.421 404.057 269.338 403.875 269.338H387.672C387.49 269.338 387.315 269.421 387.186 269.57C387.057 269.718 386.984 269.919 386.984 270.128C386.984 270.338 387.057 270.539 387.186 270.687C387.315 270.835 387.49 270.918 387.672 270.918Z" fill="white"/>
<path opacity="0.5" d="M406.937 270.128C406.937 270.338 407.009 270.539 407.138 270.687C407.267 270.835 407.442 270.918 407.625 270.918H411.636C411.818 270.918 411.993 270.835 412.122 270.687C412.251 270.539 412.324 270.338 412.324 270.128C412.324 269.919 412.251 269.718 412.122 269.57C411.993 269.421 411.818 269.338 411.636 269.338H407.625C407.442 269.338 407.267 269.421 407.138 269.57C407.009 269.718 406.937 269.919 406.937 270.128Z" fill="white"/>
<path opacity="0.5" d="M387.672 265.917H406.806C406.988 265.917 407.163 265.834 407.292 265.686C407.421 265.538 407.494 265.337 407.494 265.127C407.494 264.918 407.421 264.717 407.292 264.569C407.163 264.421 406.988 264.337 406.806 264.337H387.672C387.49 264.337 387.315 264.421 387.186 264.569C387.057 264.717 386.984 264.918 386.984 265.127C386.984 265.337 387.057 265.538 387.186 265.686C387.315 265.834 387.49 265.917 387.672 265.917Z" fill="white"/>
<path d="M421.047 265.917H435.722C435.905 265.917 436.08 265.834 436.209 265.686C436.338 265.538 436.41 265.337 436.41 265.127C436.41 264.918 436.338 264.717 436.209 264.569C436.08 264.421 435.905 264.337 435.722 264.337H421.047C420.865 264.337 420.69 264.421 420.561 264.569C420.432 264.717 420.359 264.918 420.359 265.127C420.359 265.337 420.432 265.538 420.561 265.686C420.69 265.834 420.865 265.917 421.047 265.917Z" fill="white"/>
<path opacity="0.2" d="M426.296 244.113V263.753C426.296 264.801 425.934 265.805 425.289 266.546C424.643 267.287 423.769 267.703 422.856 267.703H382.34V245.923C382.342 245.443 382.508 244.984 382.803 244.646C383.098 244.307 383.498 244.116 383.915 244.113H426.296Z" fill="black"/>
<path d="M421.088 188.987H337.874C337.004 188.987 336.299 189.797 336.299 190.796V259.653C336.299 260.652 337.004 261.462 337.874 261.462H421.088C421.958 261.462 422.663 260.652 422.663 259.653V190.796C422.663 189.797 421.958 188.987 421.088 188.987Z" fill="#7E57C2"/>
<path opacity="0.6" d="M422.663 190.796V259.653C422.663 259.89 422.623 260.126 422.544 260.345C422.464 260.565 422.348 260.764 422.202 260.932C422.056 261.1 421.882 261.233 421.691 261.324C421.5 261.415 421.295 261.462 421.088 261.462H337.874C337.667 261.463 337.462 261.417 337.27 261.326C337.079 261.236 336.905 261.103 336.758 260.934C336.612 260.766 336.496 260.566 336.417 260.346C336.338 260.126 336.298 259.891 336.299 259.653V190.796C336.299 190.317 336.465 189.856 336.76 189.517C337.056 189.178 337.457 188.987 337.874 188.987H421.122C421.534 189 421.925 189.195 422.212 189.533C422.5 189.871 422.662 190.324 422.663 190.796V190.796Z" fill="white"/>
<path d="M421.026 196.358H337.93V259.432H421.026V196.358Z" fill="#263238"/>
<path d="M343.908 204.218C343.998 204.293 344.107 204.331 344.218 204.329C344.325 204.327 344.43 204.287 344.517 204.214C344.604 204.14 344.668 204.038 344.702 203.92C344.735 203.803 344.735 203.676 344.703 203.558C344.67 203.44 344.607 203.337 344.52 203.263L343 201.975L344.52 200.687C344.631 200.594 344.704 200.454 344.725 200.299C344.746 200.143 344.712 199.984 344.631 199.858C344.549 199.731 344.428 199.646 344.292 199.623C344.157 199.599 344.019 199.638 343.908 199.731L341.844 201.501C341.78 201.557 341.728 201.629 341.692 201.712C341.656 201.795 341.638 201.886 341.638 201.979C341.638 202.071 341.656 202.163 341.692 202.246C341.728 202.328 341.78 202.401 341.844 202.457L343.908 204.218Z" fill="white"/>
<path d="M350.891 201.967L349.378 203.263C349.274 203.352 349.204 203.485 349.184 203.632C349.163 203.779 349.193 203.93 349.268 204.053C349.315 204.128 349.377 204.189 349.449 204.231C349.52 204.274 349.6 204.297 349.68 204.298C349.792 204.297 349.9 204.255 349.99 204.179L352.054 202.409C352.121 202.356 352.175 202.286 352.212 202.203C352.249 202.12 352.268 202.028 352.267 201.935C352.266 201.843 352.247 201.752 352.21 201.669C352.173 201.587 352.119 201.516 352.054 201.461L349.99 199.7C349.936 199.645 349.874 199.604 349.805 199.578C349.737 199.553 349.665 199.544 349.594 199.553C349.523 199.561 349.454 199.587 349.392 199.627C349.329 199.668 349.275 199.723 349.232 199.789C349.19 199.855 349.16 199.931 349.144 200.011C349.128 200.091 349.127 200.175 349.14 200.255C349.154 200.336 349.182 200.413 349.223 200.48C349.264 200.548 349.317 200.605 349.378 200.648L350.891 201.967Z" fill="white"/>
<path d="M346.234 204.298C346.291 204.31 346.349 204.31 346.406 204.298C346.512 204.298 346.615 204.259 346.702 204.189C346.788 204.118 346.853 204.018 346.887 203.903L347.974 200.371C347.998 200.299 348.009 200.221 348.007 200.144C348.004 200.067 347.987 199.99 347.959 199.92C347.93 199.85 347.889 199.788 347.838 199.736C347.788 199.685 347.729 199.645 347.665 199.621C347.6 199.589 347.529 199.574 347.459 199.575C347.388 199.576 347.318 199.593 347.254 199.627C347.189 199.66 347.131 199.708 347.084 199.769C347.036 199.829 347 199.899 346.977 199.976L345.89 203.508C345.863 203.585 345.851 203.668 345.854 203.751C345.857 203.835 345.876 203.916 345.908 203.991C345.94 204.065 345.986 204.131 346.042 204.184C346.099 204.237 346.164 204.276 346.234 204.298V204.298Z" fill="white"/>
<path opacity="0.5" d="M354.834 204.527H357.586C357.768 204.527 357.943 204.443 358.072 204.295C358.201 204.147 358.274 203.946 358.274 203.737C358.274 203.527 358.201 203.326 358.072 203.178C357.943 203.03 357.768 202.947 357.586 202.947H354.834C354.651 202.947 354.476 203.03 354.347 203.178C354.218 203.326 354.146 203.527 354.146 203.737C354.146 203.946 354.218 204.147 354.347 204.295C354.476 204.443 354.651 204.527 354.834 204.527Z" fill="white"/>
<path opacity="0.5" d="M390.135 210.791H393.809C393.992 210.791 394.167 210.708 394.296 210.56C394.425 210.412 394.497 210.211 394.497 210.001C394.497 209.792 394.425 209.591 394.296 209.443C394.167 209.295 393.992 209.211 393.809 209.211H390.135C389.953 209.211 389.778 209.295 389.649 209.443C389.52 209.591 389.447 209.792 389.447 210.001C389.447 210.211 389.52 210.412 389.649 210.56C389.778 210.708 389.953 210.791 390.135 210.791Z" fill="white"/>
<path d="M350.313 210.001C350.313 210.211 350.386 210.412 350.515 210.56C350.644 210.708 350.819 210.791 351.001 210.791H385.401C385.584 210.791 385.759 210.708 385.888 210.56C386.017 210.412 386.089 210.211 386.089 210.001C386.089 209.792 386.017 209.591 385.888 209.443C385.759 209.295 385.584 209.211 385.401 209.211H351.001C350.819 209.211 350.644 209.295 350.515 209.443C350.386 209.591 350.313 209.792 350.313 210.001Z" fill="white"/>
<path opacity="0.5" d="M341.652 210.791H346.915C347.098 210.791 347.273 210.708 347.402 210.56C347.531 210.412 347.603 210.211 347.603 210.001C347.603 209.792 347.531 209.591 347.402 209.443C347.273 209.295 347.098 209.211 346.915 209.211H341.652C341.469 209.211 341.294 209.295 341.165 209.443C341.036 209.591 340.964 209.792 340.964 210.001C340.964 210.211 341.036 210.412 341.165 210.56C341.294 210.708 341.469 210.791 341.652 210.791Z" fill="white"/>
<path d="M377.297 215.792C377.48 215.792 377.655 215.709 377.784 215.561C377.913 215.412 377.985 215.212 377.985 215.002C377.985 214.793 377.913 214.592 377.784 214.443C377.655 214.295 377.48 214.212 377.297 214.212H363.592C363.41 214.212 363.235 214.295 363.106 214.443C362.977 214.592 362.904 214.793 362.904 215.002C362.904 215.212 362.977 215.412 363.106 215.561C363.235 215.709 363.41 215.792 363.592 215.792H377.297Z" fill="white"/>
<path d="M351.001 215.792H360.723C360.905 215.792 361.08 215.709 361.209 215.561C361.338 215.412 361.411 215.212 361.411 215.002C361.411 214.793 361.338 214.592 361.209 214.443C361.08 214.295 360.905 214.212 360.723 214.212H351.001C350.819 214.212 350.644 214.295 350.515 214.443C350.386 214.592 350.313 214.793 350.313 215.002C350.313 215.212 350.386 215.412 350.515 215.561C350.644 215.709 350.819 215.792 351.001 215.792Z" fill="white"/>
<path opacity="0.5" d="M341.652 215.792H346.826C347.008 215.792 347.183 215.709 347.312 215.561C347.441 215.412 347.514 215.212 347.514 215.002C347.514 214.793 347.441 214.592 347.312 214.443C347.183 214.295 347.008 214.212 346.826 214.212H341.652C341.469 214.212 341.294 214.295 341.165 214.443C341.036 214.592 340.964 214.793 340.964 215.002C340.964 215.212 341.036 215.412 341.165 215.561C341.294 215.709 341.469 215.792 341.652 215.792Z" fill="white"/>
<path d="M371.105 220.003C371.105 219.793 371.033 219.592 370.904 219.444C370.775 219.296 370.6 219.213 370.417 219.213H350.933C350.751 219.213 350.576 219.296 350.447 219.444C350.318 219.592 350.245 219.793 350.245 220.003C350.245 220.212 350.318 220.413 350.447 220.561C350.576 220.709 350.751 220.793 350.933 220.793H370.417C370.6 220.793 370.775 220.709 370.904 220.561C371.033 220.413 371.105 220.212 371.105 220.003Z" fill="white"/>
<path opacity="0.5" d="M341.652 220.793H346.881C347.063 220.793 347.238 220.709 347.367 220.561C347.496 220.413 347.569 220.212 347.569 220.003C347.569 219.793 347.496 219.592 347.367 219.444C347.238 219.296 347.063 219.213 346.881 219.213H341.652C341.469 219.213 341.294 219.296 341.165 219.444C341.036 219.592 340.964 219.793 340.964 220.003C340.964 220.212 341.036 220.413 341.165 220.561C341.294 220.709 341.469 220.793 341.652 220.793Z" fill="white"/>
<path d="M364.28 225.793H384.232C384.414 225.793 384.589 225.71 384.718 225.562C384.847 225.414 384.92 225.213 384.92 225.003C384.92 224.794 384.847 224.593 384.718 224.445C384.589 224.297 384.414 224.213 384.232 224.213H364.28C364.097 224.213 363.922 224.297 363.793 224.445C363.664 224.593 363.592 224.794 363.592 225.003C363.592 225.213 363.664 225.414 363.793 225.562C363.922 225.71 364.097 225.793 364.28 225.793Z" fill="white"/>
<path d="M350.947 224.213C350.764 224.213 350.589 224.297 350.46 224.445C350.331 224.593 350.259 224.794 350.259 225.003C350.259 225.213 350.331 225.414 350.46 225.562C350.589 225.71 350.764 225.793 350.947 225.793H360.008C360.19 225.793 360.365 225.71 360.494 225.562C360.623 225.414 360.696 225.213 360.696 225.003C360.696 224.794 360.623 224.593 360.494 224.445C360.365 224.297 360.19 224.213 360.008 224.213H350.947Z" fill="white"/>
<path opacity="0.5" d="M341.652 225.793H346.819C347.001 225.793 347.176 225.71 347.305 225.562C347.434 225.414 347.507 225.213 347.507 225.003C347.507 224.794 347.434 224.593 347.305 224.445C347.176 224.297 347.001 224.213 346.819 224.213H341.652C341.469 224.213 341.294 224.297 341.165 224.445C341.036 224.593 340.964 224.794 340.964 225.003C340.964 225.213 341.036 225.414 341.165 225.562C341.294 225.71 341.469 225.793 341.652 225.793Z" fill="white"/>
<path d="M358.721 229.214H354.228C354.046 229.214 353.871 229.297 353.742 229.445C353.613 229.594 353.54 229.795 353.54 230.004C353.54 230.214 353.613 230.415 353.742 230.563C353.871 230.711 354.046 230.794 354.228 230.794H358.721C358.903 230.794 359.078 230.711 359.207 230.563C359.336 230.415 359.409 230.214 359.409 230.004C359.409 229.795 359.336 229.594 359.207 229.445C359.078 229.297 358.903 229.214 358.721 229.214Z" fill="white"/>
<path d="M351.022 229.214H341.652C341.469 229.214 341.294 229.297 341.165 229.445C341.036 229.594 340.964 229.795 340.964 230.004C340.964 230.214 341.036 230.415 341.165 230.563C341.294 230.711 341.469 230.794 341.652 230.794H351.022C351.205 230.794 351.38 230.711 351.509 230.563C351.638 230.415 351.71 230.214 351.71 230.004C351.71 229.795 351.638 229.594 351.509 229.445C351.38 229.297 351.205 229.214 351.022 229.214Z" fill="white"/>
<path d="M380.517 235.005C380.517 235.214 380.589 235.415 380.718 235.563C380.847 235.712 381.022 235.795 381.205 235.795H417.889C418.071 235.795 418.246 235.712 418.375 235.563C418.504 235.415 418.577 235.214 418.577 235.005C418.577 234.795 418.504 234.594 418.375 234.446C418.246 234.298 418.071 234.215 417.889 234.215H381.205C381.022 234.215 380.847 234.298 380.718 234.446C380.589 234.594 380.517 234.795 380.517 235.005Z" fill="white"/>
<path opacity="0.5" d="M370.547 234.215C370.365 234.215 370.19 234.298 370.061 234.446C369.932 234.594 369.859 234.795 369.859 235.005C369.859 235.214 369.932 235.415 370.061 235.563C370.19 235.712 370.365 235.795 370.547 235.795H377.489C377.672 235.795 377.847 235.712 377.976 235.563C378.105 235.415 378.177 235.214 378.177 235.005C378.177 234.795 378.105 234.594 377.976 234.446C377.847 234.298 377.672 234.215 377.489 234.215H370.547Z" fill="white"/>
<path opacity="0.5" d="M417.889 239.216H408.945C408.762 239.216 408.587 239.299 408.458 239.447C408.329 239.595 408.257 239.796 408.257 240.006C408.257 240.215 408.329 240.416 408.458 240.564C408.587 240.712 408.762 240.796 408.945 240.796H417.889C418.071 240.796 418.246 240.712 418.375 240.564C418.504 240.416 418.577 240.215 418.577 240.006C418.577 239.796 418.504 239.595 418.375 239.447C418.246 239.299 418.071 239.216 417.889 239.216Z" fill="white"/>
<path d="M405.203 240.006C405.203 239.796 405.13 239.595 405.001 239.447C404.872 239.299 404.697 239.216 404.515 239.216H367.108C366.925 239.216 366.75 239.299 366.621 239.447C366.492 239.595 366.42 239.796 366.42 240.006C366.42 240.215 366.492 240.416 366.621 240.564C366.75 240.712 366.925 240.796 367.108 240.796H404.515C404.697 240.796 404.872 240.712 405.001 240.564C405.13 240.416 405.203 240.215 405.203 240.006Z" fill="white"/>
<path d="M417.889 244.216H401.687C401.505 244.216 401.33 244.299 401.201 244.448C401.072 244.596 400.999 244.797 400.999 245.006C400.999 245.216 401.072 245.417 401.201 245.565C401.33 245.713 401.505 245.796 401.687 245.796H417.889C418.072 245.796 418.247 245.713 418.376 245.565C418.505 245.417 418.577 245.216 418.577 245.006C418.577 244.797 418.505 244.596 418.376 244.448C418.247 244.299 418.072 244.216 417.889 244.216Z" fill="white"/>
<path opacity="0.5" d="M393.94 244.216C393.757 244.216 393.582 244.299 393.453 244.448C393.324 244.596 393.252 244.797 393.252 245.006C393.252 245.216 393.324 245.417 393.453 245.565C393.582 245.713 393.757 245.796 393.94 245.796H397.992C398.175 245.796 398.35 245.713 398.479 245.565C398.608 245.417 398.68 245.216 398.68 245.006C398.68 244.797 398.608 244.596 398.479 244.448C398.35 244.299 398.175 244.216 397.992 244.216H393.94Z" fill="white"/>
<path d="M417.889 249.217H385.684C385.502 249.217 385.327 249.3 385.198 249.448C385.069 249.596 384.996 249.797 384.996 250.007C384.996 250.216 385.069 250.417 385.198 250.566C385.327 250.714 385.502 250.797 385.684 250.797H417.889C418.072 250.797 418.247 250.714 418.376 250.566C418.505 250.417 418.577 250.216 418.577 250.007C418.577 249.797 418.505 249.596 418.376 249.448C418.247 249.3 418.072 249.217 417.889 249.217Z" fill="white"/>
<path d="M371.47 249.217H360.228C360.046 249.217 359.871 249.3 359.742 249.448C359.613 249.596 359.54 249.797 359.54 250.007C359.54 250.216 359.613 250.417 359.742 250.566C359.871 250.714 360.046 250.797 360.228 250.797H371.47C371.652 250.797 371.827 250.714 371.956 250.566C372.085 250.417 372.158 250.216 372.158 250.007C372.158 249.797 372.085 249.596 371.956 249.448C371.827 249.3 371.652 249.217 371.47 249.217Z" fill="white"/>
<path opacity="0.2" d="M382.34 220.177V261.462H337.874C337.667 261.463 337.462 261.417 337.27 261.326C337.079 261.236 336.905 261.103 336.758 260.934C336.612 260.766 336.496 260.566 336.417 260.346C336.338 260.126 336.298 259.891 336.299 259.653V216.661H379.278C380.09 216.661 380.869 217.031 381.443 217.691C382.017 218.35 382.34 219.244 382.34 220.177Z" fill="black"/>
<path d="M375.089 219.718H278.803C277.933 219.718 277.228 220.528 277.228 221.527V290.384C277.228 291.383 277.933 292.193 278.803 292.193H375.089C375.959 292.193 376.664 291.383 376.664 290.384V221.527C376.664 220.528 375.959 219.718 375.089 219.718Z" fill="#7E57C2"/>
<path opacity="0.6" d="M375.089 219.718H278.803C277.933 219.718 277.228 220.528 277.228 221.527V290.384C277.228 291.383 277.933 292.193 278.803 292.193H375.089C375.959 292.193 376.664 291.383 376.664 290.384V221.527C376.664 220.528 375.959 219.718 375.089 219.718Z" fill="white"/>
<path d="M375.033 227.081H278.865V290.155H375.033V227.081Z" fill="#263238"/>
<path d="M297.971 240.322H282.58C282.398 240.322 282.223 240.405 282.094 240.553C281.965 240.701 281.892 240.902 281.892 241.112C281.892 241.321 281.965 241.522 282.094 241.67C282.223 241.818 282.398 241.902 282.58 241.902H297.971C298.153 241.902 298.328 241.818 298.457 241.67C298.586 241.522 298.659 241.321 298.659 241.112C298.659 240.902 298.586 240.701 298.457 240.553C298.328 240.405 298.153 240.322 297.971 240.322Z" fill="white"/>
<path d="M297.971 245.251H284.644C284.462 245.251 284.287 245.334 284.158 245.482C284.029 245.631 283.956 245.832 283.956 246.041C283.956 246.251 284.029 246.452 284.158 246.6C284.287 246.748 284.462 246.831 284.644 246.831H297.971C298.153 246.831 298.328 246.748 298.457 246.6C298.586 246.452 298.659 246.251 298.659 246.041C298.659 245.832 298.586 245.631 298.457 245.482C298.328 245.334 298.153 245.251 297.971 245.251Z" fill="white"/>
<path opacity="0.5" d="M297.971 250.181H282.58C282.398 250.181 282.223 250.264 282.094 250.412C281.965 250.56 281.892 250.761 281.892 250.971C281.892 251.18 281.965 251.381 282.094 251.529C282.223 251.677 282.398 251.761 282.58 251.761H297.971C298.153 251.761 298.328 251.677 298.457 251.529C298.586 251.381 298.659 251.18 298.659 250.971C298.659 250.761 298.586 250.56 298.457 250.412C298.328 250.264 298.153 250.181 297.971 250.181Z" fill="white"/>
<path d="M297.971 255.11H288.772C288.59 255.11 288.415 255.194 288.285 255.342C288.156 255.49 288.084 255.691 288.084 255.9C288.084 256.11 288.156 256.311 288.285 256.459C288.415 256.607 288.59 256.69 288.772 256.69H297.971C298.153 256.69 298.328 256.607 298.457 256.459C298.586 256.311 298.659 256.11 298.659 255.9C298.659 255.691 298.586 255.49 298.457 255.342C298.328 255.194 298.153 255.11 297.971 255.11Z" fill="white"/>
<path d="M297.971 260.04H282.58C282.398 260.04 282.223 260.123 282.094 260.271C281.965 260.419 281.892 260.62 281.892 260.83C281.892 261.039 281.965 261.24 282.094 261.389C282.223 261.537 282.398 261.62 282.58 261.62H297.971C298.153 261.62 298.328 261.537 298.457 261.389C298.586 261.24 298.659 261.039 298.659 260.83C298.659 260.62 298.586 260.419 298.457 260.271C298.328 260.123 298.153 260.04 297.971 260.04Z" fill="white"/>
<path d="M297.971 264.97H285.332C285.15 264.97 284.975 265.053 284.846 265.201C284.717 265.349 284.644 265.55 284.644 265.76C284.644 265.969 284.717 266.17 284.846 266.318C284.975 266.466 285.15 266.55 285.332 266.55H297.971C298.153 266.55 298.328 266.466 298.457 266.318C298.586 266.17 298.659 265.969 298.659 265.76C298.659 265.55 298.586 265.349 298.457 265.201C298.328 265.053 298.153 264.97 297.971 264.97Z" fill="white"/>
<path d="M297.971 269.899H285.332C285.15 269.899 284.975 269.982 284.846 270.13C284.717 270.279 284.644 270.48 284.644 270.689C284.644 270.899 284.717 271.1 284.846 271.248C284.975 271.396 285.15 271.479 285.332 271.479H297.971C298.153 271.479 298.328 271.396 298.457 271.248C298.586 271.1 298.659 270.899 298.659 270.689C298.659 270.48 298.586 270.279 298.457 270.13C298.328 269.982 298.153 269.899 297.971 269.899Z" fill="white"/>
<path d="M297.971 274.829H283.956C283.774 274.829 283.599 274.912 283.47 275.06C283.341 275.208 283.268 275.409 283.268 275.619C283.268 275.828 283.341 276.029 283.47 276.177C283.599 276.325 283.774 276.409 283.956 276.409H297.971C298.153 276.409 298.328 276.325 298.457 276.177C298.586 276.029 298.659 275.828 298.659 275.619C298.659 275.409 298.586 275.208 298.457 275.06C298.328 274.912 298.153 274.829 297.971 274.829Z" fill="white"/>
<path opacity="0.5" d="M297.971 279.758H288.772C288.59 279.758 288.415 279.842 288.285 279.99C288.156 280.138 288.084 280.339 288.084 280.548C288.084 280.758 288.156 280.959 288.285 281.107C288.415 281.255 288.59 281.338 288.772 281.338H297.971C298.153 281.338 298.328 281.255 298.457 281.107C298.586 280.959 298.659 280.758 298.659 280.548C298.659 280.339 298.586 280.138 298.457 279.99C298.328 279.842 298.153 279.758 297.971 279.758Z" fill="white"/>
<path opacity="0.5" d="M297.971 235.392H286.708C286.526 235.392 286.351 235.475 286.222 235.623C286.093 235.771 286.02 235.972 286.02 236.182C286.02 236.391 286.093 236.592 286.222 236.741C286.351 236.889 286.526 236.972 286.708 236.972H297.971C298.153 236.972 298.328 236.889 298.457 236.741C298.586 236.592 298.659 236.391 298.659 236.182C298.659 235.972 298.586 235.771 298.457 235.623C298.328 235.475 298.153 235.392 297.971 235.392Z" fill="white"/>
<path d="M297.971 230.462H282.58C282.398 230.462 282.223 230.546 282.094 230.694C281.965 230.842 281.892 231.043 281.892 231.252C281.892 231.462 281.965 231.663 282.094 231.811C282.223 231.959 282.398 232.042 282.58 232.042H297.971C298.153 232.042 298.328 231.959 298.457 231.811C298.586 231.663 298.659 231.462 298.659 231.252C298.659 231.043 298.586 230.842 298.457 230.694C298.328 230.546 298.153 230.462 297.971 230.462Z" fill="white"/>
<path d="M297.971 284.68H282.58C282.398 284.68 282.223 284.763 282.094 284.911C281.965 285.06 281.892 285.26 281.892 285.47C281.892 285.68 281.965 285.88 282.094 286.029C282.223 286.177 282.398 286.26 282.58 286.26H297.971C298.153 286.26 298.328 286.177 298.457 286.029C298.586 285.88 298.659 285.68 298.659 285.47C298.659 285.26 298.586 285.06 298.457 284.911C298.328 284.763 298.153 284.68 297.971 284.68Z" fill="white"/>
<path opacity="0.5" d="M306.226 240.124H303.22V242.099H306.226V240.124Z" fill="white"/>
<path opacity="0.5" d="M306.226 245.054H303.22V247.029H306.226V245.054Z" fill="white"/>
<path opacity="0.5" d="M306.226 249.983H303.22V251.958H306.226V249.983Z" fill="white"/>
<path opacity="0.5" d="M306.226 254.913H303.22V256.888H306.226V254.913Z" fill="white"/>
<path opacity="0.5" d="M306.226 259.842H303.22V261.817H306.226V259.842Z" fill="white"/>
<path opacity="0.5" d="M306.226 264.772H303.22V266.747H306.226V264.772Z" fill="white"/>
<path opacity="0.5" d="M306.226 269.702H303.22V271.677H306.226V269.702Z" fill="white"/>
<path opacity="0.5" d="M306.226 274.631H303.22V276.606H306.226V274.631Z" fill="white"/>
<path opacity="0.5" d="M306.226 279.561H303.22V281.536H306.226V279.561Z" fill="white"/>
<path opacity="0.5" d="M306.226 235.194H303.22V237.169H306.226V235.194Z" fill="white"/>
<path opacity="0.5" d="M306.226 230.265H303.22V232.24H306.226V230.265Z" fill="white"/>
<path opacity="0.5" d="M306.226 284.49H303.22V286.465H306.226V284.49Z" fill="white"/>
<path d="M321.796 241.112C321.796 241.321 321.868 241.522 321.997 241.67C322.126 241.818 322.301 241.902 322.484 241.902H372.274C372.457 241.902 372.632 241.818 372.761 241.67C372.89 241.522 372.962 241.321 372.962 241.112C372.962 240.902 372.89 240.701 372.761 240.553C372.632 240.405 372.457 240.322 372.274 240.322H322.484C322.301 240.322 322.126 240.405 321.997 240.553C321.868 240.701 321.796 240.902 321.796 241.112Z" fill="white"/>
<path d="M372.275 245.251H345.016C344.834 245.251 344.659 245.334 344.53 245.482C344.401 245.631 344.328 245.832 344.328 246.041C344.328 246.251 344.401 246.452 344.53 246.6C344.659 246.748 344.834 246.831 345.016 246.831H372.282C372.464 246.831 372.639 246.748 372.768 246.6C372.897 246.452 372.97 246.251 372.97 246.041C372.97 245.832 372.897 245.631 372.768 245.482C372.639 245.334 372.464 245.251 372.282 245.251H372.275Z" fill="white"/>
<path opacity="0.5" d="M338.535 245.251H330.052C329.87 245.251 329.695 245.334 329.566 245.482C329.437 245.631 329.364 245.832 329.364 246.041C329.364 246.251 329.437 246.452 329.566 246.6C329.695 246.748 329.87 246.831 330.052 246.831H338.535C338.718 246.831 338.893 246.748 339.022 246.6C339.151 246.452 339.223 246.251 339.223 246.041C339.223 245.832 339.151 245.631 339.022 245.482C338.893 245.334 338.718 245.251 338.535 245.251Z" fill="white"/>
<path d="M355.762 250.181H317.922C317.74 250.181 317.565 250.264 317.436 250.412C317.307 250.56 317.234 250.761 317.234 250.971C317.234 251.18 317.307 251.381 317.436 251.529C317.565 251.677 317.74 251.761 317.922 251.761H355.762C355.945 251.761 356.12 251.677 356.249 251.529C356.378 251.381 356.45 251.18 356.45 250.971C356.45 250.761 356.378 250.56 356.249 250.412C356.12 250.264 355.945 250.181 355.762 250.181Z" fill="white"/>
<path opacity="0.5" d="M310.1 251.761H312.783C312.966 251.761 313.141 251.677 313.27 251.529C313.399 251.381 313.471 251.18 313.471 250.971C313.471 250.761 313.399 250.56 313.27 250.412C313.141 250.264 312.966 250.181 312.783 250.181H310.1C309.918 250.181 309.743 250.264 309.614 250.412C309.485 250.56 309.412 250.761 309.412 250.971C309.412 251.18 309.485 251.381 309.614 251.529C309.743 251.677 309.918 251.761 310.1 251.761Z" fill="white"/>
<path d="M360.578 255.9C360.578 255.691 360.506 255.49 360.377 255.342C360.248 255.194 360.073 255.11 359.89 255.11H324.802C324.62 255.11 324.445 255.194 324.316 255.342C324.187 255.49 324.114 255.691 324.114 255.9C324.114 256.11 324.187 256.311 324.316 256.459C324.445 256.607 324.62 256.69 324.802 256.69H359.89C360.073 256.69 360.248 256.607 360.377 256.459C360.506 256.311 360.578 256.11 360.578 255.9Z" fill="white"/>
<path d="M310.1 256.69H320C320.183 256.69 320.358 256.607 320.487 256.459C320.616 256.311 320.688 256.11 320.688 255.9C320.688 255.691 320.616 255.49 320.487 255.342C320.358 255.194 320.183 255.11 320 255.11H310.1C309.918 255.11 309.743 255.194 309.614 255.342C309.485 255.49 309.412 255.691 309.412 255.9C309.412 256.11 309.485 256.311 309.614 256.459C309.743 256.607 309.918 256.69 310.1 256.69Z" fill="white"/>
<path d="M310.1 261.62H347.507C347.689 261.62 347.864 261.537 347.993 261.389C348.122 261.24 348.195 261.039 348.195 260.83C348.195 260.62 348.122 260.419 347.993 260.271C347.864 260.123 347.689 260.04 347.507 260.04H310.1C309.918 260.04 309.743 260.123 309.614 260.271C309.485 260.419 309.412 260.62 309.412 260.83C309.412 261.039 309.485 261.24 309.614 261.389C309.743 261.537 309.918 261.62 310.1 261.62Z" fill="white"/>
<path d="M334.297 264.97C334.115 264.97 333.94 265.053 333.811 265.201C333.682 265.349 333.609 265.55 333.609 265.76C333.609 265.969 333.682 266.17 333.811 266.318C333.94 266.466 334.115 266.55 334.297 266.55H353.699C353.881 266.55 354.056 266.466 354.185 266.318C354.314 266.17 354.387 265.969 354.387 265.76C354.387 265.55 354.314 265.349 354.185 265.201C354.056 265.053 353.881 264.97 353.699 264.97H334.297Z" fill="white"/>
<path d="M310.1 266.55H326.894C327.077 266.55 327.252 266.466 327.381 266.318C327.51 266.17 327.582 265.969 327.582 265.76C327.582 265.55 327.51 265.349 327.381 265.201C327.252 265.053 327.077 264.97 326.894 264.97H310.1C309.918 264.97 309.743 265.053 309.614 265.201C309.485 265.349 309.412 265.55 309.412 265.76C309.412 265.969 309.485 266.17 309.614 266.318C309.743 266.466 309.918 266.55 310.1 266.55Z" fill="white"/>
<path d="M372.274 269.899H326.612C326.429 269.899 326.254 269.982 326.125 270.13C325.996 270.279 325.924 270.48 325.924 270.689C325.924 270.899 325.996 271.1 326.125 271.248C326.254 271.396 326.429 271.479 326.612 271.479H372.274C372.457 271.479 372.632 271.396 372.761 271.248C372.89 271.1 372.962 270.899 372.962 270.689C372.962 270.48 372.89 270.279 372.761 270.13C372.632 269.982 372.457 269.899 372.274 269.899Z" fill="white"/>
<path d="M372.275 274.829H332.804C332.622 274.829 332.447 274.912 332.318 275.06C332.189 275.208 332.116 275.409 332.116 275.619C332.116 275.828 332.189 276.029 332.318 276.177C332.447 276.325 332.622 276.409 332.804 276.409H372.275C372.457 276.409 372.632 276.325 372.761 276.177C372.89 276.029 372.963 275.828 372.963 275.619C372.963 275.409 372.89 275.208 372.761 275.06C372.632 274.912 372.457 274.829 372.275 274.829Z" fill="white"/>
<path opacity="0.5" d="M372.275 279.758H364.157C363.974 279.758 363.799 279.842 363.67 279.99C363.541 280.138 363.469 280.339 363.469 280.548C363.469 280.758 363.541 280.959 363.67 281.107C363.799 281.255 363.974 281.338 364.157 281.338H372.275C372.458 281.338 372.633 281.255 372.762 281.107C372.891 280.959 372.963 280.758 372.963 280.548C372.963 280.339 372.891 280.138 372.762 279.99C372.633 279.842 372.458 279.758 372.275 279.758Z" fill="white"/>
<path d="M358.48 279.758H328.676C328.494 279.758 328.319 279.842 328.19 279.99C328.061 280.138 327.988 280.339 327.988 280.548C327.988 280.758 328.061 280.959 328.19 281.107C328.319 281.255 328.494 281.338 328.676 281.338H358.48C358.663 281.338 358.838 281.255 358.967 281.107C359.096 280.959 359.168 280.758 359.168 280.548C359.168 280.339 359.096 280.138 358.967 279.99C358.838 279.842 358.663 279.758 358.48 279.758Z" fill="white"/>
<path d="M310.1 236.972H342.003C342.185 236.972 342.36 236.889 342.489 236.741C342.618 236.592 342.691 236.391 342.691 236.182C342.691 235.972 342.618 235.771 342.489 235.623C342.36 235.475 342.185 235.392 342.003 235.392H310.1C309.918 235.392 309.743 235.475 309.614 235.623C309.485 235.771 309.412 235.972 309.412 236.182C309.412 236.391 309.485 236.592 309.614 236.741C309.743 236.889 309.918 236.972 310.1 236.972Z" fill="white"/>
<path d="M310.1 232.042H359.891C360.073 232.042 360.248 231.959 360.377 231.811C360.506 231.663 360.579 231.462 360.579 231.252C360.579 231.043 360.506 230.842 360.377 230.694C360.248 230.546 360.073 230.462 359.891 230.462H310.1C309.918 230.462 309.743 230.546 309.614 230.694C309.485 230.842 309.412 231.043 309.412 231.252C309.412 231.462 309.485 231.663 309.614 231.811C309.743 231.959 309.918 232.042 310.1 232.042Z" fill="white"/>
<path d="M356.45 284.68H335.315C335.132 284.68 334.957 284.763 334.828 284.911C334.699 285.06 334.627 285.26 334.627 285.47C334.627 285.68 334.699 285.88 334.828 286.029C334.957 286.177 335.132 286.26 335.315 286.26H356.45C356.633 286.26 356.808 286.177 356.937 286.029C357.066 285.88 357.138 285.68 357.138 285.47C357.138 285.26 357.066 285.06 356.937 284.911C356.808 284.763 356.633 284.68 356.45 284.68Z" fill="white"/>
<path opacity="0.5" d="M329.323 284.68H310.1C309.918 284.68 309.743 284.763 309.614 284.911C309.485 285.06 309.412 285.26 309.412 285.47C309.412 285.68 309.485 285.88 309.614 286.029C309.743 286.177 309.918 286.26 310.1 286.26H329.323C329.505 286.26 329.68 286.177 329.809 286.029C329.938 285.88 330.011 285.68 330.011 285.47C330.011 285.26 329.938 285.06 329.809 284.911C329.68 284.763 329.505 284.68 329.323 284.68Z" fill="white"/>
<path opacity="0.5" d="M349.082 236.972C349.264 236.972 349.439 236.889 349.568 236.741C349.697 236.592 349.77 236.391 349.77 236.182C349.77 235.972 349.697 235.771 349.568 235.623C349.439 235.475 349.264 235.392 349.082 235.392H346.605C346.423 235.392 346.248 235.475 346.119 235.623C345.989 235.771 345.917 235.972 345.917 236.182C345.917 236.391 345.989 236.592 346.119 236.741C346.248 236.889 346.423 236.972 346.605 236.972H349.082Z" fill="white"/>
<path opacity="0.5" d="M318.928 241.112C318.928 240.902 318.855 240.701 318.726 240.553C318.597 240.405 318.422 240.322 318.24 240.322H314.917C314.734 240.322 314.559 240.405 314.43 240.553C314.301 240.701 314.229 240.902 314.229 241.112C314.229 241.321 314.301 241.522 314.43 241.67C314.559 241.818 314.734 241.902 314.917 241.902H318.24C318.422 241.902 318.597 241.818 318.726 241.67C318.855 241.522 318.928 241.321 318.928 241.112Z" fill="white"/>
<path opacity="0.5" d="M356.863 260.83C356.863 260.62 356.791 260.419 356.662 260.271C356.533 260.123 356.358 260.04 356.175 260.04H352.542C352.36 260.04 352.185 260.123 352.056 260.271C351.927 260.419 351.854 260.62 351.854 260.83C351.854 261.039 351.927 261.24 352.056 261.389C352.185 261.537 352.36 261.62 352.542 261.62H356.175C356.358 261.62 356.533 261.537 356.662 261.389C356.791 261.24 356.863 261.039 356.863 260.83Z" fill="white"/>
<path opacity="0.5" d="M368.772 256.69C368.955 256.69 369.13 256.607 369.259 256.459C369.388 256.311 369.46 256.11 369.46 255.9C369.46 255.691 369.388 255.49 369.259 255.342C369.13 255.194 368.955 255.11 368.772 255.11H365.821C365.638 255.11 365.463 255.194 365.334 255.342C365.205 255.49 365.133 255.691 365.133 255.9C365.133 256.11 365.205 256.311 365.334 256.459C365.463 256.607 365.638 256.69 365.821 256.69H368.772Z" fill="white"/>
<path opacity="0.5" d="M321.081 269.899C320.898 269.899 320.723 269.982 320.594 270.13C320.465 270.279 320.393 270.48 320.393 270.689C320.393 270.899 320.465 271.1 320.594 271.248C320.723 271.396 320.898 271.479 321.081 271.479H324.046C324.228 271.479 324.403 271.396 324.532 271.248C324.661 271.1 324.734 270.899 324.734 270.689C324.734 270.48 324.661 270.279 324.532 270.13C324.403 269.982 324.228 269.899 324.046 269.899H321.081Z" fill="white"/>
<path d="M247.045 258.618H224.293C223.001 258.618 221.954 259.82 221.954 261.304V275.437C221.954 276.92 223.001 278.123 224.293 278.123H247.045C248.337 278.123 249.384 276.92 249.384 275.437V261.304C249.384 259.82 248.337 258.618 247.045 258.618Z" fill="#7E57C2"/>
<path d="M239.828 277.135C239.828 277.135 240.867 282.579 246.921 284.688C246.921 284.688 243.77 281.417 244.479 277.135H239.828Z" fill="#7E57C2"/>
<path d="M225.538 261.691V264.969H225.242V261.991H224.554V261.691H225.538Z" fill="white"/>
<path d="M226.212 263.35C226.212 262.307 226.694 261.691 227.354 261.691C228.015 261.691 228.49 262.307 228.49 263.35C228.49 264.393 228.015 265.017 227.354 265.017C226.694 265.017 226.212 264.369 226.212 263.35ZM228.194 263.35C228.194 262.481 227.85 261.999 227.354 261.999C226.859 261.999 226.515 262.481 226.515 263.35C226.515 264.219 226.852 264.709 227.354 264.709C227.857 264.709 228.194 264.203 228.194 263.35V263.35Z" fill="white"/>
<path d="M228.909 263.35C228.909 262.307 229.384 261.691 230.044 261.691C230.705 261.691 231.186 262.307 231.186 263.35C231.186 264.393 230.705 265.017 230.044 265.017C229.384 265.017 228.909 264.369 228.909 263.35ZM230.884 263.35C230.884 262.481 230.547 261.999 230.044 261.999C229.542 261.999 229.205 262.481 229.205 263.35C229.205 264.219 229.549 264.709 230.044 264.709C230.54 264.709 230.884 264.203 230.884 263.35Z" fill="white"/>
<path d="M232.391 261.691V264.969H232.095V261.991H231.407V261.691H232.391Z" fill="white"/>
<path d="M233.856 261.691V264.969H233.56V261.991H232.872V261.691H233.856Z" fill="white"/>
<path d="M234.537 263.35C234.537 262.307 235.012 261.691 235.672 261.691C236.333 261.691 236.814 262.307 236.814 263.35C236.814 264.393 236.333 265.017 235.672 265.017C235.012 265.017 234.537 264.369 234.537 263.35ZM236.512 263.35C236.512 262.481 236.168 261.999 235.672 261.999C235.177 261.999 234.833 262.481 234.833 263.35C234.833 264.219 235.177 264.709 235.672 264.709C236.168 264.709 236.512 264.203 236.512 263.35Z" fill="white"/>
<path d="M238.019 261.691V264.969H237.723V261.991H237.035V261.691H238.019Z" fill="white"/>
<path d="M238.693 263.35C238.693 262.307 239.174 261.691 239.828 261.691C240.482 261.691 240.97 262.307 240.97 263.35C240.97 264.393 240.489 265.017 239.828 265.017C239.168 265.017 238.693 264.369 238.693 263.35ZM240.667 263.35C240.667 262.481 240.33 261.999 239.828 261.999C239.326 261.999 238.996 262.481 238.996 263.35C238.996 264.219 239.333 264.709 239.828 264.709C240.323 264.709 240.667 264.203 240.667 263.35V263.35Z" fill="white"/>
<path d="M241.39 263.35C241.39 262.307 241.864 261.691 242.525 261.691C243.185 261.691 243.667 262.307 243.667 263.35C243.667 264.393 243.185 265.017 242.525 265.017C241.864 265.017 241.39 264.369 241.39 263.35ZM243.364 263.35C243.364 262.481 243.02 261.999 242.525 261.999C242.029 261.999 241.685 262.481 241.685 263.35C241.685 264.219 242.029 264.709 242.525 264.709C243.02 264.709 243.364 264.203 243.364 263.35Z" fill="white"/>
<path d="M244.871 261.691V264.969H244.568V261.991H243.88V261.691H244.871Z" fill="white"/>
<path d="M246.336 261.691V264.969H246.047V261.991H245.359V261.691H246.336Z" fill="white"/>
<path d="M224.747 268.09C224.747 267.047 225.222 266.431 225.882 266.431C226.543 266.431 227.024 267.047 227.024 268.09C227.024 269.133 226.543 269.757 225.882 269.757C225.222 269.757 224.747 269.109 224.747 268.09ZM226.722 268.09C226.722 267.221 226.378 266.739 225.882 266.739C225.387 266.739 225.043 267.221 225.043 268.09C225.043 268.959 225.387 269.449 225.882 269.449C226.378 269.449 226.722 268.943 226.722 268.09Z" fill="white"/>
<path d="M227.444 268.09C227.444 267.047 227.919 266.431 228.579 266.431C229.24 266.431 229.714 267.047 229.714 268.09C229.714 269.133 229.24 269.757 228.579 269.757C227.919 269.757 227.444 269.109 227.444 268.09ZM229.418 268.09C229.418 267.221 229.074 266.739 228.579 266.739C228.084 266.739 227.74 267.221 227.74 268.09C227.74 268.959 228.084 269.449 228.579 269.449C229.074 269.449 229.432 268.943 229.432 268.09H229.418Z" fill="white"/>
<path d="M230.918 266.431V269.71H230.623V266.731H229.935V266.431H230.918Z" fill="white"/>
<path d="M232.391 266.431V269.71H232.095V266.731H231.407V266.431H232.391Z" fill="white"/>
<path d="M233.065 268.09C233.065 267.047 233.547 266.431 234.207 266.431C234.868 266.431 235.342 267.047 235.342 268.09C235.342 269.133 234.868 269.757 234.207 269.757C233.547 269.757 233.065 269.109 233.065 268.09ZM235.046 268.09C235.046 267.221 234.702 266.739 234.207 266.739C233.712 266.739 233.368 267.221 233.368 268.09C233.368 268.959 233.705 269.449 234.207 269.449C234.709 269.449 235.046 268.943 235.046 268.09Z" fill="white"/>
<path d="M236.546 266.431V269.71H236.251V266.731H235.562V266.431H236.546Z" fill="white"/>
<path d="M237.227 268.09C237.227 267.047 237.702 266.431 238.362 266.431C239.023 266.431 239.504 267.047 239.504 268.09C239.504 269.133 239.023 269.757 238.362 269.757C237.702 269.757 237.227 269.109 237.227 268.09ZM239.202 268.09C239.202 267.221 238.858 266.739 238.362 266.739C237.867 266.739 237.523 267.221 237.523 268.09C237.523 268.959 237.867 269.449 238.362 269.449C238.858 269.449 239.202 268.943 239.202 268.09Z" fill="white"/>
<path d="M239.917 268.09C239.917 267.047 240.399 266.431 241.06 266.431C241.72 266.431 242.195 267.047 242.195 268.09C242.195 269.133 241.713 269.757 241.06 269.757C240.406 269.757 239.917 269.109 239.917 268.09ZM241.899 268.09C241.899 267.221 241.555 266.739 241.06 266.739C240.564 266.739 240.22 267.221 240.22 268.09C240.22 268.959 240.557 269.449 241.06 269.449C241.562 269.449 241.899 268.943 241.899 268.09Z" fill="white"/>
<path d="M243.398 266.431V269.71H243.103V266.731H242.415V266.431H243.398Z" fill="white"/>
<path d="M244.871 266.431V269.71H244.568V266.731H243.88V266.431H244.871Z" fill="white"/>
<path d="M246.336 266.431V269.71H246.047V266.731H245.359V266.431H246.336Z" fill="white"/>
<path d="M225.538 271.171V274.449H225.242V271.471H224.554V271.171H225.538Z" fill="white"/>
<path d="M227.003 271.171V274.449H226.714V271.471H226.026V271.171H227.003Z" fill="white"/>
<path d="M227.685 272.83C227.685 271.787 228.159 271.171 228.82 271.171C229.48 271.171 229.962 271.787 229.962 272.83C229.962 273.873 229.48 274.497 228.82 274.497C228.159 274.497 227.685 273.849 227.685 272.83ZM229.659 272.83C229.659 271.961 229.322 271.479 228.82 271.479C228.318 271.479 227.98 271.961 227.98 272.83C227.98 273.699 228.324 274.189 228.82 274.189C229.315 274.189 229.659 273.683 229.659 272.83Z" fill="white"/>
<path d="M230.382 272.83C230.382 271.787 230.857 271.171 231.517 271.171C232.178 271.171 232.659 271.787 232.659 272.83C232.659 273.873 232.178 274.497 231.517 274.497C230.857 274.497 230.382 273.849 230.382 272.83ZM232.356 272.83C232.356 271.961 232.012 271.479 231.517 271.479C231.022 271.479 230.678 271.961 230.678 272.83C230.678 273.699 231.022 274.189 231.517 274.189C232.012 274.189 232.356 273.683 232.356 272.83Z" fill="white"/>
<path d="M233.856 271.171V274.449H233.56V271.471H232.872V271.171H233.856Z" fill="white"/>
<path d="M235.329 271.171V274.449H235.033V271.471H234.345V271.171H235.329Z" fill="white"/>
<path d="M236.009 272.83C236.009 271.787 236.484 271.171 237.144 271.171C237.805 271.171 238.287 271.787 238.287 272.83C238.287 273.873 237.805 274.497 237.144 274.497C236.484 274.497 236.009 273.849 236.009 272.83ZM237.984 272.83C237.984 271.961 237.64 271.479 237.144 271.479C236.649 271.479 236.312 271.937 236.312 272.83C236.312 273.723 236.656 274.189 237.151 274.189C237.647 274.189 237.984 273.683 237.984 272.83Z" fill="white"/>
<path d="M238.7 272.83C238.7 271.787 239.181 271.171 239.842 271.171C240.502 271.171 240.977 271.787 240.977 272.83C240.977 273.873 240.502 274.497 239.842 274.497C239.181 274.497 238.7 273.849 238.7 272.83ZM240.681 272.83C240.681 271.961 240.337 271.479 239.842 271.479C239.346 271.479 239.002 271.961 239.002 272.83C239.002 273.699 239.34 274.189 239.842 274.189C240.344 274.189 240.681 273.683 240.681 272.83Z" fill="white"/>
<path d="M242.181 271.171V274.449H241.885V271.471H241.197V271.171H242.181Z" fill="white"/>
<path d="M242.862 272.83C242.862 271.787 243.337 271.171 243.997 271.171C244.657 271.171 245.139 271.787 245.139 272.83C245.139 273.873 244.657 274.497 243.997 274.497C243.337 274.497 242.862 273.849 242.862 272.83ZM244.836 272.83C244.836 271.961 244.492 271.479 243.997 271.479C243.502 271.479 243.192 271.937 243.192 272.83C243.192 273.723 243.536 274.189 244.031 274.189C244.527 274.189 244.836 273.683 244.836 272.83V272.83Z" fill="white"/>
<path d="M246.336 271.171V274.449H246.047V271.471H245.359V271.171H246.336Z" fill="white"/>
<path d="M203.446 444.939L222.366 442.806V412.273H229.865V442.798L248.861 444.939C249.772 445.041 250.618 445.529 251.233 446.307C251.849 447.085 252.19 448.099 252.191 449.15V452.413H200.123V449.15C200.124 448.1 200.464 447.088 201.078 446.31C201.692 445.532 202.536 445.043 203.446 444.939V444.939Z" fill="#263238"/>
<path opacity="0.2" d="M203.446 444.939L222.366 442.806V412.273H229.865V442.798L248.861 444.939C249.772 445.041 250.618 445.529 251.233 446.307C251.849 447.085 252.19 448.099 252.191 449.15V452.413H200.123V449.15C200.124 448.1 200.464 447.088 201.078 446.31C201.692 445.532 202.536 445.043 203.446 444.939V444.939Z" fill="white"/>
<path d="M250.189 462.098C252.898 462.098 255.095 459.576 255.095 456.466C255.095 453.355 252.898 450.833 250.189 450.833C247.48 450.833 245.284 453.355 245.284 456.466C245.284 459.576 247.48 462.098 250.189 462.098Z" fill="#263238"/>
<path d="M202.125 462.098C204.834 462.098 207.031 459.576 207.031 456.466C207.031 453.355 204.834 450.833 202.125 450.833C199.416 450.833 197.22 453.355 197.22 456.466C197.22 459.576 199.416 462.098 202.125 462.098Z" fill="#263238"/>
<path d="M228.304 418.838H223.908C223.154 418.838 222.431 418.494 221.898 417.882C221.366 417.27 221.066 416.44 221.066 415.575V391.646H231.159L231.159 415.575C231.159 416.005 231.085 416.43 230.942 416.827C230.798 417.224 230.587 417.585 230.322 417.888C230.057 418.191 229.742 418.431 229.396 418.594C229.049 418.757 228.678 418.84 228.304 418.838Z" fill="#263238"/>
<path opacity="0.3" d="M228.304 418.838H223.908C223.154 418.838 222.431 418.494 221.898 417.882C221.366 417.27 221.066 416.44 221.066 415.575V391.646H231.159L231.159 415.575C231.159 416.005 231.085 416.43 230.942 416.827C230.798 417.224 230.587 417.585 230.322 417.888C230.057 418.191 229.742 418.431 229.396 418.594C229.049 418.757 228.678 418.84 228.304 418.838Z" fill="white"/>
<path d="M208.186 343.93C208.186 343.93 206.728 384.631 216.628 391.638H205.352C205.352 391.638 196.628 377.766 199.091 343.93H208.186Z" fill="#263238"/>
<path opacity="0.3" d="M208.186 343.93C208.186 343.93 206.728 384.631 216.628 391.638H205.352C205.352 391.638 196.628 377.766 199.091 343.93H208.186Z" fill="white"/>
<path d="M204.96 385.942H248.593C249.505 385.942 250.38 386.358 251.025 387.099C251.671 387.84 252.033 388.845 252.033 389.892V394.759H201.52V389.892C201.52 388.845 201.882 387.84 202.528 387.099C203.173 386.358 204.048 385.942 204.96 385.942Z" fill="#263238"/>
<path d="M252.762 390.35H200.797C200.034 390.35 199.415 391.061 199.415 391.938V393.171C199.415 394.048 200.034 394.759 200.797 394.759H252.762C253.526 394.759 254.145 394.048 254.145 393.171V391.938C254.145 391.061 253.526 390.35 252.762 390.35Z" fill="#263238"/>
<path opacity="0.6" d="M252.762 390.35H200.797C200.034 390.35 199.415 391.061 199.415 391.938V393.171C199.415 394.048 200.034 394.759 200.797 394.759H252.762C253.526 394.759 254.145 394.048 254.145 393.171V391.938C254.145 391.061 253.526 390.35 252.762 390.35Z" fill="white"/>
<path d="M196.78 352.186H213.931C219.471 352.186 223.962 347.029 223.962 340.667V333.597C223.962 327.235 219.471 322.079 213.931 322.079H196.78C191.24 322.079 186.748 327.235 186.748 333.597V340.667C186.748 347.029 191.24 352.186 196.78 352.186Z" fill="#263238"/>
<path d="M246.034 456.387L251.517 455.525L252.274 440.563L246.804 441.44L246.034 456.387Z" fill="#EBB376"/>
<path opacity="0.2" d="M246.804 441.44L252.274 440.571L251.84 449.126L246.377 449.671L246.804 441.44Z" fill="black"/>
<path d="M246.254 368.42L244.919 358.806L214.193 356.696C214.193 356.696 210.925 376.707 213.436 382.04C217.915 391.559 242.071 386.78 249.136 387.696C244.912 407.533 245.325 446.298 245.325 446.298L255.418 447.183C255.418 447.183 263.185 405.408 264.754 385.563C265.814 372.188 256.147 372.528 246.254 368.42Z" fill="#7E57C2"/>
<path d="M244.142 446.867L256.271 447.783L257.31 441.819L243.983 441.108L244.142 446.867Z" fill="#7E57C2"/>
<path d="M258.679 450.801L264.196 451.267L267.65 436.818L262.139 436.36L258.679 450.801Z" fill="#EBB376"/>
<path d="M264.961 451.552C264.961 451.552 264.961 451.552 264.961 451.599H265.002C265.438 451.877 265.9 452.099 266.378 452.263C266.724 452.413 267.105 452.413 267.451 452.263C267.565 452.188 267.657 452.078 267.718 451.945C267.779 451.812 267.806 451.662 267.795 451.512C267.802 451.418 267.789 451.324 267.756 451.237C267.724 451.15 267.673 451.074 267.609 451.014C267.115 450.787 266.566 450.77 266.061 450.967C266.458 450.663 266.746 450.206 266.873 449.679C266.883 449.556 266.855 449.432 266.795 449.328C266.735 449.225 266.646 449.148 266.543 449.111C266.456 449.062 266.361 449.036 266.264 449.036C266.168 449.036 266.072 449.062 265.986 449.111C265.298 449.537 265.057 451.307 265.036 451.402H264.94C264.934 451.427 264.933 451.453 264.937 451.479C264.94 451.505 264.948 451.53 264.961 451.552V451.552ZM265.373 451.196L265.25 451.244C265.38 450.659 265.655 449.703 266.061 449.458C266.105 449.427 266.154 449.407 266.205 449.399C266.256 449.391 266.308 449.395 266.357 449.411H266.412C266.584 449.49 266.612 449.608 266.598 449.695C266.584 450.146 265.896 450.856 265.373 451.196V451.196ZM265.373 451.528C266.103 451.275 267.114 451.046 267.437 451.315C267.468 451.342 267.493 451.379 267.509 451.42C267.524 451.461 267.53 451.507 267.527 451.552C267.532 451.647 267.515 451.741 267.478 451.826C267.44 451.911 267.384 451.983 267.314 452.034C267.004 452.231 266.295 452.042 265.394 451.528H265.373Z" fill="#7E57C2"/>
<path opacity="0.2" d="M262.14 436.36L267.651 436.826L265.676 445.082L260.227 444.315L262.14 436.36Z" fill="black"/>
<path d="M269.522 444.062L259.807 440.784C259.807 440.784 265.607 403.196 271.503 390.161C271.063 389.995 270.478 389.782 269.756 389.537C268.455 389.086 266.729 388.525 264.699 387.878C250.581 383.383 221.967 374.953 221.967 374.953L235.039 360.947C235.039 360.947 287.107 370.063 288.187 385.816C288.69 393.392 269.522 444.062 269.522 444.062Z" fill="#7E57C2"/>
<path d="M258.555 441.037L270.251 444.829L272.35 439.243L259.443 435.365L258.555 441.037Z" fill="#7E57C2"/>
<path opacity="0.2" d="M269.742 389.537C268.442 389.086 266.715 388.525 264.685 387.878C265.091 384.054 265.098 379.67 263.495 377.434C260.309 372.978 252.115 370.324 247.451 369.415C243.55 368.625 230.443 367.045 230.443 367.045C230.443 367.045 247.451 365.173 264.843 370.995C273.464 373.887 271.758 383.533 269.742 389.537Z" fill="black"/>
<path opacity="0.2" d="M244.142 446.867L256.271 447.783L257.31 441.819L243.983 441.108L244.142 446.867Z" fill="white"/>
<path opacity="0.2" d="M258.555 441.037L270.251 444.829L272.35 439.243L259.443 435.365L258.555 441.037Z" fill="white"/>
<path d="M264.74 450.627L258.762 448.708C258.662 448.673 258.555 448.684 258.462 448.738C258.37 448.793 258.299 448.887 258.266 449L256.656 454.34C256.622 454.483 256.613 454.631 256.629 454.777C256.645 454.924 256.686 455.065 256.75 455.193C256.814 455.321 256.9 455.433 257.002 455.522C257.104 455.612 257.22 455.677 257.344 455.715C259.408 456.347 260.461 456.505 263.096 457.342C265.41 458.2 267.773 458.871 270.169 459.349C272.473 459.649 272.666 457.026 271.717 456.663C269.46 455.794 266.763 453.1 265.587 451.259C265.373 450.947 265.076 450.725 264.74 450.627V450.627Z" fill="#263238"/>
<path d="M252.06 455.541H252.177C252.177 455.541 252.301 455.589 252.315 455.604C252.329 455.62 252.315 455.604 252.315 455.644H252.363C252.831 455.811 253.313 455.919 253.801 455.968C254.165 456.045 254.542 455.96 254.854 455.731C254.947 455.633 255.015 455.507 255.05 455.368C255.085 455.229 255.086 455.081 255.053 454.941C255.042 454.847 255.012 454.757 254.964 454.68C254.916 454.603 254.852 454.54 254.778 454.498C254.249 454.397 253.706 454.512 253.244 454.822C253.57 454.431 253.763 453.918 253.787 453.377C253.766 453.248 253.709 453.132 253.625 453.044C253.54 452.957 253.433 452.905 253.319 452.895C253.213 452.873 253.104 452.877 252.998 452.905C252.893 452.934 252.794 452.987 252.707 453.061C252.129 453.629 252.019 455.431 252.019 455.533L252.06 455.541ZM252.659 455.178L252.542 455.249C252.509 454.56 252.673 453.877 253.01 453.306C253.047 453.265 253.092 453.234 253.14 453.215C253.189 453.196 253.241 453.189 253.292 453.195H253.354C253.533 453.234 253.581 453.337 253.588 453.424C253.464 454.114 253.136 454.734 252.659 455.178ZM252.735 455.486C253.423 455.067 254.344 454.601 254.702 454.791C254.739 454.809 254.77 454.839 254.793 454.876C254.816 454.914 254.83 454.958 254.833 455.004C254.854 455.095 254.855 455.191 254.834 455.282C254.814 455.374 254.773 455.458 254.716 455.525C254.434 455.802 253.712 455.786 252.735 455.486Z" fill="#7E57C2"/>
<path d="M251.93 454.767L245.738 454.325C245.635 454.311 245.531 454.345 245.45 454.419C245.369 454.493 245.316 454.601 245.304 454.72V454.72L244.699 460.329C244.682 460.624 244.767 460.915 244.936 461.138C245.105 461.361 245.343 461.499 245.6 461.521C247.761 461.632 248.799 461.561 251.524 461.735C253.942 462.022 256.374 462.112 258.803 462.003C261.108 461.743 260.826 459.136 259.835 459.009C257.468 458.701 254.331 456.702 252.859 455.194C252.599 454.937 252.272 454.787 251.93 454.767V454.767Z" fill="#263238"/>
<path d="M258.782 332.53C258.782 332.53 260.516 343.322 263.64 345.399C266.763 347.477 288.366 332.657 288.366 332.657L286.557 328.47C286.557 328.47 268.469 334.079 268.297 334.11C268.125 334.142 267.609 329.37 267.609 329.37L258.782 332.53Z" fill="#263238"/>
<path d="M265.525 315.561C266.949 317.583 268.965 332.53 268.965 332.53L258.356 335.366L256.058 327.798L265.525 315.561Z" fill="#7E57C2"/>
<path opacity="0.4" d="M265.525 315.561C266.949 317.583 268.965 332.53 268.965 332.53L258.356 335.366L256.058 327.798L265.525 315.561Z" fill="white"/>
<path d="M211.152 369.155L246.756 362.353C246.756 362.353 248.985 338.068 265.524 315.561C265.524 315.561 259.78 301.151 239.346 303.15C218.912 305.149 211.152 369.155 211.152 369.155Z" fill="#7E57C2"/>
<path opacity="0.6" d="M211.152 369.155L246.756 362.353C246.756 362.353 248.985 338.068 265.524 315.561C265.524 315.561 259.78 301.151 239.346 303.15C218.912 305.149 211.152 369.155 211.152 369.155Z" fill="white"/>
<path d="M238.864 323.817C238.864 323.817 238.507 335.05 239.594 335.667C240.681 336.283 261.245 327.719 264.506 327.095C267.767 326.471 275.246 329.749 275.246 329.749L275.934 334.877C275.934 334.877 269.274 334.726 265.531 332.633C265.531 332.633 241.506 349.128 236.333 348.188C231.159 347.248 229.384 324.97 229.384 324.97L238.864 323.817Z" fill="#EBB376"/>
<path d="M238.865 327.798C238.865 327.798 238.94 334.403 240.137 334.908C241.334 335.414 259.126 328.217 259.126 328.217L261.94 335.698C261.94 335.698 239.456 352.359 235.108 348.259C230.76 344.159 229.666 329.473 229.666 329.473L238.865 327.798Z" fill="#263238"/>
<path d="M235.624 305.67C242.022 304.88 239.711 330.895 239.711 330.895L228.957 332.657C228.957 332.657 224.355 307.029 235.624 305.67Z" fill="#7E57C2"/>
<path opacity="0.4" d="M235.624 305.67C242.022 304.88 239.711 330.895 239.711 330.895L228.957 332.657C228.957 332.657 224.355 307.029 235.624 305.67Z" fill="white"/>
<path d="M245.772 303.79C245.772 303.79 245.559 315.214 251.654 316.375C257.75 317.536 258.39 308.238 258.39 308.238C258.39 308.238 254.289 303.166 245.772 303.79Z" fill="#263238"/>
<path d="M261.08 310.11C260.022 309.682 258.869 309.682 257.812 310.11C257.569 311.299 256.987 312.36 256.157 313.125C255.328 313.89 254.3 314.313 253.237 314.329C252.713 314.359 252.188 314.333 251.668 314.25C246.343 313.412 246.928 304.319 246.928 304.319C248.869 304.473 250.805 303.938 252.473 302.787V302.787C253.888 301.835 255.124 300.567 256.106 299.058L261.08 310.11Z" fill="#EBB376"/>
<path opacity="0.2" d="M261.08 310.11C260.023 309.682 258.87 309.682 257.812 310.11C257.57 311.299 256.987 312.36 256.158 313.125C255.329 313.89 254.3 314.313 253.237 314.329C251.861 310.434 252.047 305.971 252.473 302.787C253.889 301.835 255.124 300.567 256.106 299.058L261.08 310.11Z" fill="black"/>
<path d="M265.208 292.454C262.835 294.302 263.915 297.431 269.281 302.336C271.462 299.09 271.82 292.785 270.093 291.205C268.366 289.625 267.272 290.85 265.208 292.454Z" fill="#263238"/>
<path d="M255.019 297.525C255.273 304.185 255.136 308.096 258.005 311.564C262.325 316.786 269.522 313.878 271.001 307.266C272.329 301.325 271.689 291.466 266.061 288.677C264.823 288.062 263.468 287.82 262.125 287.976C260.783 288.131 259.497 288.678 258.391 289.565C257.284 290.451 256.393 291.648 255.803 293.041C255.213 294.435 254.943 295.978 255.019 297.525Z" fill="#EBB376"/>
<path d="M263.639 299.524C263.639 300.061 263.88 300.504 264.183 300.512C264.485 300.52 264.747 300.085 264.754 299.548C264.761 299.011 264.52 298.56 264.217 298.552C263.914 298.545 263.68 298.987 263.639 299.524Z" fill="#263238"/>
<path d="M268.999 299.635C268.999 300.172 269.233 300.622 269.543 300.622C269.852 300.622 270.107 300.204 270.12 299.651C270.134 299.098 269.88 298.671 269.57 298.663C269.26 298.655 269.006 299.09 268.999 299.635Z" fill="#263238"/>
<path d="M267.272 299.856C267.808 301.522 268.544 303.093 269.46 304.525C269.132 304.781 268.761 304.954 268.37 305.03C267.979 305.106 267.579 305.085 267.196 304.967L267.272 299.856Z" fill="#D58745"/>
<path d="M271.4 296.064C271.374 296.115 271.337 296.157 271.292 296.187C271.248 296.216 271.197 296.231 271.145 296.23C270.799 296.194 270.449 296.253 270.126 296.403C269.803 296.553 269.516 296.788 269.288 297.091C269.266 297.124 269.239 297.152 269.208 297.173C269.177 297.194 269.142 297.208 269.107 297.214C269.071 297.22 269.034 297.218 268.999 297.207C268.964 297.197 268.932 297.179 268.903 297.154C268.873 297.131 268.849 297.1 268.83 297.066C268.811 297.031 268.798 296.992 268.792 296.952C268.786 296.911 268.788 296.87 268.796 296.83C268.804 296.79 268.82 296.753 268.841 296.72C269.123 296.332 269.482 296.028 269.888 295.833C270.294 295.638 270.734 295.557 271.173 295.598C271.209 295.599 271.244 295.608 271.277 295.625C271.309 295.642 271.339 295.666 271.363 295.696C271.388 295.727 271.406 295.762 271.419 295.801C271.431 295.839 271.436 295.881 271.434 295.922V295.922C271.434 295.972 271.422 296.021 271.4 296.064V296.064Z" fill="#263238"/>
<path d="M265.896 297.257C265.846 297.276 265.793 297.278 265.742 297.265C265.691 297.251 265.644 297.221 265.607 297.178C265.37 296.884 265.075 296.658 264.748 296.521C264.42 296.384 264.068 296.338 263.722 296.388C263.649 296.402 263.574 296.384 263.513 296.337C263.452 296.29 263.408 296.218 263.392 296.135C263.377 296.053 263.392 295.968 263.432 295.899C263.472 295.829 263.534 295.781 263.605 295.764C264.04 295.689 264.485 295.735 264.902 295.899C265.318 296.063 265.695 296.339 265.999 296.704C266.048 296.765 266.076 296.846 266.076 296.929C266.076 297.012 266.048 297.093 265.999 297.154V297.154L265.896 297.257Z" fill="#263238"/>
<path d="M257.413 291.679C260.103 292.801 259.725 296.143 255.562 302.4C252.762 299.864 251.063 293.852 252.411 291.837C253.76 289.823 255.06 290.708 257.413 291.679Z" fill="#263238"/>
<path d="M252.184 302.795C252.371 303.597 252.694 304.349 253.135 305.008C253.575 305.666 254.124 306.219 254.751 306.634C256.429 307.724 257.73 306.121 257.654 304.027C257.578 302.131 256.615 299.287 254.744 299.05C252.872 298.813 251.723 300.804 252.184 302.795Z" fill="#EBB376"/>
<path d="M262.821 306.073C262.821 306.073 263.825 308.254 266.632 308.151" stroke="#263238" stroke-width="0.526291" stroke-linecap="round" stroke-linejoin="round"/>
<path d="M258.032 293.994C258.032 293.994 260.316 294.128 261.369 295.787C261.652 295.357 261.849 294.862 261.948 294.335C262.046 293.808 262.044 293.263 261.94 292.738C261.94 292.738 264.692 293.125 265.924 295.321C266.267 294.521 266.41 293.626 266.336 292.738C266.859 293.467 267.152 294.377 267.169 295.321C267.169 295.321 269.274 293.789 268.999 292.351C269.521 293.083 269.903 293.934 270.12 294.847C270.12 294.847 271.496 294.302 271.201 291.49C271.662 292.072 271.999 292.77 272.184 293.528C272.184 293.528 273.987 287.658 267.169 284.38C260.351 281.101 252.521 284.988 252.659 291.49C252.797 297.991 258.032 293.994 258.032 293.994Z" fill="#263238"/>
<path d="M266.632 300.622C266.632 302.344 265.614 303.743 264.369 303.743C263.123 303.743 262.098 302.344 262.098 300.622C262.098 298.9 263.116 297.462 264.369 297.462C265.621 297.462 266.632 298.9 266.632 300.622Z" stroke="#263238" stroke-width="0.526291" stroke-linecap="round" stroke-linejoin="round"/>
<path d="M272.831 300.48C272.831 302.202 271.82 303.64 270.568 303.64C269.316 303.64 268.297 302.242 268.297 300.48C268.297 298.718 269.316 297.359 270.568 297.359C271.82 297.359 272.831 298.789 272.831 300.48Z" stroke="#263238" stroke-width="0.526291" stroke-linecap="round" stroke-linejoin="round"/>
<path d="M266.632 300.622C266.853 300.38 267.142 300.235 267.447 300.215C267.752 300.195 268.054 300.3 268.297 300.512" stroke="#263238" stroke-width="0.526291" stroke-linecap="round" stroke-linejoin="round"/>
<path d="M262.098 300.622L256.581 300.077" stroke="#263238" stroke-width="0.526291" stroke-linecap="round" stroke-linejoin="round"/>
<path d="M313.293 332.53V334.624C313.293 335.248 312.357 335.69 311.813 335.69H269.336C268.793 335.69 267.919 335.248 267.919 334.624V332.53H313.293Z" fill="#263238"/>
<path opacity="0.6" d="M313.293 332.53V334.624C313.293 335.248 312.357 335.69 311.813 335.69H269.336C268.793 335.69 267.919 335.248 267.919 334.624V332.53H313.293Z" fill="white"/>
<path opacity="0.2" d="M313.292 332.53V334.624C313.292 335.248 312.357 335.69 311.813 335.69H283.784C283.241 335.69 282.339 335.248 282.339 334.624V332.53H313.292Z" fill="black"/>
<path d="M320.11 306.871L315.054 333.312C314.964 333.744 314.756 334.131 314.459 334.415C314.163 334.7 313.795 334.867 313.409 334.892H285.759C285.582 334.873 285.411 334.809 285.258 334.704C285.106 334.6 284.975 334.458 284.876 334.289C284.776 334.12 284.711 333.928 284.684 333.726C284.657 333.524 284.669 333.318 284.72 333.123L289.777 306.958C289.88 306.558 290.099 306.211 290.399 305.975C290.698 305.739 291.059 305.629 291.421 305.662H319.065C319.808 305.67 320.248 306.01 320.11 306.871Z" fill="#263238"/>
<path opacity="0.6" d="M320.11 306.871L315.054 333.312C314.964 333.744 314.756 334.131 314.459 334.415C314.163 334.7 313.795 334.867 313.409 334.892H285.759C285.582 334.873 285.411 334.809 285.258 334.704C285.106 334.6 284.975 334.458 284.876 334.289C284.776 334.12 284.711 333.928 284.684 333.726C284.657 333.524 284.669 333.318 284.72 333.123L289.777 306.958C289.88 306.558 290.099 306.211 290.399 305.975C290.698 305.739 291.059 305.629 291.421 305.662H319.065C319.808 305.67 320.248 306.01 320.11 306.871Z" fill="white"/>
<path opacity="0.4" d="M320.111 306.871L315.054 333.312C314.964 333.744 314.756 334.131 314.46 334.415C314.163 334.7 313.795 334.867 313.409 334.892H286.701C286.524 334.874 286.352 334.811 286.199 334.707C286.045 334.603 285.914 334.461 285.814 334.292C285.714 334.123 285.648 333.93 285.62 333.728C285.593 333.526 285.605 333.319 285.656 333.123L290.719 306.958C290.822 306.558 291.042 306.211 291.341 305.975C291.641 305.739 292.002 305.629 292.364 305.662H319.065C319.808 305.67 320.248 306.01 320.111 306.871Z" fill="white"/>
<path opacity="0.2" d="M303.846 323.817C305.133 323.817 306.454 322.237 306.791 320.277C307.128 318.318 306.35 316.73 305.057 316.73C304.821 316.736 304.588 316.79 304.369 316.888C304.25 317.587 303.989 318.243 303.608 318.805C303.226 319.366 302.735 319.816 302.174 320.119C302.16 320.171 302.148 320.224 302.14 320.277C301.775 322.229 302.553 323.817 303.846 323.817Z" fill="black"/>
<path d="M337.682 313.965L344.122 321.36L346.303 335.69H333.059L333.602 334.11L340.861 332.53L341.493 323.817L336.684 322.505L337.682 313.965Z" fill="#263238"/>
<path opacity="0.6" d="M346.303 335.69H333.059L333.602 334.11L340.861 332.53L341.493 323.817L340.867 323.643L336.684 322.505L337.682 313.965L344.122 321.36L346.303 335.69Z" fill="white"/>
<path opacity="0.2" d="M343.227 320.333L340.868 323.643L336.685 322.505L337.682 313.965L343.227 320.333Z" fill="black"/>
<path d="M336.932 326.376H329.536C329.464 326.379 329.393 326.363 329.328 326.33C329.263 326.297 329.204 326.247 329.158 326.185C329.111 326.123 329.077 326.05 329.058 325.971C329.038 325.892 329.035 325.809 329.047 325.728L333.32 289.301C333.345 289.113 333.428 288.941 333.554 288.818C333.681 288.695 333.842 288.628 334.008 288.63H341.404C341.476 288.626 341.547 288.641 341.614 288.674C341.68 288.706 341.739 288.755 341.787 288.818C341.834 288.88 341.869 288.953 341.888 289.033C341.908 289.113 341.911 289.196 341.899 289.278L337.578 325.76C337.545 325.93 337.464 326.083 337.347 326.195C337.229 326.306 337.084 326.37 336.932 326.376V326.376Z" fill="#263238"/>
<path opacity="0.6" d="M336.932 326.376H329.536C329.464 326.379 329.393 326.363 329.328 326.33C329.263 326.297 329.204 326.247 329.158 326.185C329.111 326.123 329.077 326.05 329.058 325.971C329.038 325.892 329.035 325.809 329.047 325.728L333.32 289.301C333.345 289.113 333.428 288.941 333.554 288.818C333.681 288.695 333.842 288.628 334.008 288.63H341.404C341.476 288.626 341.547 288.641 341.614 288.674C341.68 288.706 341.739 288.755 341.787 288.818C341.834 288.88 341.869 288.953 341.888 289.033C341.908 289.113 341.911 289.196 341.899 289.278L337.578 325.76C337.545 325.93 337.464 326.083 337.347 326.195C337.229 326.306 337.084 326.37 336.932 326.376V326.376Z" fill="white"/>
<path opacity="0.4" d="M334.868 326.376H329.536C329.464 326.379 329.393 326.363 329.328 326.33C329.263 326.297 329.204 326.247 329.158 326.185C329.111 326.123 329.077 326.05 329.058 325.971C329.038 325.892 329.035 325.809 329.047 325.728L333.32 289.301C333.345 289.113 333.428 288.941 333.554 288.818C333.681 288.695 333.842 288.628 334.008 288.63H339.34C339.412 288.626 339.483 288.641 339.55 288.674C339.616 288.706 339.675 288.755 339.723 288.818C339.77 288.88 339.805 288.953 339.824 289.033C339.844 289.113 339.847 289.196 339.835 289.278L335.514 325.76C335.481 325.93 335.4 326.083 335.283 326.195C335.165 326.306 335.02 326.37 334.868 326.376V326.376Z" fill="white"/>
<path d="M335.185 325.231H329.509L333.685 289.799H339.361L335.185 325.231Z" fill="#7E57C2"/>
<path d="M286.192 462.09H281.975L274.4 341.031H279.993L286.192 462.09Z" fill="#263238"/>
<path opacity="0.4" d="M286.192 462.09H281.975L274.771 347.043L274.4 341.22H279.993L280.296 347.043L286.192 462.09Z" fill="white"/>
<path opacity="0.2" d="M280.296 346.75H274.771L274.4 341.22H279.993L280.296 346.75Z" fill="black"/>
<path d="M317.124 462.09H312.907L312.219 341.031H317.812L317.124 462.09Z" fill="#263238"/>
<path opacity="0.5" d="M317.812 341.22L317.702 360.757L317.124 462.09H312.907L312.329 360.757L312.219 341.22H317.812Z" fill="white"/>
<path opacity="0.2" d="M317.812 341.22L317.702 360.97H312.329L312.219 341.22H317.812Z" fill="black"/>
<path d="M361.872 462.09H357.655L350.08 341.031H355.674L361.872 462.09Z" fill="#263238"/>
<path opacity="0.5" d="M361.872 462.09H357.655L350.452 347.043L350.08 341.22H355.674L355.976 347.043L361.872 462.09Z" fill="white"/>
<path opacity="0.2" d="M355.976 346.75H350.452L350.08 341.22H355.674L355.976 346.75Z" fill="black"/>
<path d="M237.977 462.09H233.76L239.952 341.031H245.545L237.977 462.09Z" fill="#263238"/>
<path opacity="0.5" d="M245.545 341.22L245.174 347.043L237.97 462.09H233.76L239.649 347.043L239.952 341.22H245.545Z" fill="white"/>
<path opacity="0.2" d="M239.952 341.22H245.545L245.174 346.75H239.649L239.952 341.22Z" fill="black"/>
<path d="M235.521 337.997H360.104V342.35C360.104 342.803 359.948 343.237 359.669 343.557C359.39 343.877 359.012 344.056 358.618 344.056H237C236.606 344.056 236.228 343.877 235.949 343.557C235.671 343.237 235.514 342.803 235.514 342.35V337.997H235.521Z" fill="#7E57C2"/>
<path opacity="0.2" d="M360.104 337.997H235.521V341.031H360.104V337.997Z" fill="black"/>
<path d="M362.718 338.787H232.913C232.519 338.787 232.14 338.608 231.86 338.288C231.58 337.968 231.422 337.534 231.42 337.081V337.081C231.42 336.626 231.578 336.19 231.858 335.869C232.138 335.547 232.517 335.366 232.913 335.366H362.718C363.113 335.368 363.491 335.55 363.77 335.871C364.048 336.193 364.204 336.627 364.204 337.081C364.204 337.305 364.166 337.527 364.091 337.734C364.017 337.941 363.907 338.129 363.769 338.287C363.631 338.446 363.467 338.571 363.287 338.657C363.107 338.743 362.913 338.787 362.718 338.787V338.787Z" fill="#7E57C2"/>
</svg>
