<svg width="344" height="395" viewBox="0 0 344 395" fill="none" xmlns="http://www.w3.org/2000/svg">
<path d="M172 337.772C245.673 337.772 305.396 333.769 305.396 328.83C305.396 323.891 245.673 319.887 172 319.887C98.3271 319.887 38.6035 323.891 38.6035 328.83C38.6035 333.769 98.3271 337.772 172 337.772Z" fill="#F5F5F5"/>
<path d="M271.884 275.181C271.884 275.181 276.253 271.002 279.995 275.181C283.738 279.36 284.467 305.264 284.467 305.264" stroke="#7E57C2" stroke-miterlimit="10"/>
<path d="M284.777 310.265C284.777 310.265 282.203 279.865 291.89 267.091" stroke="#7E57C2" stroke-miterlimit="10"/>
<path d="M283.854 307.057C283.854 307.057 285.836 272.455 278.563 264.784" stroke="#7E57C2" stroke-miterlimit="10"/>
<path d="M284.776 307.057C284.776 307.057 284.941 284.195 290.342 280.64C295.743 277.085 298.502 288.682 298.502 288.682" stroke="#7E57C2" stroke-miterlimit="10"/>
<path d="M282.644 307.057C282.644 307.057 283.524 289.503 279.334 283.231C275.144 276.958 270.748 285.917 270.748 285.917" stroke="#7E57C2" stroke-miterlimit="10"/>
<path d="M284.102 309.411C284.102 309.411 281.391 268.331 285.87 261.403" stroke="#7E57C2" stroke-miterlimit="10"/>
<path d="M294.973 283.973C294.973 283.973 292.276 285.111 293.081 287.805C293.886 290.499 302.396 294.915 302.396 294.915C302.396 294.915 305.96 291.162 302.685 285.056C299.41 278.949 295.041 282.03 294.973 283.973Z" fill="#7E57C2"/>
<path opacity="0.5" d="M294.973 283.973C294.973 283.973 292.276 285.111 293.081 287.805C293.886 290.499 302.396 294.915 302.396 294.915C302.396 294.915 305.96 291.162 302.685 285.056C299.41 278.949 295.041 282.03 294.973 283.973Z" fill="white"/>
<path d="M283.263 278.87C283.263 278.87 286.132 278.736 286.29 281.572C286.448 284.408 280.098 292.26 280.098 292.26C280.098 292.26 275.55 290.372 276.527 283.286C277.504 276.2 282.547 277.1 283.263 278.87Z" fill="#7E57C2"/>
<path opacity="0.5" d="M283.263 278.87C283.263 278.87 286.132 278.736 286.29 281.572C286.448 284.408 280.098 292.26 280.098 292.26C280.098 292.26 275.55 290.372 276.527 283.286C277.504 276.2 282.547 277.1 283.263 278.87Z" fill="white"/>
<path d="M280.834 265.258C280.834 265.258 282.747 265.021 282.589 263.678C282.43 262.335 275.158 258.938 270.893 264.468C270.893 264.468 273.645 269.888 277.614 269.998C281.584 270.109 280.834 265.258 280.834 265.258Z" fill="#7E57C2"/>
<path opacity="0.5" d="M280.834 265.258C280.834 265.258 282.747 265.021 282.589 263.678C282.43 262.335 275.158 258.938 270.893 264.468C270.893 264.468 273.645 269.888 277.614 269.998C281.584 270.109 280.834 265.258 280.834 265.258Z" fill="white"/>
<path d="M284.398 262.011C284.398 262.011 282.665 262.975 282.183 261.743C281.701 260.51 286.311 253.171 292.503 255.288C292.503 255.288 292.668 261.561 289.324 264.034C285.981 266.506 284.398 262.011 284.398 262.011Z" fill="#7E57C2"/>
<path opacity="0.5" d="M284.398 262.011C284.398 262.011 282.665 262.975 282.183 261.743C281.701 260.51 286.311 253.171 292.503 255.288C292.503 255.288 292.668 261.561 289.324 264.034C285.981 266.506 284.398 262.011 284.398 262.011Z" fill="white"/>
<path d="M275.344 282.891C275.344 282.891 276.665 281.667 275.241 281.066C273.817 280.466 266.827 280.64 266.751 288.587C266.751 288.587 274.89 290.167 275.901 287.118C276.913 284.068 275.344 282.891 275.344 282.891Z" fill="#7E57C2"/>
<path opacity="0.5" d="M275.344 282.891C275.344 282.891 276.665 281.667 275.241 281.066C273.817 280.466 266.827 280.64 266.751 288.587C266.751 288.587 274.89 290.167 275.901 287.118C276.913 284.068 275.344 282.891 275.344 282.891Z" fill="white"/>
<path d="M291.939 265.061C291.939 265.061 290.618 263.836 292.049 263.236C293.48 262.635 300.456 262.809 300.532 270.765C300.532 270.765 292.393 272.345 291.382 269.287C290.37 266.23 291.939 265.061 291.939 265.061Z" fill="#7E57C2"/>
<path opacity="0.5" d="M291.939 265.061C291.939 265.061 290.618 263.836 292.049 263.236C293.48 262.635 300.456 262.809 300.532 270.765C300.532 270.765 292.393 272.345 291.382 269.287C290.37 266.23 291.939 265.061 291.939 265.061Z" fill="white"/>
<path d="M287.639 271.46C287.639 271.46 287.522 269.975 288.568 270.559C289.613 271.144 293.26 275.655 289.483 279.937C289.483 279.937 284.398 275.615 285.313 273.364C286.228 271.112 287.639 271.46 287.639 271.46Z" fill="#7E57C2"/>
<path opacity="0.5" d="M287.639 271.46C287.639 271.46 287.522 269.975 288.568 270.559C289.613 271.144 293.26 275.655 289.483 279.937C289.483 279.937 284.398 275.615 285.313 273.364C286.228 271.112 287.639 271.46 287.639 271.46Z" fill="white"/>
<path d="M274.161 273.585C274.161 273.585 274.952 272.4 273.796 272.25C272.64 272.1 267.467 273.688 268.671 279.621C268.671 279.621 274.98 279.083 275.248 276.611C275.516 274.138 274.161 273.585 274.161 273.585Z" fill="#7E57C2"/>
<path opacity="0.5" d="M274.161 273.585C274.161 273.585 274.952 272.4 273.796 272.25C272.64 272.1 267.467 273.688 268.671 279.621C268.671 279.621 274.98 279.083 275.248 276.611C275.516 274.138 274.161 273.585 274.161 273.585Z" fill="white"/>
<path d="M295.475 329.09H273.83L271.498 301.883H297.807L295.475 329.09Z" fill="#263238"/>
<path opacity="0.2" d="M295.475 329.09H273.83L271.498 301.883H297.807L295.475 329.09Z" fill="white"/>
<path d="M298.97 298.881H270.343V304.885H298.97V298.881Z" fill="#263238"/>
<path opacity="0.4" d="M298.97 298.881H270.343V304.885H298.97V298.881Z" fill="white"/>
<path d="M306.497 111.113H232.915C232.045 111.113 231.34 111.923 231.34 112.923V181.779C231.34 182.778 232.045 183.588 232.915 183.588H306.497C307.367 183.588 308.072 182.778 308.072 181.779V112.923C308.072 111.923 307.367 111.113 306.497 111.113Z" fill="#7E57C2"/>
<path opacity="0.6" d="M308.072 112.923V181.779C308.072 182.259 307.906 182.719 307.611 183.058C307.316 183.397 306.915 183.588 306.497 183.588H232.915C232.498 183.588 232.097 183.397 231.801 183.058C231.506 182.719 231.34 182.259 231.34 181.779V112.923C231.342 112.443 231.508 111.984 231.803 111.646C232.098 111.307 232.498 111.116 232.915 111.113H306.531C306.943 111.126 307.334 111.322 307.621 111.659C307.909 111.997 308.071 112.45 308.072 112.923Z" fill="white"/>
<path d="M306.435 118.484H232.971V181.558H306.435V118.484Z" fill="#263238"/>
<path opacity="0.5" d="M238.949 126.345C239.039 126.419 239.148 126.458 239.259 126.455C239.339 126.457 239.418 126.436 239.49 126.394C239.562 126.353 239.624 126.293 239.671 126.218C239.713 126.156 239.743 126.085 239.759 126.009C239.776 125.933 239.78 125.854 239.769 125.777C239.759 125.699 239.735 125.625 239.7 125.559C239.664 125.492 239.617 125.434 239.561 125.389L238.048 124.101L239.568 122.813C239.623 122.767 239.669 122.709 239.704 122.642C239.739 122.576 239.763 122.502 239.773 122.425C239.783 122.348 239.78 122.269 239.764 122.194C239.748 122.118 239.719 122.047 239.678 121.984C239.638 121.921 239.588 121.868 239.53 121.828C239.471 121.787 239.407 121.761 239.34 121.749C239.273 121.737 239.204 121.741 239.139 121.759C239.073 121.778 239.011 121.811 238.956 121.857L236.892 123.627C236.828 123.683 236.776 123.755 236.74 123.838C236.704 123.921 236.686 124.012 236.686 124.105C236.686 124.198 236.704 124.289 236.74 124.372C236.776 124.455 236.828 124.527 236.892 124.583L238.949 126.345Z" fill="white"/>
<path opacity="0.5" d="M245.939 124.093L244.419 125.389C244.315 125.479 244.245 125.611 244.225 125.758C244.204 125.906 244.234 126.056 244.309 126.179C244.356 126.254 244.418 126.315 244.49 126.358C244.561 126.4 244.641 126.423 244.721 126.424C244.833 126.423 244.941 126.382 245.031 126.305L247.095 124.536C247.16 124.481 247.214 124.41 247.25 124.328C247.287 124.245 247.306 124.154 247.306 124.062C247.306 123.969 247.287 123.878 247.25 123.795C247.214 123.713 247.16 123.642 247.095 123.588L245.031 121.826C244.977 121.771 244.915 121.73 244.846 121.705C244.778 121.679 244.706 121.671 244.635 121.679C244.564 121.687 244.495 121.713 244.433 121.754C244.37 121.794 244.316 121.849 244.273 121.915C244.231 121.982 244.201 122.057 244.185 122.137C244.169 122.218 244.168 122.301 244.181 122.381C244.195 122.462 244.223 122.539 244.264 122.606C244.305 122.674 244.358 122.731 244.419 122.774L245.939 124.093Z" fill="white"/>
<path opacity="0.5" d="M241.275 126.4C241.332 126.412 241.39 126.412 241.447 126.4C241.553 126.401 241.657 126.364 241.744 126.293C241.83 126.222 241.895 126.121 241.928 126.005L243.022 122.474C243.068 122.325 243.06 122.161 243.001 122.019C242.941 121.877 242.835 121.768 242.706 121.715C242.576 121.663 242.434 121.672 242.31 121.74C242.186 121.808 242.091 121.93 242.045 122.079L240.958 125.61C240.931 125.685 240.918 125.767 240.919 125.848C240.92 125.93 240.936 126.01 240.966 126.084C240.996 126.159 241.039 126.225 241.092 126.279C241.145 126.334 241.207 126.375 241.275 126.4Z" fill="white"/>
<path opacity="0.5" d="M249.881 126.653H252.599C252.781 126.653 252.956 126.57 253.085 126.421C253.214 126.273 253.287 126.072 253.287 125.863C253.287 125.653 253.214 125.452 253.085 125.304C252.956 125.156 252.781 125.073 252.599 125.073H249.881C249.699 125.073 249.524 125.156 249.395 125.304C249.266 125.452 249.193 125.653 249.193 125.863C249.193 126.072 249.266 126.273 249.395 126.421C249.524 126.57 249.699 126.653 249.881 126.653Z" fill="white"/>
<path opacity="0.5" d="M293.948 171.343H251.381C251.199 171.343 251.024 171.426 250.895 171.574C250.766 171.723 250.693 171.924 250.693 172.133C250.693 172.343 250.766 172.544 250.895 172.692C251.024 172.84 251.199 172.923 251.381 172.923H293.948C294.13 172.923 294.305 172.84 294.434 172.692C294.563 172.544 294.636 172.343 294.636 172.133C294.636 171.924 294.563 171.723 294.434 171.574C294.305 171.426 294.13 171.343 293.948 171.343Z" fill="white"/>
<path d="M303.298 171.343H298.035C297.852 171.343 297.677 171.426 297.548 171.574C297.419 171.723 297.347 171.924 297.347 172.133C297.347 172.343 297.419 172.544 297.548 172.692C297.677 172.84 297.852 172.923 298.035 172.923H303.298C303.48 172.923 303.655 172.84 303.784 172.692C303.913 172.544 303.986 172.343 303.986 172.133C303.986 171.924 303.913 171.723 303.784 171.574C303.655 171.426 303.48 171.343 303.298 171.343Z" fill="white"/>
<path d="M264.192 167.922H281.33C281.512 167.922 281.687 167.839 281.816 167.691C281.945 167.543 282.018 167.342 282.018 167.132C282.018 166.923 281.945 166.722 281.816 166.574C281.687 166.426 281.512 166.342 281.33 166.342H264.192C264.009 166.342 263.834 166.426 263.705 166.574C263.576 166.722 263.504 166.923 263.504 167.132C263.504 167.342 263.576 167.543 263.705 167.691C263.834 167.839 264.009 167.922 264.192 167.922Z" fill="white"/>
<path opacity="0.5" d="M293.949 167.922C294.131 167.922 294.306 167.839 294.435 167.691C294.564 167.543 294.637 167.342 294.637 167.132C294.637 166.923 294.564 166.722 294.435 166.574C294.306 166.426 294.131 166.342 293.949 166.342H284.227C284.045 166.342 283.87 166.426 283.741 166.574C283.612 166.722 283.539 166.923 283.539 167.132C283.539 167.342 283.612 167.543 283.741 167.691C283.87 167.839 284.045 167.922 284.227 167.922H293.949Z" fill="white"/>
<path opacity="0.5" d="M303.298 166.342H298.131C297.949 166.342 297.774 166.426 297.645 166.574C297.516 166.722 297.443 166.923 297.443 167.132C297.443 167.342 297.516 167.543 297.645 167.691C297.774 167.839 297.949 167.922 298.131 167.922H303.298C303.481 167.922 303.656 167.839 303.785 167.691C303.914 167.543 303.986 167.342 303.986 167.132C303.986 166.923 303.914 166.722 303.785 166.574C303.656 166.426 303.481 166.342 303.298 166.342Z" fill="white"/>
<path d="M294.017 161.342H271.072C270.889 161.342 270.714 161.425 270.585 161.573C270.456 161.721 270.384 161.922 270.384 162.132C270.384 162.341 270.456 162.542 270.585 162.69C270.714 162.838 270.889 162.922 271.072 162.922H293.996C294.178 162.922 294.353 162.838 294.482 162.69C294.611 162.542 294.684 162.341 294.684 162.132C294.684 161.922 294.611 161.721 294.482 161.573C294.353 161.425 294.178 161.342 293.996 161.342H294.017Z" fill="white"/>
<path d="M303.298 161.342H298.069C297.886 161.342 297.711 161.425 297.582 161.573C297.453 161.721 297.381 161.922 297.381 162.132C297.381 162.341 297.453 162.542 297.582 162.69C297.711 162.838 297.886 162.922 298.069 162.922H303.298C303.48 162.922 303.655 162.838 303.784 162.69C303.913 162.542 303.986 162.341 303.986 162.132C303.986 161.922 303.913 161.721 303.784 161.573C303.655 161.425 303.48 161.342 303.298 161.342Z" fill="white"/>
<path opacity="0.5" d="M281.392 157.131C281.392 156.921 281.32 156.721 281.191 156.572C281.061 156.424 280.886 156.341 280.704 156.341H257.312C257.13 156.341 256.955 156.424 256.826 156.572C256.697 156.721 256.624 156.921 256.624 157.131C256.624 157.341 256.697 157.541 256.826 157.69C256.955 157.838 257.13 157.921 257.312 157.921H280.704C280.886 157.921 281.061 157.838 281.191 157.69C281.32 157.541 281.392 157.341 281.392 157.131Z" fill="white"/>
<path opacity="0.5" d="M284.942 156.341C284.759 156.341 284.584 156.424 284.455 156.572C284.326 156.721 284.254 156.921 284.254 157.131C284.254 157.341 284.326 157.541 284.455 157.69C284.584 157.838 284.759 157.921 284.942 157.921H294.01C294.192 157.921 294.367 157.838 294.496 157.69C294.625 157.541 294.698 157.341 294.698 157.131C294.698 156.921 294.625 156.721 294.496 156.572C294.367 156.424 294.192 156.341 294.01 156.341H284.942Z" fill="white"/>
<path d="M303.298 156.341H298.131C297.949 156.341 297.774 156.424 297.645 156.572C297.516 156.721 297.443 156.921 297.443 157.131C297.443 157.341 297.516 157.541 297.645 157.69C297.774 157.838 297.949 157.921 298.131 157.921H303.298C303.481 157.921 303.656 157.838 303.785 157.69C303.914 157.541 303.986 157.341 303.986 157.131C303.986 156.921 303.914 156.721 303.785 156.572C303.656 156.424 303.481 156.341 303.298 156.341Z" fill="white"/>
<path d="M286.209 152.92H290.708C290.891 152.92 291.065 152.837 291.195 152.689C291.324 152.541 291.396 152.34 291.396 152.13C291.396 151.921 291.324 151.72 291.195 151.572C291.065 151.424 290.891 151.34 290.708 151.34H286.209C286.026 151.34 285.851 151.424 285.722 151.572C285.593 151.72 285.521 151.921 285.521 152.13C285.521 152.34 285.593 152.541 285.722 152.689C285.851 152.837 286.026 152.92 286.209 152.92Z" fill="white"/>
<path opacity="0.5" d="M293.927 152.92H303.298C303.48 152.92 303.655 152.837 303.784 152.689C303.913 152.541 303.986 152.34 303.986 152.13C303.986 151.921 303.913 151.72 303.784 151.572C303.655 151.424 303.48 151.34 303.298 151.34H293.927C293.745 151.34 293.57 151.424 293.441 151.572C293.312 151.72 293.239 151.921 293.239 152.13C293.239 152.34 293.312 152.541 293.441 152.689C293.57 152.837 293.745 152.92 293.927 152.92Z" fill="white"/>
<path d="M260.993 147.13C260.993 146.92 260.921 146.719 260.792 146.571C260.663 146.423 260.488 146.34 260.305 146.34H236.672C236.49 146.34 236.315 146.423 236.186 146.571C236.057 146.719 235.984 146.92 235.984 147.13C235.984 147.339 236.057 147.54 236.186 147.688C236.315 147.836 236.49 147.92 236.672 147.92H260.285C260.377 147.923 260.468 147.905 260.554 147.866C260.64 147.828 260.718 147.77 260.784 147.697C260.851 147.623 260.903 147.535 260.939 147.437C260.975 147.34 260.993 147.235 260.993 147.13Z" fill="white"/>
<path opacity="0.5" d="M264.02 147.92H270.962C271.144 147.92 271.319 147.836 271.448 147.688C271.577 147.54 271.65 147.339 271.65 147.13C271.65 146.92 271.577 146.719 271.448 146.571C271.319 146.423 271.144 146.34 270.962 146.34H264.02C263.838 146.34 263.663 146.423 263.534 146.571C263.405 146.719 263.332 146.92 263.332 147.13C263.332 147.339 263.405 147.54 263.534 147.688C263.663 147.836 263.838 147.92 264.02 147.92Z" fill="white"/>
<path opacity="0.5" d="M236.672 142.919H245.616C245.799 142.919 245.974 142.836 246.103 142.688C246.232 142.539 246.304 142.338 246.304 142.129C246.304 141.919 246.232 141.718 246.103 141.57C245.974 141.422 245.799 141.339 245.616 141.339H236.672C236.49 141.339 236.315 141.422 236.186 141.57C236.057 141.718 235.984 141.919 235.984 142.129C235.984 142.338 236.057 142.539 236.186 142.688C236.315 142.836 236.49 142.919 236.672 142.919Z" fill="white"/>
<path d="M278.53 142.129C278.53 141.919 278.458 141.718 278.329 141.57C278.2 141.422 278.025 141.339 277.842 141.339H250.075C249.892 141.339 249.717 141.422 249.588 141.57C249.459 141.718 249.387 141.919 249.387 142.129C249.387 142.338 249.459 142.539 249.588 142.688C249.717 142.836 249.892 142.919 250.075 142.919H277.842C278.025 142.919 278.2 142.836 278.329 142.688C278.458 142.539 278.53 142.338 278.53 142.129Z" fill="white"/>
<path d="M236.672 137.918H252.875C253.057 137.918 253.232 137.835 253.361 137.687C253.49 137.539 253.563 137.338 253.563 137.128C253.563 136.919 253.49 136.718 253.361 136.57C253.232 136.421 253.057 136.338 252.875 136.338H236.672C236.49 136.338 236.315 136.421 236.186 136.57C236.057 136.718 235.984 136.919 235.984 137.128C235.984 137.338 236.057 137.539 236.186 137.687C236.315 137.835 236.49 137.918 236.672 137.918Z" fill="white"/>
<path opacity="0.5" d="M255.937 137.128C255.937 137.338 256.009 137.539 256.138 137.687C256.267 137.835 256.442 137.918 256.625 137.918H260.636C260.818 137.918 260.993 137.835 261.122 137.687C261.251 137.539 261.324 137.338 261.324 137.128C261.324 136.919 261.251 136.718 261.122 136.57C260.993 136.421 260.818 136.338 260.636 136.338H256.625C256.442 136.338 256.267 136.421 256.138 136.57C256.009 136.718 255.937 136.919 255.937 137.128Z" fill="white"/>
<path opacity="0.5" d="M236.672 132.917H255.806C255.988 132.917 256.163 132.834 256.292 132.686C256.421 132.538 256.494 132.337 256.494 132.127C256.494 131.918 256.421 131.717 256.292 131.569C256.163 131.421 255.988 131.337 255.806 131.337H236.672C236.49 131.337 236.315 131.421 236.186 131.569C236.057 131.717 235.984 131.918 235.984 132.127C235.984 132.337 236.057 132.538 236.186 132.686C236.315 132.834 236.49 132.917 236.672 132.917Z" fill="white"/>
<path d="M270.047 132.917H284.722C284.905 132.917 285.08 132.834 285.209 132.686C285.338 132.538 285.41 132.337 285.41 132.127C285.41 131.918 285.338 131.717 285.209 131.569C285.08 131.421 284.905 131.337 284.722 131.337H270.047C269.865 131.337 269.69 131.421 269.561 131.569C269.432 131.717 269.359 131.918 269.359 132.127C269.359 132.337 269.432 132.538 269.561 132.686C269.69 132.834 269.865 132.917 270.047 132.917Z" fill="white"/>
<path opacity="0.2" d="M275.296 111.113V130.753C275.296 131.801 274.934 132.805 274.289 133.546C273.643 134.287 272.769 134.703 271.856 134.703H231.34V112.923C231.342 112.443 231.508 111.984 231.803 111.646C232.098 111.307 232.498 111.116 232.915 111.113H275.296Z" fill="black"/>
<path d="M270.088 55.9873H186.874C186.004 55.9873 185.299 56.7973 185.299 57.7964V126.653C185.299 127.652 186.004 128.462 186.874 128.462H270.088C270.958 128.462 271.663 127.652 271.663 126.653V57.7964C271.663 56.7973 270.958 55.9873 270.088 55.9873Z" fill="#7E57C2"/>
<path opacity="0.6" d="M271.663 57.7964V126.653C271.663 126.89 271.623 127.126 271.544 127.345C271.464 127.565 271.348 127.764 271.202 127.932C271.056 128.1 270.882 128.233 270.691 128.324C270.5 128.415 270.295 128.462 270.088 128.462H186.874C186.667 128.463 186.462 128.417 186.27 128.326C186.079 128.236 185.905 128.103 185.758 127.934C185.612 127.766 185.496 127.566 185.417 127.346C185.338 127.126 185.298 126.891 185.299 126.653V57.7964C185.299 57.3166 185.465 56.8564 185.76 56.5172C186.056 56.1779 186.457 55.9873 186.874 55.9873H270.122C270.534 55.9996 270.925 56.1954 271.212 56.5331C271.5 56.8709 271.662 57.324 271.663 57.7964Z" fill="white"/>
<path d="M270.026 63.358H186.93V126.432H270.026V63.358Z" fill="#263238"/>
<path d="M192.908 71.2185C192.998 71.2926 193.107 71.3314 193.218 71.3291C193.325 71.3274 193.43 71.2871 193.517 71.2138C193.604 71.1405 193.668 71.0378 193.702 70.9202C193.735 70.8026 193.735 70.676 193.703 70.558C193.67 70.4401 193.607 70.3368 193.52 70.2626L192 68.9749L193.52 67.6872C193.631 67.5939 193.704 67.4542 193.725 67.2986C193.746 67.143 193.712 66.9844 193.631 66.8577C193.549 66.7309 193.428 66.6464 193.292 66.6227C193.157 66.599 193.019 66.638 192.908 66.7313L190.844 68.5009C190.78 68.5569 190.728 68.6292 190.692 68.7121C190.656 68.795 190.638 68.8863 190.638 68.9788C190.638 69.0714 190.656 69.1627 190.692 69.2456C190.728 69.3285 190.78 69.4008 190.844 69.4568L192.908 71.2185Z" fill="white"/>
<path d="M199.891 68.967L198.378 70.2626C198.274 70.3524 198.204 70.4848 198.184 70.6321C198.163 70.7795 198.193 70.9302 198.268 71.0526C198.315 71.1277 198.377 71.1889 198.449 71.2314C198.52 71.274 198.6 71.2966 198.68 71.2975C198.792 71.297 198.9 71.2554 198.99 71.179L201.054 69.4094C201.121 69.3565 201.175 69.2856 201.212 69.2029C201.249 69.1203 201.268 69.0284 201.267 68.9354C201.266 68.8428 201.247 68.7516 201.21 68.6693C201.173 68.587 201.119 68.5158 201.054 68.4614L198.99 66.6997C198.936 66.645 198.874 66.6037 198.805 66.5784C198.737 66.5531 198.665 66.5444 198.594 66.5529C198.523 66.5613 198.454 66.5867 198.392 66.6274C198.329 66.6681 198.275 66.7232 198.232 66.7893C198.19 66.8554 198.16 66.9309 198.144 67.0111C198.128 67.0914 198.127 67.1745 198.14 67.2553C198.154 67.336 198.182 67.4126 198.223 67.4802C198.264 67.5477 198.317 67.6048 198.378 67.6477L199.891 68.967Z" fill="white"/>
<path d="M195.234 71.2975C195.291 71.3096 195.349 71.3096 195.406 71.2975C195.512 71.2975 195.615 71.2595 195.702 71.1886C195.788 71.1178 195.853 71.0178 195.887 70.9025L196.974 67.3712C196.998 67.2987 197.009 67.2214 197.007 67.144C197.004 67.0665 196.987 66.9905 196.959 66.9204C196.93 66.8504 196.889 66.7877 196.838 66.7362C196.788 66.6847 196.729 66.6455 196.665 66.6207C196.6 66.5893 196.529 66.5736 196.459 66.5747C196.388 66.5757 196.318 66.5935 196.254 66.6268C196.189 66.6602 196.131 66.7084 196.084 66.7685C196.036 66.8286 196 66.8993 195.977 66.9762L194.89 70.5075C194.863 70.585 194.851 70.6681 194.854 70.7514C194.857 70.8347 194.876 70.9163 194.908 70.9909C194.94 71.0654 194.986 71.1313 195.042 71.1841C195.099 71.237 195.164 71.2756 195.234 71.2975Z" fill="white"/>
<path opacity="0.5" d="M203.834 71.5266H206.586C206.768 71.5266 206.943 71.4434 207.072 71.2952C207.201 71.1471 207.274 70.9461 207.274 70.7366C207.274 70.5271 207.201 70.3261 207.072 70.178C206.943 70.0298 206.768 69.9466 206.586 69.9466H203.834C203.651 69.9466 203.476 70.0298 203.347 70.178C203.218 70.3261 203.146 70.5271 203.146 70.7366C203.146 70.9461 203.218 71.1471 203.347 71.2952C203.476 71.4434 203.651 71.5266 203.834 71.5266Z" fill="white"/>
<path opacity="0.5" d="M239.135 77.7913H242.809C242.992 77.7913 243.167 77.7081 243.296 77.5599C243.425 77.4118 243.497 77.2108 243.497 77.0013C243.497 76.7918 243.425 76.5908 243.296 76.4427C243.167 76.2945 242.992 76.2113 242.809 76.2113H239.135C238.953 76.2113 238.778 76.2945 238.649 76.4427C238.52 76.5908 238.447 76.7918 238.447 77.0013C238.447 77.2108 238.52 77.4118 238.649 77.5599C238.778 77.7081 238.953 77.7913 239.135 77.7913Z" fill="white"/>
<path d="M199.313 77.0013C199.313 77.2108 199.386 77.4118 199.515 77.5599C199.644 77.7081 199.819 77.7913 200.001 77.7913H234.401C234.584 77.7913 234.759 77.7081 234.888 77.5599C235.017 77.4118 235.089 77.2108 235.089 77.0013C235.089 76.7918 235.017 76.5908 234.888 76.4427C234.759 76.2945 234.584 76.2113 234.401 76.2113H200.001C199.819 76.2113 199.644 76.2945 199.515 76.4427C199.386 76.5908 199.313 76.7918 199.313 77.0013Z" fill="white"/>
<path opacity="0.5" d="M190.652 77.7913H195.915C196.098 77.7913 196.273 77.7081 196.402 77.5599C196.531 77.4118 196.603 77.2108 196.603 77.0013C196.603 76.7918 196.531 76.5908 196.402 76.4427C196.273 76.2945 196.098 76.2113 195.915 76.2113H190.652C190.469 76.2113 190.294 76.2945 190.165 76.4427C190.036 76.5908 189.964 76.7918 189.964 77.0013C189.964 77.2108 190.036 77.4118 190.165 77.5599C190.294 77.7081 190.469 77.7913 190.652 77.7913Z" fill="white"/>
<path d="M226.297 82.792C226.48 82.792 226.655 82.7088 226.784 82.5607C226.913 82.4125 226.985 82.2116 226.985 82.002C226.985 81.7925 226.913 81.5916 226.784 81.4434C226.655 81.2953 226.48 81.212 226.297 81.212H212.592C212.41 81.212 212.235 81.2953 212.106 81.4434C211.977 81.5916 211.904 81.7925 211.904 82.002C211.904 82.2116 211.977 82.4125 212.106 82.5607C212.235 82.7088 212.41 82.792 212.592 82.792H226.297Z" fill="white"/>
<path d="M200.001 82.792H209.723C209.905 82.792 210.08 82.7088 210.209 82.5607C210.338 82.4125 210.411 82.2116 210.411 82.002C210.411 81.7925 210.338 81.5916 210.209 81.4434C210.08 81.2953 209.905 81.212 209.723 81.212H200.001C199.819 81.212 199.644 81.2953 199.515 81.4434C199.386 81.5916 199.313 81.7925 199.313 82.002C199.313 82.2116 199.386 82.4125 199.515 82.5607C199.644 82.7088 199.819 82.792 200.001 82.792Z" fill="white"/>
<path opacity="0.5" d="M190.652 82.792H195.826C196.008 82.792 196.183 82.7088 196.312 82.5607C196.441 82.4125 196.514 82.2116 196.514 82.002C196.514 81.7925 196.441 81.5916 196.312 81.4434C196.183 81.2953 196.008 81.212 195.826 81.212H190.652C190.469 81.212 190.294 81.2953 190.165 81.4434C190.036 81.5916 189.964 81.7925 189.964 82.002C189.964 82.2116 190.036 82.4125 190.165 82.5607C190.294 82.7088 190.469 82.792 190.652 82.792Z" fill="white"/>
<path d="M220.105 87.0027C220.105 86.7932 220.033 86.5922 219.904 86.4441C219.775 86.2959 219.6 86.2127 219.417 86.2127H199.933C199.751 86.2127 199.576 86.2959 199.447 86.4441C199.318 86.5922 199.245 86.7932 199.245 87.0027C199.245 87.2122 199.318 87.4132 199.447 87.5613C199.576 87.7095 199.751 87.7927 199.933 87.7927H219.417C219.6 87.7927 219.775 87.7095 219.904 87.5613C220.033 87.4132 220.105 87.2122 220.105 87.0027Z" fill="white"/>
<path opacity="0.5" d="M190.652 87.7927H195.881C196.063 87.7927 196.238 87.7095 196.367 87.5613C196.496 87.4132 196.569 87.2122 196.569 87.0027C196.569 86.7932 196.496 86.5922 196.367 86.4441C196.238 86.2959 196.063 86.2127 195.881 86.2127H190.652C190.469 86.2127 190.294 86.2959 190.165 86.4441C190.036 86.5922 189.964 86.7932 189.964 87.0027C189.964 87.2122 190.036 87.4132 190.165 87.5613C190.294 87.7095 190.469 87.7927 190.652 87.7927Z" fill="white"/>
<path d="M213.28 92.7934H233.232C233.414 92.7934 233.589 92.7101 233.718 92.562C233.847 92.4138 233.92 92.2129 233.92 92.0034C233.92 91.7939 233.847 91.5929 233.718 91.4448C233.589 91.2966 233.414 91.2134 233.232 91.2134H213.28C213.097 91.2134 212.922 91.2966 212.793 91.4448C212.664 91.5929 212.592 91.7939 212.592 92.0034C212.592 92.2129 212.664 92.4138 212.793 92.562C212.922 92.7101 213.097 92.7934 213.28 92.7934Z" fill="white"/>
<path d="M199.947 91.2134C199.764 91.2134 199.589 91.2966 199.46 91.4448C199.331 91.5929 199.259 91.7939 199.259 92.0034C199.259 92.2129 199.331 92.4138 199.46 92.562C199.589 92.7101 199.764 92.7934 199.947 92.7934H209.008C209.19 92.7934 209.365 92.7101 209.494 92.562C209.623 92.4138 209.696 92.2129 209.696 92.0034C209.696 91.7939 209.623 91.5929 209.494 91.4448C209.365 91.2966 209.19 91.2134 209.008 91.2134H199.947Z" fill="white"/>
<path opacity="0.5" d="M190.652 92.7934H195.819C196.001 92.7934 196.176 92.7101 196.305 92.562C196.434 92.4138 196.507 92.2129 196.507 92.0034C196.507 91.7939 196.434 91.5929 196.305 91.4448C196.176 91.2966 196.001 91.2134 195.819 91.2134H190.652C190.469 91.2134 190.294 91.2966 190.165 91.4448C190.036 91.5929 189.964 91.7939 189.964 92.0034C189.964 92.2129 190.036 92.4138 190.165 92.562C190.294 92.7101 190.469 92.7934 190.652 92.7934Z" fill="white"/>
<path d="M207.721 96.2141H203.228C203.046 96.2141 202.871 96.2973 202.742 96.4455C202.613 96.5937 202.54 96.7946 202.54 97.0041C202.54 97.2136 202.613 97.4146 202.742 97.5627C202.871 97.7109 203.046 97.7941 203.228 97.7941H207.721C207.903 97.7941 208.078 97.7109 208.207 97.5627C208.336 97.4146 208.409 97.2136 208.409 97.0041C208.409 96.7946 208.336 96.5937 208.207 96.4455C208.078 96.2973 207.903 96.2141 207.721 96.2141Z" fill="white"/>
<path d="M200.022 96.2141H190.652C190.469 96.2141 190.294 96.2973 190.165 96.4455C190.036 96.5937 189.964 96.7946 189.964 97.0041C189.964 97.2136 190.036 97.4146 190.165 97.5627C190.294 97.7109 190.469 97.7941 190.652 97.7941H200.022C200.205 97.7941 200.38 97.7109 200.509 97.5627C200.638 97.4146 200.71 97.2136 200.71 97.0041C200.71 96.7946 200.638 96.5937 200.509 96.4455C200.38 96.2973 200.205 96.2141 200.022 96.2141Z" fill="white"/>
<path d="M229.517 102.005C229.517 102.214 229.589 102.415 229.718 102.563C229.847 102.712 230.022 102.795 230.205 102.795H266.889C267.071 102.795 267.246 102.712 267.375 102.563C267.504 102.415 267.577 102.214 267.577 102.005C267.577 101.795 267.504 101.594 267.375 101.446C267.246 101.298 267.071 101.215 266.889 101.215H230.205C230.022 101.215 229.847 101.298 229.718 101.446C229.589 101.594 229.517 101.795 229.517 102.005Z" fill="white"/>
<path opacity="0.5" d="M219.547 101.215C219.365 101.215 219.19 101.298 219.061 101.446C218.932 101.594 218.859 101.795 218.859 102.005C218.859 102.214 218.932 102.415 219.061 102.563C219.19 102.712 219.365 102.795 219.547 102.795H226.489C226.672 102.795 226.847 102.712 226.976 102.563C227.105 102.415 227.177 102.214 227.177 102.005C227.177 101.795 227.105 101.594 226.976 101.446C226.847 101.298 226.672 101.215 226.489 101.215H219.547Z" fill="white"/>
<path opacity="0.5" d="M266.889 106.216H257.945C257.762 106.216 257.587 106.299 257.458 106.447C257.329 106.595 257.257 106.796 257.257 107.006C257.257 107.215 257.329 107.416 257.458 107.564C257.587 107.712 257.762 107.796 257.945 107.796H266.889C267.071 107.796 267.246 107.712 267.375 107.564C267.504 107.416 267.577 107.215 267.577 107.006C267.577 106.796 267.504 106.595 267.375 106.447C267.246 106.299 267.071 106.216 266.889 106.216Z" fill="white"/>
<path d="M254.202 107.006C254.202 106.796 254.13 106.595 254.001 106.447C253.872 106.299 253.697 106.216 253.514 106.216H216.108C215.925 106.216 215.75 106.299 215.621 106.447C215.492 106.595 215.42 106.796 215.42 107.006C215.42 107.215 215.492 107.416 215.621 107.564C215.75 107.712 215.925 107.796 216.108 107.796H253.514C253.697 107.796 253.872 107.712 254.001 107.564C254.13 107.416 254.202 107.215 254.202 107.006Z" fill="white"/>
<path d="M266.889 111.216H250.687C250.505 111.216 250.33 111.299 250.201 111.448C250.072 111.596 249.999 111.797 249.999 112.006C249.999 112.216 250.072 112.417 250.201 112.565C250.33 112.713 250.505 112.796 250.687 112.796H266.889C267.072 112.796 267.247 112.713 267.376 112.565C267.505 112.417 267.577 112.216 267.577 112.006C267.577 111.797 267.505 111.596 267.376 111.448C267.247 111.299 267.072 111.216 266.889 111.216Z" fill="white"/>
<path opacity="0.5" d="M242.94 111.216C242.757 111.216 242.582 111.299 242.453 111.448C242.324 111.596 242.252 111.797 242.252 112.006C242.252 112.216 242.324 112.417 242.453 112.565C242.582 112.713 242.757 112.796 242.94 112.796H246.992C247.175 112.796 247.35 112.713 247.479 112.565C247.608 112.417 247.68 112.216 247.68 112.006C247.68 111.797 247.608 111.596 247.479 111.448C247.35 111.299 247.175 111.216 246.992 111.216H242.94Z" fill="white"/>
<path d="M266.889 116.217H234.684C234.502 116.217 234.327 116.3 234.198 116.448C234.069 116.596 233.996 116.797 233.996 117.007C233.996 117.216 234.069 117.417 234.198 117.566C234.327 117.714 234.502 117.797 234.684 117.797H266.889C267.072 117.797 267.247 117.714 267.376 117.566C267.505 117.417 267.577 117.216 267.577 117.007C267.577 116.797 267.505 116.596 267.376 116.448C267.247 116.3 267.072 116.217 266.889 116.217Z" fill="white"/>
<path d="M220.47 116.217H209.228C209.046 116.217 208.871 116.3 208.742 116.448C208.613 116.596 208.54 116.797 208.54 117.007C208.54 117.216 208.613 117.417 208.742 117.566C208.871 117.714 209.046 117.797 209.228 117.797H220.47C220.652 117.797 220.827 117.714 220.956 117.566C221.085 117.417 221.158 117.216 221.158 117.007C221.158 116.797 221.085 116.596 220.956 116.448C220.827 116.3 220.652 116.217 220.47 116.217Z" fill="white"/>
<path opacity="0.2" d="M231.34 87.1765V128.462H186.874C186.667 128.463 186.462 128.417 186.27 128.326C186.079 128.236 185.905 128.103 185.758 127.934C185.612 127.766 185.496 127.566 185.417 127.346C185.338 127.126 185.298 126.891 185.299 126.653V83.661H228.278C229.09 83.661 229.869 84.0314 230.443 84.6907C231.017 85.35 231.34 86.2441 231.34 87.1765Z" fill="black"/>
<path d="M224.089 86.7183H127.803C126.933 86.7183 126.228 87.5283 126.228 88.5274V157.384C126.228 158.383 126.933 159.193 127.803 159.193H224.089C224.959 159.193 225.664 158.383 225.664 157.384V88.5274C225.664 87.5283 224.959 86.7183 224.089 86.7183Z" fill="#7E57C2"/>
<path opacity="0.6" d="M224.089 86.7183H127.803C126.933 86.7183 126.228 87.5283 126.228 88.5274V157.384C126.228 158.383 126.933 159.193 127.803 159.193H224.089C224.959 159.193 225.664 158.383 225.664 157.384V88.5274C225.664 87.5283 224.959 86.7183 224.089 86.7183Z" fill="white"/>
<path d="M224.033 94.0811H127.865V157.155H224.033V94.0811Z" fill="#263238"/>
<path d="M146.971 107.322H131.58C131.398 107.322 131.223 107.405 131.094 107.553C130.965 107.701 130.892 107.902 130.892 108.112C130.892 108.321 130.965 108.522 131.094 108.67C131.223 108.818 131.398 108.902 131.58 108.902H146.971C147.153 108.902 147.328 108.818 147.457 108.67C147.586 108.522 147.659 108.321 147.659 108.112C147.659 107.902 147.586 107.701 147.457 107.553C147.328 107.405 147.153 107.322 146.971 107.322Z" fill="white"/>
<path d="M146.971 112.251H133.644C133.462 112.251 133.287 112.334 133.158 112.482C133.029 112.631 132.956 112.832 132.956 113.041C132.956 113.251 133.029 113.452 133.158 113.6C133.287 113.748 133.462 113.831 133.644 113.831H146.971C147.153 113.831 147.328 113.748 147.457 113.6C147.586 113.452 147.659 113.251 147.659 113.041C147.659 112.832 147.586 112.631 147.457 112.482C147.328 112.334 147.153 112.251 146.971 112.251Z" fill="white"/>
<path opacity="0.5" d="M146.971 117.181H131.58C131.398 117.181 131.223 117.264 131.094 117.412C130.965 117.56 130.892 117.761 130.892 117.971C130.892 118.18 130.965 118.381 131.094 118.529C131.223 118.677 131.398 118.761 131.58 118.761H146.971C147.153 118.761 147.328 118.677 147.457 118.529C147.586 118.381 147.659 118.18 147.659 117.971C147.659 117.761 147.586 117.56 147.457 117.412C147.328 117.264 147.153 117.181 146.971 117.181Z" fill="white"/>
<path d="M146.971 122.11H137.772C137.59 122.11 137.415 122.194 137.285 122.342C137.156 122.49 137.084 122.691 137.084 122.9C137.084 123.11 137.156 123.311 137.285 123.459C137.415 123.607 137.59 123.69 137.772 123.69H146.971C147.153 123.69 147.328 123.607 147.457 123.459C147.586 123.311 147.659 123.11 147.659 122.9C147.659 122.691 147.586 122.49 147.457 122.342C147.328 122.194 147.153 122.11 146.971 122.11Z" fill="white"/>
<path d="M146.971 127.04H131.58C131.398 127.04 131.223 127.123 131.094 127.271C130.965 127.419 130.892 127.62 130.892 127.83C130.892 128.039 130.965 128.24 131.094 128.389C131.223 128.537 131.398 128.62 131.58 128.62H146.971C147.153 128.62 147.328 128.537 147.457 128.389C147.586 128.24 147.659 128.039 147.659 127.83C147.659 127.62 147.586 127.419 147.457 127.271C147.328 127.123 147.153 127.04 146.971 127.04Z" fill="white"/>
<path d="M146.971 131.97H134.332C134.15 131.97 133.975 132.053 133.846 132.201C133.717 132.349 133.644 132.55 133.644 132.76C133.644 132.969 133.717 133.17 133.846 133.318C133.975 133.466 134.15 133.55 134.332 133.55H146.971C147.153 133.55 147.328 133.466 147.457 133.318C147.586 133.17 147.659 132.969 147.659 132.76C147.659 132.55 147.586 132.349 147.457 132.201C147.328 132.053 147.153 131.97 146.971 131.97Z" fill="white"/>
<path d="M146.971 136.899H134.332C134.15 136.899 133.975 136.982 133.846 137.13C133.717 137.279 133.644 137.48 133.644 137.689C133.644 137.899 133.717 138.1 133.846 138.248C133.975 138.396 134.15 138.479 134.332 138.479H146.971C147.153 138.479 147.328 138.396 147.457 138.248C147.586 138.1 147.659 137.899 147.659 137.689C147.659 137.48 147.586 137.279 147.457 137.13C147.328 136.982 147.153 136.899 146.971 136.899Z" fill="white"/>
<path d="M146.971 141.829H132.956C132.774 141.829 132.599 141.912 132.47 142.06C132.341 142.208 132.268 142.409 132.268 142.619C132.268 142.828 132.341 143.029 132.47 143.177C132.599 143.325 132.774 143.409 132.956 143.409H146.971C147.153 143.409 147.328 143.325 147.457 143.177C147.586 143.029 147.659 142.828 147.659 142.619C147.659 142.409 147.586 142.208 147.457 142.06C147.328 141.912 147.153 141.829 146.971 141.829Z" fill="white"/>
<path opacity="0.5" d="M146.971 146.758H137.772C137.59 146.758 137.415 146.842 137.285 146.99C137.156 147.138 137.084 147.339 137.084 147.548C137.084 147.758 137.156 147.959 137.285 148.107C137.415 148.255 137.59 148.338 137.772 148.338H146.971C147.153 148.338 147.328 148.255 147.457 148.107C147.586 147.959 147.659 147.758 147.659 147.548C147.659 147.339 147.586 147.138 147.457 146.99C147.328 146.842 147.153 146.758 146.971 146.758Z" fill="white"/>
<path opacity="0.5" d="M146.971 102.392H135.708C135.526 102.392 135.351 102.475 135.222 102.623C135.093 102.771 135.02 102.972 135.02 103.182C135.02 103.391 135.093 103.592 135.222 103.741C135.351 103.889 135.526 103.972 135.708 103.972H146.971C147.153 103.972 147.328 103.889 147.457 103.741C147.586 103.592 147.659 103.391 147.659 103.182C147.659 102.972 147.586 102.771 147.457 102.623C147.328 102.475 147.153 102.392 146.971 102.392Z" fill="white"/>
<path d="M146.971 97.4623H131.58C131.398 97.4623 131.223 97.5455 131.094 97.6937C130.965 97.8418 130.892 98.0428 130.892 98.2523C130.892 98.4618 130.965 98.6628 131.094 98.8109C131.223 98.9591 131.398 99.0423 131.58 99.0423H146.971C147.153 99.0423 147.328 98.9591 147.457 98.8109C147.586 98.6628 147.659 98.4618 147.659 98.2523C147.659 98.0428 147.586 97.8418 147.457 97.6937C147.328 97.5455 147.153 97.4623 146.971 97.4623Z" fill="white"/>
<path d="M146.971 151.68H131.58C131.398 151.68 131.223 151.763 131.094 151.911C130.965 152.06 130.892 152.26 130.892 152.47C130.892 152.68 130.965 152.88 131.094 153.029C131.223 153.177 131.398 153.26 131.58 153.26H146.971C147.153 153.26 147.328 153.177 147.457 153.029C147.586 152.88 147.659 152.68 147.659 152.47C147.659 152.26 147.586 152.06 147.457 151.911C147.328 151.763 147.153 151.68 146.971 151.68Z" fill="white"/>
<path opacity="0.5" d="M155.226 107.124H152.22V109.099H155.226V107.124Z" fill="white"/>
<path opacity="0.5" d="M155.226 112.054H152.22V114.029H155.226V112.054Z" fill="white"/>
<path opacity="0.5" d="M155.226 116.983H152.22V118.958H155.226V116.983Z" fill="white"/>
<path opacity="0.5" d="M155.226 121.913H152.22V123.888H155.226V121.913Z" fill="white"/>
<path opacity="0.5" d="M155.226 126.842H152.22V128.817H155.226V126.842Z" fill="white"/>
<path opacity="0.5" d="M155.226 131.772H152.22V133.747H155.226V131.772Z" fill="white"/>
<path opacity="0.5" d="M155.226 136.702H152.22V138.677H155.226V136.702Z" fill="white"/>
<path opacity="0.5" d="M155.226 141.631H152.22V143.606H155.226V141.631Z" fill="white"/>
<path opacity="0.5" d="M155.226 146.561H152.22V148.536H155.226V146.561Z" fill="white"/>
<path opacity="0.5" d="M155.226 102.194H152.22V104.169H155.226V102.194Z" fill="white"/>
<path opacity="0.5" d="M155.226 97.2648H152.22V99.2398H155.226V97.2648Z" fill="white"/>
<path opacity="0.5" d="M155.226 151.49H152.22V153.465H155.226V151.49Z" fill="white"/>
<path d="M170.796 108.112C170.796 108.321 170.868 108.522 170.997 108.67C171.126 108.818 171.301 108.902 171.484 108.902H221.274C221.457 108.902 221.632 108.818 221.761 108.67C221.89 108.522 221.962 108.321 221.962 108.112C221.962 107.902 221.89 107.701 221.761 107.553C221.632 107.405 221.457 107.322 221.274 107.322H171.484C171.301 107.322 171.126 107.405 170.997 107.553C170.868 107.701 170.796 107.902 170.796 108.112Z" fill="white"/>
<path d="M221.275 112.251H194.016C193.834 112.251 193.659 112.334 193.53 112.482C193.401 112.631 193.328 112.832 193.328 113.041C193.328 113.251 193.401 113.452 193.53 113.6C193.659 113.748 193.834 113.831 194.016 113.831H221.282C221.464 113.831 221.639 113.748 221.768 113.6C221.897 113.452 221.97 113.251 221.97 113.041C221.97 112.832 221.897 112.631 221.768 112.482C221.639 112.334 221.464 112.251 221.282 112.251H221.275Z" fill="white"/>
<path opacity="0.5" d="M187.535 112.251H179.052C178.87 112.251 178.695 112.334 178.566 112.482C178.437 112.631 178.364 112.832 178.364 113.041C178.364 113.251 178.437 113.452 178.566 113.6C178.695 113.748 178.87 113.831 179.052 113.831H187.535C187.718 113.831 187.893 113.748 188.022 113.6C188.151 113.452 188.223 113.251 188.223 113.041C188.223 112.832 188.151 112.631 188.022 112.482C187.893 112.334 187.718 112.251 187.535 112.251Z" fill="white"/>
<path d="M204.762 117.181H166.922C166.74 117.181 166.565 117.264 166.436 117.412C166.307 117.56 166.234 117.761 166.234 117.971C166.234 118.18 166.307 118.381 166.436 118.529C166.565 118.677 166.74 118.761 166.922 118.761H204.762C204.945 118.761 205.12 118.677 205.249 118.529C205.378 118.381 205.45 118.18 205.45 117.971C205.45 117.761 205.378 117.56 205.249 117.412C205.12 117.264 204.945 117.181 204.762 117.181Z" fill="white"/>
<path opacity="0.5" d="M159.1 118.761H161.783C161.966 118.761 162.141 118.677 162.27 118.529C162.399 118.381 162.471 118.18 162.471 117.971C162.471 117.761 162.399 117.56 162.27 117.412C162.141 117.264 161.966 117.181 161.783 117.181H159.1C158.918 117.181 158.743 117.264 158.614 117.412C158.485 117.56 158.412 117.761 158.412 117.971C158.412 118.18 158.485 118.381 158.614 118.529C158.743 118.677 158.918 118.761 159.1 118.761Z" fill="white"/>
<path d="M209.578 122.9C209.578 122.691 209.506 122.49 209.377 122.342C209.248 122.194 209.073 122.11 208.89 122.11H173.802C173.62 122.11 173.445 122.194 173.316 122.342C173.187 122.49 173.114 122.691 173.114 122.9C173.114 123.11 173.187 123.311 173.316 123.459C173.445 123.607 173.62 123.69 173.802 123.69H208.89C209.073 123.69 209.248 123.607 209.377 123.459C209.506 123.311 209.578 123.11 209.578 122.9Z" fill="white"/>
<path d="M159.1 123.69H169C169.183 123.69 169.358 123.607 169.487 123.459C169.616 123.311 169.688 123.11 169.688 122.9C169.688 122.691 169.616 122.49 169.487 122.342C169.358 122.194 169.183 122.11 169 122.11H159.1C158.918 122.11 158.743 122.194 158.614 122.342C158.485 122.49 158.412 122.691 158.412 122.9C158.412 123.11 158.485 123.311 158.614 123.459C158.743 123.607 158.918 123.69 159.1 123.69Z" fill="white"/>
<path d="M159.1 128.62H196.507C196.689 128.62 196.864 128.537 196.993 128.389C197.122 128.24 197.195 128.039 197.195 127.83C197.195 127.62 197.122 127.419 196.993 127.271C196.864 127.123 196.689 127.04 196.507 127.04H159.1C158.918 127.04 158.743 127.123 158.614 127.271C158.485 127.419 158.412 127.62 158.412 127.83C158.412 128.039 158.485 128.24 158.614 128.389C158.743 128.537 158.918 128.62 159.1 128.62Z" fill="white"/>
<path d="M183.297 131.97C183.115 131.97 182.94 132.053 182.811 132.201C182.682 132.349 182.609 132.55 182.609 132.76C182.609 132.969 182.682 133.17 182.811 133.318C182.94 133.466 183.115 133.55 183.297 133.55H202.699C202.881 133.55 203.056 133.466 203.185 133.318C203.314 133.17 203.387 132.969 203.387 132.76C203.387 132.55 203.314 132.349 203.185 132.201C203.056 132.053 202.881 131.97 202.699 131.97H183.297Z" fill="white"/>
<path d="M159.1 133.55H175.894C176.077 133.55 176.252 133.466 176.381 133.318C176.51 133.17 176.582 132.969 176.582 132.76C176.582 132.55 176.51 132.349 176.381 132.201C176.252 132.053 176.077 131.97 175.894 131.97H159.1C158.918 131.97 158.743 132.053 158.614 132.201C158.485 132.349 158.412 132.55 158.412 132.76C158.412 132.969 158.485 133.17 158.614 133.318C158.743 133.466 158.918 133.55 159.1 133.55Z" fill="white"/>
<path d="M221.274 136.899H175.612C175.429 136.899 175.254 136.982 175.125 137.13C174.996 137.279 174.924 137.48 174.924 137.689C174.924 137.899 174.996 138.1 175.125 138.248C175.254 138.396 175.429 138.479 175.612 138.479H221.274C221.457 138.479 221.632 138.396 221.761 138.248C221.89 138.1 221.962 137.899 221.962 137.689C221.962 137.48 221.89 137.279 221.761 137.13C221.632 136.982 221.457 136.899 221.274 136.899Z" fill="white"/>
<path d="M221.275 141.829H181.804C181.622 141.829 181.447 141.912 181.318 142.06C181.189 142.208 181.116 142.409 181.116 142.619C181.116 142.828 181.189 143.029 181.318 143.177C181.447 143.325 181.622 143.409 181.804 143.409H221.275C221.457 143.409 221.632 143.325 221.761 143.177C221.89 143.029 221.963 142.828 221.963 142.619C221.963 142.409 221.89 142.208 221.761 142.06C221.632 141.912 221.457 141.829 221.275 141.829Z" fill="white"/>
<path opacity="0.5" d="M221.275 146.758H213.157C212.974 146.758 212.799 146.842 212.67 146.99C212.541 147.138 212.469 147.339 212.469 147.548C212.469 147.758 212.541 147.959 212.67 148.107C212.799 148.255 212.974 148.338 213.157 148.338H221.275C221.458 148.338 221.633 148.255 221.762 148.107C221.891 147.959 221.963 147.758 221.963 147.548C221.963 147.339 221.891 147.138 221.762 146.99C221.633 146.842 221.458 146.758 221.275 146.758Z" fill="white"/>
<path d="M207.48 146.758H177.676C177.494 146.758 177.319 146.842 177.19 146.99C177.061 147.138 176.988 147.339 176.988 147.548C176.988 147.758 177.061 147.959 177.19 148.107C177.319 148.255 177.494 148.338 177.676 148.338H207.48C207.663 148.338 207.838 148.255 207.967 148.107C208.096 147.959 208.168 147.758 208.168 147.548C208.168 147.339 208.096 147.138 207.967 146.99C207.838 146.842 207.663 146.758 207.48 146.758Z" fill="white"/>
<path d="M159.1 103.972H191.003C191.185 103.972 191.36 103.889 191.489 103.741C191.618 103.592 191.691 103.391 191.691 103.182C191.691 102.972 191.618 102.771 191.489 102.623C191.36 102.475 191.185 102.392 191.003 102.392H159.1C158.918 102.392 158.743 102.475 158.614 102.623C158.485 102.771 158.412 102.972 158.412 103.182C158.412 103.391 158.485 103.592 158.614 103.741C158.743 103.889 158.918 103.972 159.1 103.972Z" fill="white"/>
<path d="M159.1 99.0423H208.891C209.073 99.0423 209.248 98.9591 209.377 98.8109C209.506 98.6628 209.579 98.4618 209.579 98.2523C209.579 98.0428 209.506 97.8418 209.377 97.6937C209.248 97.5455 209.073 97.4623 208.891 97.4623H159.1C158.918 97.4623 158.743 97.5455 158.614 97.6937C158.485 97.8418 158.412 98.0428 158.412 98.2523C158.412 98.4618 158.485 98.6628 158.614 98.8109C158.743 98.9591 158.918 99.0423 159.1 99.0423Z" fill="white"/>
<path d="M205.45 151.68H184.315C184.132 151.68 183.957 151.763 183.828 151.911C183.699 152.06 183.627 152.26 183.627 152.47C183.627 152.68 183.699 152.88 183.828 153.029C183.957 153.177 184.132 153.26 184.315 153.26H205.45C205.633 153.26 205.808 153.177 205.937 153.029C206.066 152.88 206.138 152.68 206.138 152.47C206.138 152.26 206.066 152.06 205.937 151.911C205.808 151.763 205.633 151.68 205.45 151.68Z" fill="white"/>
<path opacity="0.5" d="M178.323 151.68H159.1C158.918 151.68 158.743 151.763 158.614 151.911C158.485 152.06 158.412 152.26 158.412 152.47C158.412 152.68 158.485 152.88 158.614 153.029C158.743 153.177 158.918 153.26 159.1 153.26H178.323C178.505 153.26 178.68 153.177 178.809 153.029C178.938 152.88 179.011 152.68 179.011 152.47C179.011 152.26 178.938 152.06 178.809 151.911C178.68 151.763 178.505 151.68 178.323 151.68Z" fill="white"/>
<path opacity="0.5" d="M198.082 103.972C198.264 103.972 198.439 103.889 198.568 103.741C198.697 103.592 198.77 103.391 198.77 103.182C198.77 102.972 198.697 102.771 198.568 102.623C198.439 102.475 198.264 102.392 198.082 102.392H195.605C195.423 102.392 195.248 102.475 195.119 102.623C194.989 102.771 194.917 102.972 194.917 103.182C194.917 103.391 194.989 103.592 195.119 103.741C195.248 103.889 195.423 103.972 195.605 103.972H198.082Z" fill="white"/>
<path opacity="0.5" d="M167.928 108.112C167.928 107.902 167.855 107.701 167.726 107.553C167.597 107.405 167.422 107.322 167.24 107.322H163.917C163.734 107.322 163.559 107.405 163.43 107.553C163.301 107.701 163.229 107.902 163.229 108.112C163.229 108.321 163.301 108.522 163.43 108.67C163.559 108.818 163.734 108.902 163.917 108.902H167.24C167.422 108.902 167.597 108.818 167.726 108.67C167.855 108.522 167.928 108.321 167.928 108.112Z" fill="white"/>
<path opacity="0.5" d="M205.863 127.83C205.863 127.62 205.791 127.419 205.662 127.271C205.533 127.123 205.358 127.04 205.175 127.04H201.542C201.36 127.04 201.185 127.123 201.056 127.271C200.927 127.419 200.854 127.62 200.854 127.83C200.854 128.039 200.927 128.24 201.056 128.389C201.185 128.537 201.36 128.62 201.542 128.62H205.175C205.358 128.62 205.533 128.537 205.662 128.389C205.791 128.24 205.863 128.039 205.863 127.83Z" fill="white"/>
<path opacity="0.5" d="M217.772 123.69C217.955 123.69 218.13 123.607 218.259 123.459C218.388 123.311 218.46 123.11 218.46 122.9C218.46 122.691 218.388 122.49 218.259 122.342C218.13 122.194 217.955 122.11 217.772 122.11H214.821C214.638 122.11 214.463 122.194 214.334 122.342C214.205 122.49 214.133 122.691 214.133 122.9C214.133 123.11 214.205 123.311 214.334 123.459C214.463 123.607 214.638 123.69 214.821 123.69H217.772Z" fill="white"/>
<path opacity="0.5" d="M170.081 136.899C169.898 136.899 169.723 136.982 169.594 137.13C169.465 137.279 169.393 137.48 169.393 137.689C169.393 137.899 169.465 138.1 169.594 138.248C169.723 138.396 169.898 138.479 170.081 138.479H173.046C173.228 138.479 173.403 138.396 173.532 138.248C173.661 138.1 173.734 137.899 173.734 137.689C173.734 137.48 173.661 137.279 173.532 137.13C173.403 136.982 173.228 136.899 173.046 136.899H170.081Z" fill="white"/>
<path d="M96.045 125.618H73.2928C72.0009 125.618 70.9536 126.82 70.9536 128.304V142.437C70.9536 143.92 72.0009 145.123 73.2928 145.123H96.045C97.3369 145.123 98.3842 143.92 98.3842 142.437V128.304C98.3842 126.82 97.3369 125.618 96.045 125.618Z" fill="#7E57C2"/>
<path d="M88.8276 144.135C88.8276 144.135 89.8665 149.579 95.9209 151.688C95.9209 151.688 92.7699 148.417 93.4785 144.135H88.8276Z" fill="#7E57C2"/>
<path d="M74.538 128.691V131.969H74.2422V128.991H73.5542V128.691H74.538Z" fill="white"/>
<path d="M75.2124 130.35C75.2124 129.307 75.694 128.691 76.3545 128.691C77.015 128.691 77.4897 129.307 77.4897 130.35C77.4897 131.393 77.015 132.017 76.3545 132.017C75.694 132.017 75.2124 131.369 75.2124 130.35ZM77.1938 130.35C77.1938 129.481 76.8498 128.999 76.3545 128.999C75.8591 128.999 75.5151 129.481 75.5151 130.35C75.5151 131.219 75.8522 131.709 76.3545 131.709C76.8567 131.709 77.1938 131.203 77.1938 130.35Z" fill="white"/>
<path d="M77.9092 130.35C77.9092 129.307 78.3839 128.691 79.0444 128.691C79.7049 128.691 80.1865 129.307 80.1865 130.35C80.1865 131.393 79.7049 132.017 79.0444 132.017C78.3839 132.017 77.9092 131.369 77.9092 130.35ZM79.8837 130.35C79.8837 129.481 79.5466 128.999 79.0444 128.999C78.5421 128.999 78.205 129.481 78.205 130.35C78.205 131.219 78.549 131.709 79.0444 131.709C79.5397 131.709 79.8837 131.203 79.8837 130.35Z" fill="white"/>
<path d="M81.3906 128.691V131.969H81.0947V128.991H80.4067V128.691H81.3906Z" fill="white"/>
<path d="M82.8559 128.691V131.969H82.5601V128.991H81.8721V128.691H82.8559Z" fill="white"/>
<path d="M83.5371 130.35C83.5371 129.307 84.0118 128.691 84.6723 128.691C85.3328 128.691 85.8144 129.307 85.8144 130.35C85.8144 131.393 85.3328 132.017 84.6723 132.017C84.0118 132.017 83.5371 131.369 83.5371 130.35ZM85.5117 130.35C85.5117 129.481 85.1677 128.999 84.6723 128.999C84.177 128.999 83.8329 129.481 83.8329 130.35C83.8329 131.219 84.177 131.709 84.6723 131.709C85.1677 131.709 85.5117 131.203 85.5117 130.35Z" fill="white"/>
<path d="M87.0185 128.691V131.969H86.7227V128.991H86.0347V128.691H87.0185Z" fill="white"/>
<path d="M87.6929 130.35C87.6929 129.307 88.1745 128.691 88.8281 128.691C89.4817 128.691 89.9702 129.307 89.9702 130.35C89.9702 131.393 89.4886 132.017 88.8281 132.017C88.1676 132.017 87.6929 131.369 87.6929 130.35ZM89.6674 130.35C89.6674 129.481 89.3303 128.999 88.8281 128.999C88.3258 128.999 87.9956 129.481 87.9956 130.35C87.9956 131.219 88.3327 131.709 88.8281 131.709C89.3234 131.709 89.6674 131.203 89.6674 130.35Z" fill="white"/>
<path d="M90.3896 130.35C90.3896 129.307 90.8644 128.691 91.5248 128.691C92.1853 128.691 92.6669 129.307 92.6669 130.35C92.6669 131.393 92.1853 132.017 91.5248 132.017C90.8644 132.017 90.3896 131.369 90.3896 130.35ZM92.3642 130.35C92.3642 129.481 92.0202 128.999 91.5248 128.999C91.0295 128.999 90.6855 129.481 90.6855 130.35C90.6855 131.219 91.0295 131.709 91.5248 131.709C92.0202 131.709 92.3642 131.203 92.3642 130.35Z" fill="white"/>
<path d="M93.8711 128.691V131.969H93.5684V128.991H92.8804V128.691H93.8711Z" fill="white"/>
<path d="M95.3363 128.691V131.969H95.0474V128.991H94.3594V128.691H95.3363Z" fill="white"/>
<path d="M73.7471 135.09C73.7471 134.047 74.2218 133.431 74.8823 133.431C75.5427 133.431 76.0243 134.047 76.0243 135.09C76.0243 136.133 75.5427 136.757 74.8823 136.757C74.2218 136.757 73.7471 136.109 73.7471 135.09ZM75.7216 135.09C75.7216 134.221 75.3776 133.739 74.8823 133.739C74.3869 133.739 74.0429 134.221 74.0429 135.09C74.0429 135.959 74.3869 136.449 74.8823 136.449C75.3776 136.449 75.7216 135.943 75.7216 135.09Z" fill="white"/>
<path d="M76.4438 135.09C76.4438 134.047 76.9186 133.431 77.579 133.431C78.2395 133.431 78.7142 134.047 78.7142 135.09C78.7142 136.133 78.2395 136.757 77.579 136.757C76.9186 136.757 76.4438 136.109 76.4438 135.09ZM78.4184 135.09C78.4184 134.221 78.0744 133.739 77.579 133.739C77.0837 133.739 76.7397 134.221 76.7397 135.09C76.7397 135.959 77.0837 136.449 77.579 136.449C78.0744 136.449 78.4322 135.943 78.4322 135.09H78.4184Z" fill="white"/>
<path d="M79.9184 133.431V136.71H79.6226V133.731H78.9346V133.431H79.9184Z" fill="white"/>
<path d="M81.3906 133.431V136.71H81.0947V133.731H80.4067V133.431H81.3906Z" fill="white"/>
<path d="M82.0649 135.09C82.0649 134.047 82.5465 133.431 83.207 133.431C83.8675 133.431 84.3422 134.047 84.3422 135.09C84.3422 136.133 83.8675 136.757 83.207 136.757C82.5465 136.757 82.0649 136.109 82.0649 135.09ZM84.0464 135.09C84.0464 134.221 83.7024 133.739 83.207 133.739C82.7117 133.739 82.3677 134.221 82.3677 135.09C82.3677 135.959 82.7048 136.449 83.207 136.449C83.7093 136.449 84.0464 135.943 84.0464 135.09Z" fill="white"/>
<path d="M85.5463 133.431V136.71H85.2505V133.731H84.5625V133.431H85.5463Z" fill="white"/>
<path d="M86.2271 135.09C86.2271 134.047 86.7018 133.431 87.3623 133.431C88.0227 133.431 88.5043 134.047 88.5043 135.09C88.5043 136.133 88.0227 136.757 87.3623 136.757C86.7018 136.757 86.2271 136.109 86.2271 135.09ZM88.2016 135.09C88.2016 134.221 87.8576 133.739 87.3623 133.739C86.8669 133.739 86.5229 134.221 86.5229 135.09C86.5229 135.959 86.8669 136.449 87.3623 136.449C87.8576 136.449 88.2016 135.943 88.2016 135.09Z" fill="white"/>
<path d="M88.9175 135.09C88.9175 134.047 89.3991 133.431 90.0596 133.431C90.72 133.431 91.1948 134.047 91.1948 135.09C91.1948 136.133 90.7132 136.757 90.0596 136.757C89.406 136.757 88.9175 136.109 88.9175 135.09ZM90.8989 135.09C90.8989 134.221 90.5549 133.739 90.0596 133.739C89.5642 133.739 89.2202 134.221 89.2202 135.09C89.2202 135.959 89.5573 136.449 90.0596 136.449C90.5618 136.449 90.8989 135.943 90.8989 135.09Z" fill="white"/>
<path d="M92.3984 133.431V136.71H92.1026V133.731H91.4146V133.431H92.3984Z" fill="white"/>
<path d="M93.8711 133.431V136.71H93.5684V133.731H92.8804V133.431H93.8711Z" fill="white"/>
<path d="M95.3363 133.431V136.71H95.0474V133.731H94.3594V133.431H95.3363Z" fill="white"/>
<path d="M74.538 138.171V141.449H74.2422V138.471H73.5542V138.171H74.538Z" fill="white"/>
<path d="M76.0033 138.171V141.449H75.7144V138.471H75.0264V138.171H76.0033Z" fill="white"/>
<path d="M76.6846 139.83C76.6846 138.787 77.1593 138.171 77.8198 138.171C78.4803 138.171 78.9618 138.787 78.9618 139.83C78.9618 140.873 78.4803 141.497 77.8198 141.497C77.1593 141.497 76.6846 140.849 76.6846 139.83ZM78.6591 139.83C78.6591 138.961 78.322 138.479 77.8198 138.479C77.3175 138.479 76.9804 138.961 76.9804 139.83C76.9804 140.699 77.3244 141.189 77.8198 141.189C78.3151 141.189 78.6591 140.683 78.6591 139.83Z" fill="white"/>
<path d="M79.3818 139.83C79.3818 138.787 79.8566 138.171 80.517 138.171C81.1775 138.171 81.6591 138.787 81.6591 139.83C81.6591 140.873 81.1775 141.497 80.517 141.497C79.8566 141.497 79.3818 140.849 79.3818 139.83ZM81.3564 139.83C81.3564 138.961 81.0124 138.479 80.517 138.479C80.0217 138.479 79.6777 138.961 79.6777 139.83C79.6777 140.699 80.0217 141.189 80.517 141.189C81.0124 141.189 81.3564 140.683 81.3564 139.83Z" fill="white"/>
<path d="M82.8559 138.171V141.449H82.5601V138.471H81.8721V138.171H82.8559Z" fill="white"/>
<path d="M84.3286 138.171V141.449H84.0327V138.471H83.3447V138.171H84.3286Z" fill="white"/>
<path d="M85.0093 139.83C85.0093 138.787 85.484 138.171 86.1445 138.171C86.805 138.171 87.2866 138.787 87.2866 139.83C87.2866 140.873 86.805 141.497 86.1445 141.497C85.484 141.497 85.0093 140.849 85.0093 139.83ZM86.9838 139.83C86.9838 138.961 86.6398 138.479 86.1445 138.479C85.6491 138.479 85.312 138.937 85.312 139.83C85.312 140.723 85.656 141.189 86.1514 141.189C86.6467 141.189 86.9838 140.683 86.9838 139.83Z" fill="white"/>
<path d="M87.6997 139.83C87.6997 138.787 88.1813 138.171 88.8418 138.171C89.5023 138.171 89.977 138.787 89.977 139.83C89.977 140.873 89.5023 141.497 88.8418 141.497C88.1813 141.497 87.6997 140.849 87.6997 139.83ZM89.6812 139.83C89.6812 138.961 89.3371 138.479 88.8418 138.479C88.3464 138.479 88.0024 138.961 88.0024 139.83C88.0024 140.699 88.3395 141.189 88.8418 141.189C89.344 141.189 89.6812 140.683 89.6812 139.83Z" fill="white"/>
<path d="M91.1806 138.171V141.449H90.8848V138.471H90.1968V138.171H91.1806Z" fill="white"/>
<path d="M91.8618 139.83C91.8618 138.787 92.3365 138.171 92.997 138.171C93.6575 138.171 94.1391 138.787 94.1391 139.83C94.1391 140.873 93.6575 141.497 92.997 141.497C92.3365 141.497 91.8618 140.849 91.8618 139.83ZM93.8364 139.83C93.8364 138.961 93.4924 138.479 92.997 138.479C92.5017 138.479 92.1921 138.937 92.1921 139.83C92.1921 140.723 92.5361 141.189 93.0314 141.189C93.5268 141.189 93.8364 140.683 93.8364 139.83Z" fill="white"/>
<path d="M95.3363 138.171V141.449H95.0474V138.471H94.3594V138.171H95.3363Z" fill="white"/>
<path d="M52.4461 311.939L71.3661 309.806V279.273H78.8653V309.798L97.861 311.939C98.7722 312.041 99.6178 312.529 100.233 313.307C100.849 314.085 101.19 315.099 101.191 316.15V319.413H49.123V316.15C49.1237 315.1 49.4641 314.088 50.0781 313.31C50.6922 312.532 51.5361 312.043 52.4461 311.939Z" fill="#263238"/>
<path opacity="0.2" d="M52.4461 311.939L71.3661 309.806V279.273H78.8653V309.798L97.861 311.939C98.7722 312.041 99.6178 312.529 100.233 313.307C100.849 314.085 101.19 315.099 101.191 316.15V319.413H49.123V316.15C49.1237 315.1 49.4641 314.088 50.0781 313.31C50.6922 312.532 51.5361 312.043 52.4461 311.939Z" fill="white"/>
<path d="M99.1891 329.098C101.898 329.098 104.095 326.576 104.095 323.466C104.095 320.355 101.898 317.833 99.1891 317.833C96.4799 317.833 94.2837 320.355 94.2837 323.466C94.2837 326.576 96.4799 329.098 99.1891 329.098Z" fill="#263238"/>
<path d="M51.1252 329.098C53.8344 329.098 56.0306 326.576 56.0306 323.466C56.0306 320.355 53.8344 317.833 51.1252 317.833C48.416 317.833 46.2197 320.355 46.2197 323.466C46.2197 326.576 48.416 329.098 51.1252 329.098Z" fill="#263238"/>
<path d="M77.304 285.838H72.9077C72.1541 285.838 71.4313 285.494 70.8985 284.882C70.3656 284.27 70.0662 283.44 70.0662 282.575V258.646H80.1592V282.575C80.1592 283.005 80.0852 283.43 79.9416 283.827C79.7979 284.224 79.5874 284.585 79.3221 284.888C79.0568 285.191 78.7419 285.431 78.3956 285.594C78.0492 285.757 77.6783 285.84 77.304 285.838Z" fill="#263238"/>
<path opacity="0.3" d="M77.304 285.838H72.9077C72.1541 285.838 71.4313 285.494 70.8985 284.882C70.3656 284.27 70.0662 283.44 70.0662 282.575V258.646H80.1592V282.575C80.1592 283.005 80.0852 283.43 79.9416 283.827C79.7979 284.224 79.5874 284.585 79.3221 284.888C79.0568 285.191 78.7419 285.431 78.3956 285.594C78.0492 285.757 77.6783 285.84 77.304 285.838Z" fill="white"/>
<path d="M57.1864 210.93C57.1864 210.93 55.7278 251.631 65.6281 258.638H54.3518C54.3518 258.638 45.628 244.766 48.091 210.93H57.1864Z" fill="#263238"/>
<path opacity="0.3" d="M57.1864 210.93C57.1864 210.93 55.7278 251.631 65.6281 258.638H54.3518C54.3518 258.638 45.628 244.766 48.091 210.93H57.1864Z" fill="white"/>
<path d="M53.96 252.942H97.593C98.5053 252.942 99.3803 253.358 100.025 254.099C100.671 254.84 101.033 255.845 101.033 256.892V261.759H50.52V256.892C50.52 255.845 50.8824 254.84 51.5276 254.099C52.1727 253.358 53.0477 252.942 53.96 252.942Z" fill="#263238"/>
<path d="M101.762 257.35H49.7974C49.0337 257.35 48.4146 258.061 48.4146 258.938V260.171C48.4146 261.048 49.0337 261.759 49.7974 261.759H101.762C102.526 261.759 103.145 261.048 103.145 260.171V258.938C103.145 258.061 102.526 257.35 101.762 257.35Z" fill="#263238"/>
<path opacity="0.6" d="M101.762 257.35H49.7974C49.0337 257.35 48.4146 258.061 48.4146 258.938V260.171C48.4146 261.048 49.0337 261.759 49.7974 261.759H101.762C102.526 261.759 103.145 261.048 103.145 260.171V258.938C103.145 258.061 102.526 257.35 101.762 257.35Z" fill="white"/>
<path d="M45.7795 219.186H62.9314C68.4714 219.186 72.9624 214.029 72.9624 207.667V200.597C72.9624 194.235 68.4714 189.079 62.9314 189.079H45.7795C40.2395 189.079 35.7485 194.235 35.7485 200.597V207.667C35.7485 214.029 40.2395 219.186 45.7795 219.186Z" fill="#263238"/>
<path d="M95.0337 323.387L100.517 322.525L101.274 307.563L95.8042 308.44L95.0337 323.387Z" fill="#EBB376"/>
<path opacity="0.2" d="M95.804 308.44L101.274 307.571L100.84 316.126L95.3774 316.671L95.804 308.44Z" fill="black"/>
<path d="M95.2537 235.42L93.919 225.806L63.1929 223.696C63.1929 223.696 59.9249 243.707 62.4361 249.04C66.915 258.559 91.0707 253.78 98.1364 254.696C93.9121 274.533 94.3249 313.298 94.3249 313.298L104.418 314.183C104.418 314.183 112.185 272.408 113.754 252.563C114.814 239.188 105.147 239.528 95.2537 235.42Z" fill="#7E57C2"/>
<path d="M93.1416 313.867L105.271 314.783L106.31 308.819L92.9834 308.108L93.1416 313.867Z" fill="#7E57C2"/>
<path d="M107.679 317.801L113.196 318.267L116.65 303.818L111.139 303.36L107.679 317.801Z" fill="#EBB376"/>
<path d="M113.961 318.552C113.961 318.552 113.961 318.552 113.961 318.599H114.002C114.438 318.877 114.9 319.099 115.378 319.263C115.724 319.413 116.105 319.413 116.451 319.263C116.565 319.188 116.657 319.078 116.718 318.945C116.779 318.812 116.806 318.662 116.795 318.512C116.802 318.418 116.789 318.324 116.756 318.237C116.724 318.15 116.673 318.074 116.609 318.014C116.115 317.787 115.566 317.77 115.061 317.967C115.458 317.663 115.746 317.206 115.873 316.679C115.883 316.556 115.855 316.432 115.795 316.328C115.735 316.225 115.646 316.148 115.543 316.111C115.456 316.062 115.361 316.036 115.264 316.036C115.168 316.036 115.072 316.062 114.986 316.111C114.298 316.537 114.057 318.307 114.036 318.402H113.94C113.934 318.427 113.933 318.453 113.937 318.479C113.94 318.505 113.948 318.53 113.961 318.552ZM114.373 318.196L114.25 318.244C114.38 317.659 114.655 316.703 115.061 316.458C115.105 316.427 115.154 316.407 115.205 316.399C115.256 316.391 115.308 316.395 115.357 316.411H115.412C115.584 316.49 115.612 316.608 115.598 316.695C115.584 317.146 114.896 317.856 114.373 318.196ZM114.373 318.528C115.103 318.275 116.114 318.046 116.437 318.315C116.468 318.342 116.493 318.379 116.509 318.42C116.524 318.461 116.53 318.507 116.527 318.552C116.532 318.647 116.515 318.741 116.478 318.826C116.44 318.911 116.384 318.983 116.314 319.034C116.004 319.231 115.295 319.042 114.394 318.528H114.373Z" fill="#7E57C2"/>
<path opacity="0.2" d="M111.14 303.36L116.651 303.826L114.676 312.082L109.227 311.315L111.14 303.36Z" fill="black"/>
<path d="M118.522 311.062L108.807 307.784C108.807 307.784 114.607 270.196 120.503 257.161C120.063 256.995 119.478 256.782 118.756 256.537C117.455 256.086 115.729 255.525 113.699 254.878C99.5812 250.383 70.9673 241.953 70.9673 241.953L84.0393 227.947C84.0393 227.947 136.107 237.063 137.187 252.816C137.69 260.392 118.522 311.062 118.522 311.062Z" fill="#7E57C2"/>
<path d="M107.555 308.037L119.251 311.829L121.35 306.243L108.443 302.365L107.555 308.037Z" fill="#7E57C2"/>
<path opacity="0.2" d="M118.742 256.537C117.442 256.086 115.715 255.525 113.685 254.878C114.091 251.054 114.098 246.67 112.495 244.434C109.309 239.978 101.115 237.324 96.4507 236.415C92.5498 235.625 79.4434 234.045 79.4434 234.045C79.4434 234.045 96.4507 232.173 113.843 237.995C122.464 240.887 120.758 250.533 118.742 256.537Z" fill="black"/>
<path opacity="0.2" d="M93.1416 313.867L105.271 314.783L106.31 308.819L92.9834 308.108L93.1416 313.867Z" fill="white"/>
<path opacity="0.2" d="M107.555 308.037L119.251 311.829L121.35 306.243L108.443 302.365L107.555 308.037Z" fill="white"/>
<path d="M113.74 317.627L107.762 315.708C107.662 315.673 107.555 315.684 107.462 315.738C107.37 315.793 107.299 315.887 107.266 316L105.656 321.34C105.622 321.483 105.613 321.631 105.629 321.777C105.645 321.924 105.686 322.065 105.75 322.193C105.814 322.321 105.9 322.433 106.002 322.522C106.104 322.612 106.22 322.677 106.344 322.715C108.408 323.347 109.461 323.505 112.096 324.342C114.41 325.2 116.773 325.871 119.169 326.349C121.473 326.649 121.666 324.026 120.717 323.663C118.46 322.794 115.763 320.1 114.587 318.259C114.373 317.947 114.076 317.725 113.74 317.627Z" fill="#263238"/>
<path d="M101.06 322.541H101.177C101.177 322.541 101.301 322.589 101.315 322.604C101.329 322.62 101.315 322.604 101.315 322.644H101.363C101.831 322.811 102.313 322.919 102.801 322.968C103.165 323.045 103.542 322.96 103.854 322.731C103.947 322.633 104.015 322.507 104.05 322.368C104.085 322.229 104.086 322.081 104.053 321.941C104.042 321.847 104.012 321.757 103.964 321.68C103.916 321.603 103.852 321.54 103.778 321.498C103.249 321.397 102.706 321.512 102.244 321.822C102.57 321.431 102.763 320.918 102.787 320.377C102.766 320.248 102.709 320.132 102.625 320.044C102.54 319.957 102.433 319.905 102.319 319.895C102.213 319.873 102.104 319.877 101.998 319.905C101.893 319.934 101.794 319.987 101.707 320.061C101.129 320.629 101.019 322.431 101.019 322.533L101.06 322.541ZM101.659 322.178L101.542 322.249C101.509 321.56 101.673 320.877 102.01 320.306C102.047 320.265 102.092 320.234 102.14 320.215C102.189 320.196 102.241 320.189 102.292 320.195H102.354C102.533 320.234 102.581 320.337 102.588 320.424C102.464 321.114 102.136 321.734 101.659 322.178ZM101.735 322.486C102.423 322.067 103.344 321.601 103.702 321.791C103.739 321.809 103.77 321.839 103.793 321.876C103.816 321.914 103.83 321.958 103.833 322.004C103.854 322.095 103.855 322.191 103.834 322.282C103.814 322.374 103.773 322.458 103.716 322.525C103.434 322.802 102.712 322.786 101.735 322.486Z" fill="#7E57C2"/>
<path d="M100.93 321.767L94.7378 321.325C94.6347 321.311 94.5313 321.345 94.4501 321.419C94.3688 321.493 94.3164 321.601 94.3044 321.72L93.6989 327.329C93.6819 327.624 93.767 327.915 93.9358 328.138C94.1046 328.361 94.3434 328.499 94.6002 328.521C96.7605 328.632 97.7994 328.561 100.524 328.735C102.942 329.022 105.374 329.112 107.803 329.003C110.108 328.743 109.826 326.136 108.835 326.009C106.468 325.701 103.331 323.702 101.859 322.194C101.599 321.937 101.272 321.787 100.93 321.767Z" fill="#263238"/>
<path d="M107.782 199.53C107.782 199.53 109.516 210.322 112.64 212.399C115.763 214.477 137.366 199.657 137.366 199.657L135.557 195.47C135.557 195.47 117.469 201.079 117.297 201.11C117.125 201.142 116.609 196.37 116.609 196.37L107.782 199.53Z" fill="#263238"/>
<path d="M114.525 182.561C115.949 184.583 117.965 199.53 117.965 199.53L107.356 202.366L105.058 194.798L114.525 182.561Z" fill="#7E57C2"/>
<path opacity="0.4" d="M114.525 182.561C115.949 184.583 117.965 199.53 117.965 199.53L107.356 202.366L105.058 194.798L114.525 182.561Z" fill="white"/>
<path d="M60.1519 236.155L95.7558 229.353C95.7558 229.353 97.985 205.068 114.524 182.561C114.524 182.561 108.78 168.151 88.3461 170.15C67.9125 172.149 60.1519 236.155 60.1519 236.155Z" fill="#7E57C2"/>
<path opacity="0.6" d="M60.1519 236.155L95.7558 229.353C95.7558 229.353 97.985 205.068 114.524 182.561C114.524 182.561 108.78 168.151 88.3461 170.15C67.9125 172.149 60.1519 236.155 60.1519 236.155Z" fill="white"/>
<path d="M87.8644 190.817C87.8644 190.817 87.5067 202.05 88.5937 202.667C89.6808 203.283 110.245 194.719 113.506 194.095C116.767 193.471 124.246 196.749 124.246 196.749L124.934 201.877C124.934 201.877 118.274 201.726 114.531 199.633C114.531 199.633 90.5063 216.128 85.3326 215.188C80.1588 214.248 78.3838 191.97 78.3838 191.97L87.8644 190.817Z" fill="#EBB376"/>
<path d="M87.8646 194.798C87.8646 194.798 87.9403 201.403 89.1374 201.908C90.3345 202.414 108.126 195.217 108.126 195.217L110.94 202.698C110.94 202.698 88.4563 219.359 84.1081 215.259C79.7599 211.159 78.666 196.473 78.666 196.473L87.8646 194.798Z" fill="#263238"/>
<path d="M84.624 172.67C91.0224 171.88 88.7107 197.895 88.7107 197.895L77.9572 199.657C77.9572 199.657 73.3545 174.029 84.624 172.67Z" fill="#7E57C2"/>
<path opacity="0.4" d="M84.624 172.67C91.0224 171.88 88.7107 197.895 88.7107 197.895L77.9572 199.657C77.9572 199.657 73.3545 174.029 84.624 172.67Z" fill="white"/>
<path d="M94.7719 170.79C94.7719 170.79 94.5586 182.214 100.654 183.375C106.75 184.536 107.39 175.238 107.39 175.238C107.39 175.238 103.289 170.166 94.7719 170.79Z" fill="#263238"/>
<path d="M110.08 177.11C109.022 176.682 107.869 176.682 106.812 177.11C106.569 178.299 105.987 179.36 105.157 180.125C104.328 180.89 103.3 181.313 102.237 181.329C101.713 181.359 101.188 181.333 100.668 181.25C95.3429 180.412 95.9277 171.319 95.9277 171.319C97.8692 171.473 99.8048 170.938 101.473 169.787C102.888 168.835 104.124 167.567 105.106 166.058L110.08 177.11Z" fill="#EBB376"/>
<path opacity="0.2" d="M110.08 177.11C109.023 176.682 107.87 176.682 106.812 177.11C106.57 178.299 105.987 179.36 105.158 180.125C104.329 180.89 103.3 181.313 102.237 181.329C100.861 177.434 101.047 172.971 101.473 169.787C102.889 168.835 104.124 167.567 105.106 166.058L110.08 177.11Z" fill="black"/>
<path d="M114.208 159.454C111.835 161.302 112.915 164.431 118.281 169.336C120.462 166.09 120.82 159.785 119.093 158.205C117.366 156.625 116.272 157.85 114.208 159.454Z" fill="#263238"/>
<path d="M104.019 164.525C104.273 171.185 104.136 175.096 107.005 178.564C111.325 183.786 118.522 180.878 120.001 174.266C121.329 168.325 120.689 158.466 115.061 155.677C113.823 155.062 112.468 154.82 111.125 154.976C109.783 155.131 108.497 155.678 107.391 156.565C106.284 157.451 105.393 158.648 104.803 160.041C104.213 161.435 103.943 162.978 104.019 164.525Z" fill="#EBB376"/>
<path d="M112.639 166.524C112.639 167.061 112.88 167.504 113.183 167.512C113.485 167.52 113.747 167.085 113.754 166.548C113.761 166.011 113.52 165.56 113.217 165.552C112.914 165.545 112.68 165.987 112.639 166.524Z" fill="#263238"/>
<path d="M117.999 166.635C117.999 167.172 118.233 167.622 118.543 167.622C118.852 167.622 119.107 167.204 119.12 166.651C119.134 166.098 118.88 165.671 118.57 165.663C118.26 165.655 118.006 166.09 117.999 166.635Z" fill="#263238"/>
<path d="M116.272 166.856C116.808 168.522 117.544 170.093 118.46 171.525C118.132 171.781 117.761 171.954 117.37 172.03C116.979 172.106 116.579 172.085 116.196 171.967L116.272 166.856Z" fill="#D58745"/>
<path d="M120.4 163.064C120.374 163.115 120.337 163.157 120.292 163.187C120.248 163.216 120.197 163.231 120.145 163.23C119.799 163.194 119.449 163.253 119.126 163.403C118.803 163.553 118.516 163.788 118.288 164.091C118.266 164.124 118.239 164.152 118.208 164.173C118.177 164.194 118.142 164.208 118.107 164.214C118.071 164.22 118.034 164.218 117.999 164.207C117.964 164.197 117.932 164.179 117.903 164.154C117.873 164.131 117.849 164.1 117.83 164.066C117.811 164.031 117.798 163.992 117.792 163.952C117.786 163.911 117.788 163.87 117.796 163.83C117.804 163.79 117.82 163.753 117.841 163.72C118.123 163.332 118.482 163.028 118.888 162.833C119.294 162.638 119.734 162.557 120.173 162.598C120.209 162.599 120.244 162.608 120.277 162.625C120.309 162.642 120.339 162.666 120.363 162.696C120.388 162.727 120.406 162.762 120.419 162.801C120.431 162.839 120.436 162.881 120.434 162.922C120.434 162.972 120.422 163.021 120.4 163.064Z" fill="#263238"/>
<path d="M114.896 164.257C114.846 164.276 114.793 164.278 114.742 164.265C114.691 164.251 114.644 164.221 114.607 164.178C114.37 163.884 114.075 163.658 113.748 163.521C113.42 163.384 113.068 163.338 112.722 163.388C112.649 163.402 112.574 163.384 112.513 163.337C112.452 163.29 112.408 163.218 112.392 163.135C112.377 163.053 112.392 162.968 112.432 162.899C112.472 162.829 112.534 162.781 112.605 162.764C113.04 162.689 113.485 162.735 113.902 162.899C114.318 163.063 114.695 163.339 114.999 163.704C115.048 163.765 115.076 163.846 115.076 163.929C115.076 164.012 115.048 164.093 114.999 164.154L114.896 164.257Z" fill="#263238"/>
<path d="M106.413 158.679C109.103 159.801 108.725 163.143 104.562 169.4C101.762 166.864 100.063 160.852 101.411 158.837C102.76 156.823 104.06 157.708 106.413 158.679Z" fill="#263238"/>
<path d="M101.184 169.795C101.371 170.597 101.694 171.349 102.135 172.008C102.575 172.666 103.124 173.219 103.751 173.634C105.429 174.724 106.73 173.121 106.654 171.027C106.578 169.131 105.615 166.287 103.744 166.05C101.872 165.813 100.723 167.804 101.184 169.795Z" fill="#EBB376"/>
<path d="M111.821 173.073C111.821 173.073 112.825 175.254 115.632 175.151" stroke="#263238" stroke-width="0.526291" stroke-linecap="round" stroke-linejoin="round"/>
<path d="M107.032 160.994C107.032 160.994 109.316 161.128 110.369 162.787C110.652 162.357 110.849 161.862 110.948 161.335C111.046 160.808 111.044 160.263 110.94 159.738C110.94 159.738 113.692 160.125 114.924 162.321C115.267 161.521 115.41 160.626 115.336 159.738C115.859 160.467 116.152 161.377 116.169 162.321C116.169 162.321 118.274 160.789 117.999 159.351C118.521 160.083 118.903 160.934 119.12 161.847C119.12 161.847 120.496 161.302 120.201 158.49C120.662 159.072 120.999 159.77 121.184 160.528C121.184 160.528 122.987 154.658 116.169 151.38C109.351 148.101 101.521 151.988 101.659 158.49C101.797 164.991 107.032 160.994 107.032 160.994Z" fill="#263238"/>
<path d="M115.632 167.622C115.632 169.344 114.614 170.743 113.369 170.743C112.123 170.743 111.098 169.344 111.098 167.622C111.098 165.9 112.116 164.462 113.369 164.462C114.621 164.462 115.632 165.9 115.632 167.622Z" stroke="#263238" stroke-width="0.526291" stroke-linecap="round" stroke-linejoin="round"/>
<path d="M121.831 167.48C121.831 169.202 120.82 170.64 119.568 170.64C118.316 170.64 117.297 169.242 117.297 167.48C117.297 165.718 118.316 164.359 119.568 164.359C120.82 164.359 121.831 165.789 121.831 167.48Z" stroke="#263238" stroke-width="0.526291" stroke-linecap="round" stroke-linejoin="round"/>
<path d="M115.632 167.622C115.853 167.38 116.142 167.235 116.447 167.215C116.752 167.195 117.054 167.3 117.297 167.512" stroke="#263238" stroke-width="0.526291" stroke-linecap="round" stroke-linejoin="round"/>
<path d="M111.098 167.622L105.581 167.077" stroke="#263238" stroke-width="0.526291" stroke-linecap="round" stroke-linejoin="round"/>
<path d="M162.293 199.53V201.624C162.293 202.248 161.357 202.69 160.813 202.69H118.336C117.793 202.69 116.919 202.248 116.919 201.624V199.53H162.293Z" fill="#263238"/>
<path opacity="0.6" d="M162.293 199.53V201.624C162.293 202.248 161.357 202.69 160.813 202.69H118.336C117.793 202.69 116.919 202.248 116.919 201.624V199.53H162.293Z" fill="white"/>
<path opacity="0.2" d="M162.292 199.53V201.624C162.292 202.248 161.357 202.69 160.813 202.69H132.784C132.241 202.69 131.339 202.248 131.339 201.624V199.53H162.292Z" fill="black"/>
<path d="M169.11 173.871L164.054 200.312C163.964 200.744 163.756 201.131 163.459 201.415C163.163 201.7 162.795 201.867 162.409 201.892H134.759C134.582 201.873 134.411 201.809 134.258 201.704C134.106 201.6 133.975 201.458 133.876 201.289C133.776 201.12 133.711 200.928 133.684 200.726C133.657 200.524 133.669 200.318 133.72 200.123L138.777 173.958C138.88 173.558 139.099 173.211 139.399 172.975C139.698 172.739 140.059 172.629 140.421 172.662H168.065C168.808 172.67 169.248 173.01 169.11 173.871Z" fill="#263238"/>
<path opacity="0.6" d="M169.11 173.871L164.054 200.312C163.964 200.744 163.756 201.131 163.459 201.415C163.163 201.7 162.795 201.867 162.409 201.892H134.759C134.582 201.873 134.411 201.809 134.258 201.704C134.106 201.6 133.975 201.458 133.876 201.289C133.776 201.12 133.711 200.928 133.684 200.726C133.657 200.524 133.669 200.318 133.72 200.123L138.777 173.958C138.88 173.558 139.099 173.211 139.399 172.975C139.698 172.739 140.059 172.629 140.421 172.662H168.065C168.808 172.67 169.248 173.01 169.11 173.871Z" fill="white"/>
<path opacity="0.4" d="M169.111 173.871L164.054 200.312C163.964 200.744 163.756 201.131 163.46 201.415C163.163 201.7 162.795 201.867 162.409 201.892H135.701C135.524 201.874 135.352 201.811 135.199 201.707C135.045 201.603 134.914 201.461 134.814 201.292C134.714 201.123 134.648 200.93 134.62 200.728C134.593 200.526 134.605 200.319 134.656 200.123L139.719 173.958C139.822 173.558 140.042 173.211 140.341 172.975C140.641 172.739 141.002 172.629 141.364 172.662H168.065C168.808 172.67 169.248 173.01 169.111 173.871Z" fill="white"/>
<path opacity="0.2" d="M152.846 190.817C154.133 190.817 155.454 189.237 155.791 187.277C156.128 185.318 155.35 183.73 154.057 183.73C153.821 183.736 153.588 183.79 153.369 183.888C153.25 184.587 152.989 185.243 152.608 185.805C152.226 186.366 151.735 186.816 151.174 187.119C151.16 187.171 151.148 187.224 151.14 187.277C150.775 189.229 151.553 190.817 152.846 190.817Z" fill="black"/>
<path d="M186.682 180.965L193.122 188.36L195.303 202.69H182.059L182.602 201.11L189.861 199.53L190.493 190.817L185.684 189.505L186.682 180.965Z" fill="#263238"/>
<path opacity="0.6" d="M195.303 202.69H182.059L182.602 201.11L189.861 199.53L190.493 190.817L189.867 190.643L185.684 189.505L186.682 180.965L193.122 188.36L195.303 202.69Z" fill="white"/>
<path opacity="0.2" d="M192.227 187.333L189.868 190.643L185.685 189.505L186.682 180.965L192.227 187.333Z" fill="black"/>
<path d="M185.932 193.376H178.536C178.464 193.379 178.393 193.363 178.328 193.33C178.263 193.297 178.204 193.247 178.158 193.185C178.111 193.123 178.077 193.05 178.058 192.971C178.038 192.892 178.035 192.809 178.047 192.728L182.32 156.301C182.345 156.113 182.428 155.941 182.554 155.818C182.681 155.695 182.842 155.628 183.008 155.63H190.404C190.476 155.626 190.547 155.641 190.614 155.674C190.68 155.706 190.739 155.755 190.787 155.818C190.834 155.88 190.869 155.953 190.888 156.033C190.908 156.113 190.911 156.196 190.899 156.278L186.578 192.76C186.545 192.93 186.464 193.083 186.347 193.195C186.229 193.306 186.084 193.37 185.932 193.376Z" fill="#263238"/>
<path opacity="0.6" d="M185.932 193.376H178.536C178.464 193.379 178.393 193.363 178.328 193.33C178.263 193.297 178.204 193.247 178.158 193.185C178.111 193.123 178.077 193.05 178.058 192.971C178.038 192.892 178.035 192.809 178.047 192.728L182.32 156.301C182.345 156.113 182.428 155.941 182.554 155.818C182.681 155.695 182.842 155.628 183.008 155.63H190.404C190.476 155.626 190.547 155.641 190.614 155.674C190.68 155.706 190.739 155.755 190.787 155.818C190.834 155.88 190.869 155.953 190.888 156.033C190.908 156.113 190.911 156.196 190.899 156.278L186.578 192.76C186.545 192.93 186.464 193.083 186.347 193.195C186.229 193.306 186.084 193.37 185.932 193.376Z" fill="white"/>
<path opacity="0.4" d="M183.868 193.376H178.536C178.464 193.379 178.393 193.363 178.328 193.33C178.263 193.297 178.204 193.247 178.158 193.185C178.111 193.123 178.077 193.05 178.058 192.971C178.038 192.892 178.035 192.809 178.047 192.728L182.32 156.301C182.345 156.113 182.428 155.941 182.554 155.818C182.681 155.695 182.842 155.628 183.008 155.63H188.34C188.412 155.626 188.483 155.641 188.55 155.674C188.616 155.706 188.675 155.755 188.723 155.818C188.77 155.88 188.805 155.953 188.824 156.033C188.844 156.113 188.847 156.196 188.835 156.278L184.514 192.76C184.481 192.93 184.4 193.083 184.283 193.195C184.165 193.306 184.02 193.37 183.868 193.376Z" fill="white"/>
<path d="M184.185 192.231H178.509L182.685 156.799H188.361L184.185 192.231Z" fill="#7E57C2"/>
<path d="M135.192 329.09H130.975L123.4 208.031H128.993L135.192 329.09Z" fill="#263238"/>
<path opacity="0.4" d="M135.192 329.09H130.975L123.771 214.043L123.4 208.22H128.993L129.296 214.043L135.192 329.09Z" fill="white"/>
<path opacity="0.2" d="M129.296 213.75H123.771L123.4 208.22H128.993L129.296 213.75Z" fill="black"/>
<path d="M166.124 329.09H161.907L161.219 208.031H166.812L166.124 329.09Z" fill="#263238"/>
<path opacity="0.5" d="M166.812 208.22L166.702 227.757L166.124 329.09H161.907L161.329 227.757L161.219 208.22H166.812Z" fill="white"/>
<path opacity="0.2" d="M166.812 208.22L166.702 227.97H161.329L161.219 208.22H166.812Z" fill="black"/>
<path d="M210.872 329.09H206.655L199.08 208.031H204.674L210.872 329.09Z" fill="#263238"/>
<path opacity="0.5" d="M210.872 329.09H206.655L199.452 214.043L199.08 208.22H204.674L204.976 214.043L210.872 329.09Z" fill="white"/>
<path opacity="0.2" d="M204.976 213.75H199.452L199.08 208.22H204.674L204.976 213.75Z" fill="black"/>
<path d="M86.9772 329.09H82.7598L88.9518 208.031H94.5452L86.9772 329.09Z" fill="#263238"/>
<path opacity="0.5" d="M94.5452 208.22L94.1737 214.043L86.9703 329.09H82.7598L88.649 214.043L88.9518 208.22H94.5452Z" fill="white"/>
<path opacity="0.2" d="M88.9516 208.22H94.5451L94.1736 213.75H88.6489L88.9516 208.22Z" fill="black"/>
<path d="M84.521 204.997H209.104V209.35C209.104 209.803 208.948 210.237 208.669 210.557C208.39 210.877 208.012 211.056 207.618 211.056H86.0002C85.6061 211.056 85.2281 210.877 84.9494 210.557C84.6707 210.237 84.5142 209.803 84.5142 209.35V204.997H84.521Z" fill="#7E57C2"/>
<path opacity="0.2" d="M209.104 204.997H84.521V208.031H209.104V204.997Z" fill="black"/>
<path d="M211.718 205.787H81.9134C81.5186 205.787 81.1399 205.608 80.8601 205.288C80.5803 204.968 80.4222 204.534 80.4204 204.081C80.4204 203.626 80.5777 203.19 80.8577 202.869C81.1377 202.547 81.5174 202.366 81.9134 202.366H211.718C212.113 202.368 212.491 202.55 212.77 202.871C213.048 203.193 213.204 203.627 213.204 204.081C213.204 204.305 213.166 204.527 213.091 204.734C213.017 204.941 212.907 205.129 212.769 205.287C212.631 205.446 212.467 205.571 212.287 205.657C212.107 205.743 211.913 205.787 211.718 205.787Z" fill="#7E57C2"/>
</svg>
